999
FreeCAD v0.21 33668 +26 (Git)
  0
SECTION
  2
HEADER
  9
$ACADVER
  1
AC1014
  9
$ACADMAINTVER
 70
     9
  9
$DWGCODEPAGE
  3
ANSI_1252
  9
$TEXTSTYLE
  7
STANDARD
  9
$DIMSTYLE
  2
STANDARD
  9
$DIMTXSTY
  7
STANDARD
  9
$CMLSTYLE
  2
STANDARD
  9
$LUNITS
 70
2
  9
$INSUNITS
 70
4
  9
$PEXTMAX
 10
50
 20
50
 30
50
  9
$PEXTMIN
 10
0
 20
0
 30
0
  9
$HANDSEED
  5
FFFF
  0
ENDSEC
  0
SECTION
  2
CLASSES
  0
CLASS
  1
ACDBDICTIONARYWDFLT
  2
AcDbDictionaryWithDefault
  3
ObjectDBX Classes
 90
        0
280
     0
281
     0
  0
CLASS
  1
XRECORD
  2
AcDbXrecord
  3
ObjectDBX Classes
 90
        0
280
     0
281
     0
  0
CLASS
  1
LWPOLYLINE
  2
AcDbPolyline
  3
ObjectDBX Classes
 90
        0
280
     0
281
     1
  0
ENDSEC
  0
SECTION
  2
TABLES
  0
TABLE
  2
VPORT
  5
20
330
0
100
AcDbSymbolTable
 70
     1
  0
VPORT
  5
21
330
20
100
AcDbSymbolTableRecord
100
AcDbViewportTableRecord
  2
*ACTIVE
 70
     0
  0
ENDTAB
  0
TABLE
  2
LTYPE
  5
22
330
0
100
AcDbSymbolTable
 70
     1
  0
LTYPE
  5
23
330
21
100
AcDbSymbolTableRecord
100
AcDbLinetypeTableRecord
  2
BYBLOCK
 70
     0
  3

 72
    65
 73
     0
 40
0.0
  0
LTYPE
  5
24
330
21
100
AcDbSymbolTableRecord
100
AcDbLinetypeTableRecord
  2
BYLAYER
 70
     0
  3

 72
    65
 73
     0
 40
0.0
  0
LTYPE
  5
25
330
21
100
AcDbSymbolTableRecord
100
AcDbLinetypeTableRecord
  2
CONTINUOUS
 70
     0
  3
Solid line
 72
    65
 73
     0
 40
0.0
  0
ENDTAB
  0
TABLE
  2
LAYER
  5
C62
330
0
100
AcDbSymbolTable
 70
604
  0
LAYER
  5
C63
330
C62
100
AcDbSymbolTableRecord
100
AcDbLayerTableRecord
  2
0
 70
   0
 62
   7
  6
CONTINUOUS
  0
LAYER
  5
C64
330
C62
100
AcDbSymbolTableRecord
100
AcDbLayerTableRecord
  2
none
 70
    0
 62
    7
  6
CONTINUOUS
  0
LAYER
  5
C65
330
C62
100
AcDbSymbolTableRecord
100
AcDbLayerTableRecord
  2
Shape
 70
    0
 62
    7
  6
CONTINUOUS
  0
LAYER
  5
C66
330
C62
100
AcDbSymbolTableRecord
100
AcDbLayerTableRecord
  2
Shape001
 70
    0
 62
    7
  6
CONTINUOUS
  0
LAYER
  5
C67
330
C62
100
AcDbSymbolTableRecord
100
AcDbLayerTableRecord
  2
Shape002
 70
    0
 62
    7
  6
CONTINUOUS
  0
LAYER
  5
C68
330
C62
100
AcDbSymbolTableRecord
100
AcDbLayerTableRecord
  2
Shape003
 70
    0
 62
    7
  6
CONTINUOUS
  0
LAYER
  5
C69
330
C62
100
AcDbSymbolTableRecord
100
AcDbLayerTableRecord
  2
Shape004
 70
    0
 62
    7
  6
CONTINUOUS
  0
LAYER
  5
C6A
330
C62
100
AcDbSymbolTableRecord
100
AcDbLayerTableRecord
  2
Shape005
 70
    0
 62
    7
  6
CONTINUOUS
  0
LAYER
  5
C6B
330
C62
100
AcDbSymbolTableRecord
100
AcDbLayerTableRecord
  2
Shape006
 70
    0
 62
    7
  6
CONTINUOUS
  0
LAYER
  5
C6C
330
C62
100
AcDbSymbolTableRecord
100
AcDbLayerTableRecord
  2
Shape007
 70
    0
 62
    7
  6
CONTINUOUS
  0
LAYER
  5
C6D
330
C62
100
AcDbSymbolTableRecord
100
AcDbLayerTableRecord
  2
Shape008
 70
    0
 62
    7
  6
CONTINUOUS
  0
LAYER
  5
C6E
330
C62
100
AcDbSymbolTableRecord
100
AcDbLayerTableRecord
  2
Shape009
 70
    0
 62
    7
  6
CONTINUOUS
  0
LAYER
  5
C6F
330
C62
100
AcDbSymbolTableRecord
100
AcDbLayerTableRecord
  2
Shape010
 70
    0
 62
    7
  6
CONTINUOUS
  0
LAYER
  5
C70
330
C62
100
AcDbSymbolTableRecord
100
AcDbLayerTableRecord
  2
Shape011
 70
    0
 62
    7
  6
CONTINUOUS
  0
LAYER
  5
C71
330
C62
100
AcDbSymbolTableRecord
100
AcDbLayerTableRecord
  2
Shape012
 70
    0
 62
    7
  6
CONTINUOUS
  0
LAYER
  5
C72
330
C62
100
AcDbSymbolTableRecord
100
AcDbLayerTableRecord
  2
Shape013
 70
    0
 62
    7
  6
CONTINUOUS
  0
LAYER
  5
C73
330
C62
100
AcDbSymbolTableRecord
100
AcDbLayerTableRecord
  2
Shape014
 70
    0
 62
    7
  6
CONTINUOUS
  0
LAYER
  5
C74
330
C62
100
AcDbSymbolTableRecord
100
AcDbLayerTableRecord
  2
Shape015
 70
    0
 62
    7
  6
CONTINUOUS
  0
LAYER
  5
C75
330
C62
100
AcDbSymbolTableRecord
100
AcDbLayerTableRecord
  2
Shape016
 70
    0
 62
    7
  6
CONTINUOUS
  0
LAYER
  5
C76
330
C62
100
AcDbSymbolTableRecord
100
AcDbLayerTableRecord
  2
Shape017
 70
    0
 62
    7
  6
CONTINUOUS
  0
LAYER
  5
C77
330
C62
100
AcDbSymbolTableRecord
100
AcDbLayerTableRecord
  2
Shape018
 70
    0
 62
    7
  6
CONTINUOUS
  0
LAYER
  5
C78
330
C62
100
AcDbSymbolTableRecord
100
AcDbLayerTableRecord
  2
Shape019
 70
    0
 62
    7
  6
CONTINUOUS
  0
LAYER
  5
C79
330
C62
100
AcDbSymbolTableRecord
100
AcDbLayerTableRecord
  2
Shape020
 70
    0
 62
    7
  6
CONTINUOUS
  0
LAYER
  5
C7A
330
C62
100
AcDbSymbolTableRecord
100
AcDbLayerTableRecord
  2
Shape021
 70
    0
 62
    7
  6
CONTINUOUS
  0
LAYER
  5
C7B
330
C62
100
AcDbSymbolTableRecord
100
AcDbLayerTableRecord
  2
Shape022
 70
    0
 62
    7
  6
CONTINUOUS
  0
LAYER
  5
C7C
330
C62
100
AcDbSymbolTableRecord
100
AcDbLayerTableRecord
  2
Shape023
 70
    0
 62
    7
  6
CONTINUOUS
  0
LAYER
  5
C7D
330
C62
100
AcDbSymbolTableRecord
100
AcDbLayerTableRecord
  2
Shape024
 70
    0
 62
    7
  6
CONTINUOUS
  0
LAYER
  5
C7E
330
C62
100
AcDbSymbolTableRecord
100
AcDbLayerTableRecord
  2
Shape025
 70
    0
 62
    7
  6
CONTINUOUS
  0
LAYER
  5
C7F
330
C62
100
AcDbSymbolTableRecord
100
AcDbLayerTableRecord
  2
Shape026
 70
    0
 62
    7
  6
CONTINUOUS
  0
LAYER
  5
C80
330
C62
100
AcDbSymbolTableRecord
100
AcDbLayerTableRecord
  2
Shape027
 70
    0
 62
    7
  6
CONTINUOUS
  0
LAYER
  5
C81
330
C62
100
AcDbSymbolTableRecord
100
AcDbLayerTableRecord
  2
Shape028
 70
    0
 62
    7
  6
CONTINUOUS
  0
LAYER
  5
C82
330
C62
100
AcDbSymbolTableRecord
100
AcDbLayerTableRecord
  2
Shape029
 70
    0
 62
    7
  6
CONTINUOUS
  0
LAYER
  5
C83
330
C62
100
AcDbSymbolTableRecord
100
AcDbLayerTableRecord
  2
Shape030
 70
    0
 62
    7
  6
CONTINUOUS
  0
LAYER
  5
C84
330
C62
100
AcDbSymbolTableRecord
100
AcDbLayerTableRecord
  2
Shape031
 70
    0
 62
    7
  6
CONTINUOUS
  0
LAYER
  5
C85
330
C62
100
AcDbSymbolTableRecord
100
AcDbLayerTableRecord
  2
Shape032
 70
    0
 62
    7
  6
CONTINUOUS
  0
LAYER
  5
C86
330
C62
100
AcDbSymbolTableRecord
100
AcDbLayerTableRecord
  2
Shape033
 70
    0
 62
    7
  6
CONTINUOUS
  0
LAYER
  5
C87
330
C62
100
AcDbSymbolTableRecord
100
AcDbLayerTableRecord
  2
Shape034
 70
    0
 62
    7
  6
CONTINUOUS
  0
LAYER
  5
C88
330
C62
100
AcDbSymbolTableRecord
100
AcDbLayerTableRecord
  2
Shape035
 70
    0
 62
    7
  6
CONTINUOUS
  0
LAYER
  5
C89
330
C62
100
AcDbSymbolTableRecord
100
AcDbLayerTableRecord
  2
Shape036
 70
    0
 62
    7
  6
CONTINUOUS
  0
LAYER
  5
C8A
330
C62
100
AcDbSymbolTableRecord
100
AcDbLayerTableRecord
  2
Shape037
 70
    0
 62
    7
  6
CONTINUOUS
  0
LAYER
  5
C8B
330
C62
100
AcDbSymbolTableRecord
100
AcDbLayerTableRecord
  2
Shape038
 70
    0
 62
    7
  6
CONTINUOUS
  0
LAYER
  5
C8C
330
C62
100
AcDbSymbolTableRecord
100
AcDbLayerTableRecord
  2
Shape039
 70
    0
 62
    7
  6
CONTINUOUS
  0
LAYER
  5
C8D
330
C62
100
AcDbSymbolTableRecord
100
AcDbLayerTableRecord
  2
Shape040
 70
    0
 62
    7
  6
CONTINUOUS
  0
LAYER
  5
C8E
330
C62
100
AcDbSymbolTableRecord
100
AcDbLayerTableRecord
  2
Shape041
 70
    0
 62
    7
  6
CONTINUOUS
  0
LAYER
  5
C8F
330
C62
100
AcDbSymbolTableRecord
100
AcDbLayerTableRecord
  2
Shape042
 70
    0
 62
    7
  6
CONTINUOUS
  0
LAYER
  5
C90
330
C62
100
AcDbSymbolTableRecord
100
AcDbLayerTableRecord
  2
Shape043
 70
    0
 62
    7
  6
CONTINUOUS
  0
LAYER
  5
C91
330
C62
100
AcDbSymbolTableRecord
100
AcDbLayerTableRecord
  2
Shape044
 70
    0
 62
    7
  6
CONTINUOUS
  0
LAYER
  5
C92
330
C62
100
AcDbSymbolTableRecord
100
AcDbLayerTableRecord
  2
Shape045
 70
    0
 62
    7
  6
CONTINUOUS
  0
LAYER
  5
C93
330
C62
100
AcDbSymbolTableRecord
100
AcDbLayerTableRecord
  2
Shape046
 70
    0
 62
    7
  6
CONTINUOUS
  0
LAYER
  5
C94
330
C62
100
AcDbSymbolTableRecord
100
AcDbLayerTableRecord
  2
Shape047
 70
    0
 62
    7
  6
CONTINUOUS
  0
LAYER
  5
C95
330
C62
100
AcDbSymbolTableRecord
100
AcDbLayerTableRecord
  2
Shape048
 70
    0
 62
    7
  6
CONTINUOUS
  0
LAYER
  5
C96
330
C62
100
AcDbSymbolTableRecord
100
AcDbLayerTableRecord
  2
Shape049
 70
    0
 62
    7
  6
CONTINUOUS
  0
LAYER
  5
C97
330
C62
100
AcDbSymbolTableRecord
100
AcDbLayerTableRecord
  2
Shape050
 70
    0
 62
    7
  6
CONTINUOUS
  0
LAYER
  5
C98
330
C62
100
AcDbSymbolTableRecord
100
AcDbLayerTableRecord
  2
Shape051
 70
    0
 62
    7
  6
CONTINUOUS
  0
LAYER
  5
C99
330
C62
100
AcDbSymbolTableRecord
100
AcDbLayerTableRecord
  2
Shape052
 70
    0
 62
    7
  6
CONTINUOUS
  0
LAYER
  5
C9A
330
C62
100
AcDbSymbolTableRecord
100
AcDbLayerTableRecord
  2
Shape053
 70
    0
 62
    7
  6
CONTINUOUS
  0
LAYER
  5
C9B
330
C62
100
AcDbSymbolTableRecord
100
AcDbLayerTableRecord
  2
Shape054
 70
    0
 62
    7
  6
CONTINUOUS
  0
LAYER
  5
C9C
330
C62
100
AcDbSymbolTableRecord
100
AcDbLayerTableRecord
  2
Shape055
 70
    0
 62
    7
  6
CONTINUOUS
  0
LAYER
  5
C9D
330
C62
100
AcDbSymbolTableRecord
100
AcDbLayerTableRecord
  2
Shape056
 70
    0
 62
    7
  6
CONTINUOUS
  0
LAYER
  5
C9E
330
C62
100
AcDbSymbolTableRecord
100
AcDbLayerTableRecord
  2
Shape057
 70
    0
 62
    7
  6
CONTINUOUS
  0
LAYER
  5
C9F
330
C62
100
AcDbSymbolTableRecord
100
AcDbLayerTableRecord
  2
Shape058
 70
    0
 62
    7
  6
CONTINUOUS
  0
LAYER
  5
CA0
330
C62
100
AcDbSymbolTableRecord
100
AcDbLayerTableRecord
  2
Shape059
 70
    0
 62
    7
  6
CONTINUOUS
  0
LAYER
  5
CA1
330
C62
100
AcDbSymbolTableRecord
100
AcDbLayerTableRecord
  2
Shape060
 70
    0
 62
    7
  6
CONTINUOUS
  0
LAYER
  5
CA2
330
C62
100
AcDbSymbolTableRecord
100
AcDbLayerTableRecord
  2
Shape061
 70
    0
 62
    7
  6
CONTINUOUS
  0
LAYER
  5
CA3
330
C62
100
AcDbSymbolTableRecord
100
AcDbLayerTableRecord
  2
Shape062
 70
    0
 62
    7
  6
CONTINUOUS
  0
LAYER
  5
CA4
330
C62
100
AcDbSymbolTableRecord
100
AcDbLayerTableRecord
  2
Shape063
 70
    0
 62
    7
  6
CONTINUOUS
  0
LAYER
  5
CA5
330
C62
100
AcDbSymbolTableRecord
100
AcDbLayerTableRecord
  2
Shape064
 70
    0
 62
    7
  6
CONTINUOUS
  0
LAYER
  5
CA6
330
C62
100
AcDbSymbolTableRecord
100
AcDbLayerTableRecord
  2
Shape065
 70
    0
 62
    7
  6
CONTINUOUS
  0
LAYER
  5
CA7
330
C62
100
AcDbSymbolTableRecord
100
AcDbLayerTableRecord
  2
Shape066
 70
    0
 62
    7
  6
CONTINUOUS
  0
LAYER
  5
CA8
330
C62
100
AcDbSymbolTableRecord
100
AcDbLayerTableRecord
  2
Shape067
 70
    0
 62
    7
  6
CONTINUOUS
  0
LAYER
  5
CA9
330
C62
100
AcDbSymbolTableRecord
100
AcDbLayerTableRecord
  2
Shape068
 70
    0
 62
    7
  6
CONTINUOUS
  0
LAYER
  5
CAA
330
C62
100
AcDbSymbolTableRecord
100
AcDbLayerTableRecord
  2
Shape069
 70
    0
 62
    7
  6
CONTINUOUS
  0
LAYER
  5
CAB
330
C62
100
AcDbSymbolTableRecord
100
AcDbLayerTableRecord
  2
Shape070
 70
    0
 62
    7
  6
CONTINUOUS
  0
LAYER
  5
CAC
330
C62
100
AcDbSymbolTableRecord
100
AcDbLayerTableRecord
  2
Shape071
 70
    0
 62
    7
  6
CONTINUOUS
  0
LAYER
  5
CAD
330
C62
100
AcDbSymbolTableRecord
100
AcDbLayerTableRecord
  2
Shape072
 70
    0
 62
    7
  6
CONTINUOUS
  0
LAYER
  5
CAE
330
C62
100
AcDbSymbolTableRecord
100
AcDbLayerTableRecord
  2
Shape073
 70
    0
 62
    7
  6
CONTINUOUS
  0
LAYER
  5
CAF
330
C62
100
AcDbSymbolTableRecord
100
AcDbLayerTableRecord
  2
Shape074
 70
    0
 62
    7
  6
CONTINUOUS
  0
LAYER
  5
CB0
330
C62
100
AcDbSymbolTableRecord
100
AcDbLayerTableRecord
  2
Shape075
 70
    0
 62
    7
  6
CONTINUOUS
  0
LAYER
  5
CB1
330
C62
100
AcDbSymbolTableRecord
100
AcDbLayerTableRecord
  2
Shape076
 70
    0
 62
    7
  6
CONTINUOUS
  0
LAYER
  5
CB2
330
C62
100
AcDbSymbolTableRecord
100
AcDbLayerTableRecord
  2
Shape077
 70
    0
 62
    7
  6
CONTINUOUS
  0
LAYER
  5
CB3
330
C62
100
AcDbSymbolTableRecord
100
AcDbLayerTableRecord
  2
Shape078
 70
    0
 62
    7
  6
CONTINUOUS
  0
LAYER
  5
CB4
330
C62
100
AcDbSymbolTableRecord
100
AcDbLayerTableRecord
  2
Shape079
 70
    0
 62
    7
  6
CONTINUOUS
  0
LAYER
  5
CB5
330
C62
100
AcDbSymbolTableRecord
100
AcDbLayerTableRecord
  2
Shape080
 70
    0
 62
    7
  6
CONTINUOUS
  0
LAYER
  5
CB6
330
C62
100
AcDbSymbolTableRecord
100
AcDbLayerTableRecord
  2
Shape081
 70
    0
 62
    7
  6
CONTINUOUS
  0
LAYER
  5
CB7
330
C62
100
AcDbSymbolTableRecord
100
AcDbLayerTableRecord
  2
Shape082
 70
    0
 62
    7
  6
CONTINUOUS
  0
LAYER
  5
CB8
330
C62
100
AcDbSymbolTableRecord
100
AcDbLayerTableRecord
  2
Shape083
 70
    0
 62
    7
  6
CONTINUOUS
  0
LAYER
  5
CB9
330
C62
100
AcDbSymbolTableRecord
100
AcDbLayerTableRecord
  2
Shape084
 70
    0
 62
    7
  6
CONTINUOUS
  0
LAYER
  5
CBA
330
C62
100
AcDbSymbolTableRecord
100
AcDbLayerTableRecord
  2
Shape085
 70
    0
 62
    7
  6
CONTINUOUS
  0
LAYER
  5
CBB
330
C62
100
AcDbSymbolTableRecord
100
AcDbLayerTableRecord
  2
Shape086
 70
    0
 62
    7
  6
CONTINUOUS
  0
LAYER
  5
CBC
330
C62
100
AcDbSymbolTableRecord
100
AcDbLayerTableRecord
  2
Shape087
 70
    0
 62
    7
  6
CONTINUOUS
  0
LAYER
  5
CBD
330
C62
100
AcDbSymbolTableRecord
100
AcDbLayerTableRecord
  2
Shape088
 70
    0
 62
    7
  6
CONTINUOUS
  0
LAYER
  5
CBE
330
C62
100
AcDbSymbolTableRecord
100
AcDbLayerTableRecord
  2
Shape089
 70
    0
 62
    7
  6
CONTINUOUS
  0
LAYER
  5
CBF
330
C62
100
AcDbSymbolTableRecord
100
AcDbLayerTableRecord
  2
Shape090
 70
    0
 62
    7
  6
CONTINUOUS
  0
LAYER
  5
CC0
330
C62
100
AcDbSymbolTableRecord
100
AcDbLayerTableRecord
  2
Shape091
 70
    0
 62
    7
  6
CONTINUOUS
  0
LAYER
  5
CC1
330
C62
100
AcDbSymbolTableRecord
100
AcDbLayerTableRecord
  2
Shape092
 70
    0
 62
    7
  6
CONTINUOUS
  0
LAYER
  5
CC2
330
C62
100
AcDbSymbolTableRecord
100
AcDbLayerTableRecord
  2
Shape096
 70
    0
 62
    7
  6
CONTINUOUS
  0
LAYER
  5
CC3
330
C62
100
AcDbSymbolTableRecord
100
AcDbLayerTableRecord
  2
Shape097
 70
    0
 62
    7
  6
CONTINUOUS
  0
LAYER
  5
CC4
330
C62
100
AcDbSymbolTableRecord
100
AcDbLayerTableRecord
  2
Shape098
 70
    0
 62
    7
  6
CONTINUOUS
  0
LAYER
  5
CC5
330
C62
100
AcDbSymbolTableRecord
100
AcDbLayerTableRecord
  2
Shape099
 70
    0
 62
    7
  6
CONTINUOUS
  0
LAYER
  5
CC6
330
C62
100
AcDbSymbolTableRecord
100
AcDbLayerTableRecord
  2
Shape100
 70
    0
 62
    7
  6
CONTINUOUS
  0
LAYER
  5
CC7
330
C62
100
AcDbSymbolTableRecord
100
AcDbLayerTableRecord
  2
Shape101
 70
    0
 62
    7
  6
CONTINUOUS
  0
LAYER
  5
CC8
330
C62
100
AcDbSymbolTableRecord
100
AcDbLayerTableRecord
  2
Shape102
 70
    0
 62
    7
  6
CONTINUOUS
  0
LAYER
  5
CC9
330
C62
100
AcDbSymbolTableRecord
100
AcDbLayerTableRecord
  2
Shape105
 70
    0
 62
    7
  6
CONTINUOUS
  0
LAYER
  5
CCA
330
C62
100
AcDbSymbolTableRecord
100
AcDbLayerTableRecord
  2
Shape106
 70
    0
 62
    7
  6
CONTINUOUS
  0
LAYER
  5
CCB
330
C62
100
AcDbSymbolTableRecord
100
AcDbLayerTableRecord
  2
Shape108
 70
    0
 62
    7
  6
CONTINUOUS
  0
LAYER
  5
CCC
330
C62
100
AcDbSymbolTableRecord
100
AcDbLayerTableRecord
  2
Shape110
 70
    0
 62
    7
  6
CONTINUOUS
  0
LAYER
  5
CCD
330
C62
100
AcDbSymbolTableRecord
100
AcDbLayerTableRecord
  2
Shape111
 70
    0
 62
    7
  6
CONTINUOUS
  0
LAYER
  5
CCE
330
C62
100
AcDbSymbolTableRecord
100
AcDbLayerTableRecord
  2
Shape112
 70
    0
 62
    7
  6
CONTINUOUS
  0
LAYER
  5
CCF
330
C62
100
AcDbSymbolTableRecord
100
AcDbLayerTableRecord
  2
Shape113
 70
    0
 62
    7
  6
CONTINUOUS
  0
LAYER
  5
CD0
330
C62
100
AcDbSymbolTableRecord
100
AcDbLayerTableRecord
  2
Shape115
 70
    0
 62
    7
  6
CONTINUOUS
  0
LAYER
  5
CD1
330
C62
100
AcDbSymbolTableRecord
100
AcDbLayerTableRecord
  2
Shape116
 70
    0
 62
    7
  6
CONTINUOUS
  0
LAYER
  5
CD2
330
C62
100
AcDbSymbolTableRecord
100
AcDbLayerTableRecord
  2
Shape118
 70
    0
 62
    7
  6
CONTINUOUS
  0
LAYER
  5
CD3
330
C62
100
AcDbSymbolTableRecord
100
AcDbLayerTableRecord
  2
Shape119
 70
    0
 62
    7
  6
CONTINUOUS
  0
LAYER
  5
CD4
330
C62
100
AcDbSymbolTableRecord
100
AcDbLayerTableRecord
  2
Shape132
 70
    0
 62
    7
  6
CONTINUOUS
  0
LAYER
  5
CD5
330
C62
100
AcDbSymbolTableRecord
100
AcDbLayerTableRecord
  2
Shape133
 70
    0
 62
    7
  6
CONTINUOUS
  0
LAYER
  5
CD6
330
C62
100
AcDbSymbolTableRecord
100
AcDbLayerTableRecord
  2
Shape134
 70
    0
 62
    7
  6
CONTINUOUS
  0
LAYER
  5
CD7
330
C62
100
AcDbSymbolTableRecord
100
AcDbLayerTableRecord
  2
Shape135
 70
    0
 62
    7
  6
CONTINUOUS
  0
LAYER
  5
CD8
330
C62
100
AcDbSymbolTableRecord
100
AcDbLayerTableRecord
  2
Shape136
 70
    0
 62
    7
  6
CONTINUOUS
  0
LAYER
  5
CD9
330
C62
100
AcDbSymbolTableRecord
100
AcDbLayerTableRecord
  2
Shape137
 70
    0
 62
    7
  6
CONTINUOUS
  0
LAYER
  5
CDA
330
C62
100
AcDbSymbolTableRecord
100
AcDbLayerTableRecord
  2
Shape138
 70
    0
 62
    7
  6
CONTINUOUS
  0
LAYER
  5
CDB
330
C62
100
AcDbSymbolTableRecord
100
AcDbLayerTableRecord
  2
Shape139
 70
    0
 62
    7
  6
CONTINUOUS
  0
LAYER
  5
CDC
330
C62
100
AcDbSymbolTableRecord
100
AcDbLayerTableRecord
  2
Shape140
 70
    0
 62
    7
  6
CONTINUOUS
  0
LAYER
  5
CDD
330
C62
100
AcDbSymbolTableRecord
100
AcDbLayerTableRecord
  2
Shape141
 70
    0
 62
    7
  6
CONTINUOUS
  0
LAYER
  5
CDE
330
C62
100
AcDbSymbolTableRecord
100
AcDbLayerTableRecord
  2
Shape142
 70
    0
 62
    7
  6
CONTINUOUS
  0
LAYER
  5
CDF
330
C62
100
AcDbSymbolTableRecord
100
AcDbLayerTableRecord
  2
Shape143
 70
    0
 62
    7
  6
CONTINUOUS
  0
LAYER
  5
CE0
330
C62
100
AcDbSymbolTableRecord
100
AcDbLayerTableRecord
  2
Shape144
 70
    0
 62
    7
  6
CONTINUOUS
  0
LAYER
  5
CE1
330
C62
100
AcDbSymbolTableRecord
100
AcDbLayerTableRecord
  2
Shape145
 70
    0
 62
    7
  6
CONTINUOUS
  0
LAYER
  5
CE2
330
C62
100
AcDbSymbolTableRecord
100
AcDbLayerTableRecord
  2
Shape146
 70
    0
 62
    7
  6
CONTINUOUS
  0
LAYER
  5
CE3
330
C62
100
AcDbSymbolTableRecord
100
AcDbLayerTableRecord
  2
Shape147
 70
    0
 62
    7
  6
CONTINUOUS
  0
LAYER
  5
CE4
330
C62
100
AcDbSymbolTableRecord
100
AcDbLayerTableRecord
  2
Shape148
 70
    0
 62
    7
  6
CONTINUOUS
  0
LAYER
  5
CE5
330
C62
100
AcDbSymbolTableRecord
100
AcDbLayerTableRecord
  2
Shape151
 70
    0
 62
    7
  6
CONTINUOUS
  0
LAYER
  5
CE6
330
C62
100
AcDbSymbolTableRecord
100
AcDbLayerTableRecord
  2
Shape152
 70
    0
 62
    7
  6
CONTINUOUS
  0
LAYER
  5
CE7
330
C62
100
AcDbSymbolTableRecord
100
AcDbLayerTableRecord
  2
Shape153
 70
    0
 62
    7
  6
CONTINUOUS
  0
LAYER
  5
CE8
330
C62
100
AcDbSymbolTableRecord
100
AcDbLayerTableRecord
  2
Shape154
 70
    0
 62
    7
  6
CONTINUOUS
  0
LAYER
  5
CE9
330
C62
100
AcDbSymbolTableRecord
100
AcDbLayerTableRecord
  2
Shape157
 70
    0
 62
    7
  6
CONTINUOUS
  0
LAYER
  5
CEA
330
C62
100
AcDbSymbolTableRecord
100
AcDbLayerTableRecord
  2
Shape158
 70
    0
 62
    7
  6
CONTINUOUS
  0
LAYER
  5
CEB
330
C62
100
AcDbSymbolTableRecord
100
AcDbLayerTableRecord
  2
Shape159
 70
    0
 62
    7
  6
CONTINUOUS
  0
LAYER
  5
CEC
330
C62
100
AcDbSymbolTableRecord
100
AcDbLayerTableRecord
  2
Shape160
 70
    0
 62
    7
  6
CONTINUOUS
  0
LAYER
  5
CED
330
C62
100
AcDbSymbolTableRecord
100
AcDbLayerTableRecord
  2
Shape161
 70
    0
 62
    7
  6
CONTINUOUS
  0
LAYER
  5
CEE
330
C62
100
AcDbSymbolTableRecord
100
AcDbLayerTableRecord
  2
Shape162
 70
    0
 62
    7
  6
CONTINUOUS
  0
LAYER
  5
CEF
330
C62
100
AcDbSymbolTableRecord
100
AcDbLayerTableRecord
  2
Shape163
 70
    0
 62
    7
  6
CONTINUOUS
  0
LAYER
  5
CF0
330
C62
100
AcDbSymbolTableRecord
100
AcDbLayerTableRecord
  2
Shape164
 70
    0
 62
    7
  6
CONTINUOUS
  0
LAYER
  5
CF1
330
C62
100
AcDbSymbolTableRecord
100
AcDbLayerTableRecord
  2
Shape165
 70
    0
 62
    7
  6
CONTINUOUS
  0
LAYER
  5
CF2
330
C62
100
AcDbSymbolTableRecord
100
AcDbLayerTableRecord
  2
Shape166
 70
    0
 62
    7
  6
CONTINUOUS
  0
LAYER
  5
CF3
330
C62
100
AcDbSymbolTableRecord
100
AcDbLayerTableRecord
  2
Shape167
 70
    0
 62
    7
  6
CONTINUOUS
  0
LAYER
  5
CF4
330
C62
100
AcDbSymbolTableRecord
100
AcDbLayerTableRecord
  2
Shape168
 70
    0
 62
    7
  6
CONTINUOUS
  0
LAYER
  5
CF5
330
C62
100
AcDbSymbolTableRecord
100
AcDbLayerTableRecord
  2
Shape169
 70
    0
 62
    7
  6
CONTINUOUS
  0
LAYER
  5
CF6
330
C62
100
AcDbSymbolTableRecord
100
AcDbLayerTableRecord
  2
Shape170
 70
    0
 62
    7
  6
CONTINUOUS
  0
LAYER
  5
CF7
330
C62
100
AcDbSymbolTableRecord
100
AcDbLayerTableRecord
  2
Shape171
 70
    0
 62
    7
  6
CONTINUOUS
  0
LAYER
  5
CF8
330
C62
100
AcDbSymbolTableRecord
100
AcDbLayerTableRecord
  2
Shape172
 70
    0
 62
    7
  6
CONTINUOUS
  0
LAYER
  5
CF9
330
C62
100
AcDbSymbolTableRecord
100
AcDbLayerTableRecord
  2
Shape177
 70
    0
 62
    7
  6
CONTINUOUS
  0
LAYER
  5
CFA
330
C62
100
AcDbSymbolTableRecord
100
AcDbLayerTableRecord
  2
Shape178
 70
    0
 62
    7
  6
CONTINUOUS
  0
LAYER
  5
CFB
330
C62
100
AcDbSymbolTableRecord
100
AcDbLayerTableRecord
  2
Shape183
 70
    0
 62
    7
  6
CONTINUOUS
  0
LAYER
  5
CFC
330
C62
100
AcDbSymbolTableRecord
100
AcDbLayerTableRecord
  2
Shape184
 70
    0
 62
    7
  6
CONTINUOUS
  0
LAYER
  5
CFD
330
C62
100
AcDbSymbolTableRecord
100
AcDbLayerTableRecord
  2
Shape185
 70
    0
 62
    7
  6
CONTINUOUS
  0
LAYER
  5
CFE
330
C62
100
AcDbSymbolTableRecord
100
AcDbLayerTableRecord
  2
Shape186
 70
    0
 62
    7
  6
CONTINUOUS
  0
LAYER
  5
CFF
330
C62
100
AcDbSymbolTableRecord
100
AcDbLayerTableRecord
  2
Shape187
 70
    0
 62
    7
  6
CONTINUOUS
  0
LAYER
  5
D00
330
C62
100
AcDbSymbolTableRecord
100
AcDbLayerTableRecord
  2
Shape188
 70
    0
 62
    7
  6
CONTINUOUS
  0
LAYER
  5
D01
330
C62
100
AcDbSymbolTableRecord
100
AcDbLayerTableRecord
  2
Shape189
 70
    0
 62
    7
  6
CONTINUOUS
  0
LAYER
  5
D02
330
C62
100
AcDbSymbolTableRecord
100
AcDbLayerTableRecord
  2
Shape190
 70
    0
 62
    7
  6
CONTINUOUS
  0
LAYER
  5
D03
330
C62
100
AcDbSymbolTableRecord
100
AcDbLayerTableRecord
  2
Shape191
 70
    0
 62
    7
  6
CONTINUOUS
  0
LAYER
  5
D04
330
C62
100
AcDbSymbolTableRecord
100
AcDbLayerTableRecord
  2
Shape192
 70
    0
 62
    7
  6
CONTINUOUS
  0
LAYER
  5
D05
330
C62
100
AcDbSymbolTableRecord
100
AcDbLayerTableRecord
  2
Shape193
 70
    0
 62
    7
  6
CONTINUOUS
  0
LAYER
  5
D06
330
C62
100
AcDbSymbolTableRecord
100
AcDbLayerTableRecord
  2
Shape194
 70
    0
 62
    7
  6
CONTINUOUS
  0
LAYER
  5
D07
330
C62
100
AcDbSymbolTableRecord
100
AcDbLayerTableRecord
  2
Shape195
 70
    0
 62
    7
  6
CONTINUOUS
  0
LAYER
  5
D08
330
C62
100
AcDbSymbolTableRecord
100
AcDbLayerTableRecord
  2
Shape196
 70
    0
 62
    7
  6
CONTINUOUS
  0
LAYER
  5
D09
330
C62
100
AcDbSymbolTableRecord
100
AcDbLayerTableRecord
  2
Shape197
 70
    0
 62
    7
  6
CONTINUOUS
  0
LAYER
  5
D0A
330
C62
100
AcDbSymbolTableRecord
100
AcDbLayerTableRecord
  2
Shape198
 70
    0
 62
    7
  6
CONTINUOUS
  0
LAYER
  5
D0B
330
C62
100
AcDbSymbolTableRecord
100
AcDbLayerTableRecord
  2
Shape199
 70
    0
 62
    7
  6
CONTINUOUS
  0
LAYER
  5
D0C
330
C62
100
AcDbSymbolTableRecord
100
AcDbLayerTableRecord
  2
Shape200
 70
    0
 62
    7
  6
CONTINUOUS
  0
LAYER
  5
D0D
330
C62
100
AcDbSymbolTableRecord
100
AcDbLayerTableRecord
  2
Shape201
 70
    0
 62
    7
  6
CONTINUOUS
  0
LAYER
  5
D0E
330
C62
100
AcDbSymbolTableRecord
100
AcDbLayerTableRecord
  2
Shape202
 70
    0
 62
    7
  6
CONTINUOUS
  0
LAYER
  5
D0F
330
C62
100
AcDbSymbolTableRecord
100
AcDbLayerTableRecord
  2
Shape203
 70
    0
 62
    7
  6
CONTINUOUS
  0
LAYER
  5
D10
330
C62
100
AcDbSymbolTableRecord
100
AcDbLayerTableRecord
  2
Shape204
 70
    0
 62
    7
  6
CONTINUOUS
  0
LAYER
  5
D11
330
C62
100
AcDbSymbolTableRecord
100
AcDbLayerTableRecord
  2
Shape205
 70
    0
 62
    7
  6
CONTINUOUS
  0
LAYER
  5
D12
330
C62
100
AcDbSymbolTableRecord
100
AcDbLayerTableRecord
  2
Shape206
 70
    0
 62
    7
  6
CONTINUOUS
  0
LAYER
  5
D13
330
C62
100
AcDbSymbolTableRecord
100
AcDbLayerTableRecord
  2
Shape207
 70
    0
 62
    7
  6
CONTINUOUS
  0
LAYER
  5
D14
330
C62
100
AcDbSymbolTableRecord
100
AcDbLayerTableRecord
  2
Shape208
 70
    0
 62
    7
  6
CONTINUOUS
  0
LAYER
  5
D15
330
C62
100
AcDbSymbolTableRecord
100
AcDbLayerTableRecord
  2
Shape209
 70
    0
 62
    7
  6
CONTINUOUS
  0
LAYER
  5
D16
330
C62
100
AcDbSymbolTableRecord
100
AcDbLayerTableRecord
  2
Shape210
 70
    0
 62
    7
  6
CONTINUOUS
  0
LAYER
  5
D17
330
C62
100
AcDbSymbolTableRecord
100
AcDbLayerTableRecord
  2
Shape211
 70
    0
 62
    7
  6
CONTINUOUS
  0
LAYER
  5
D18
330
C62
100
AcDbSymbolTableRecord
100
AcDbLayerTableRecord
  2
Shape212
 70
    0
 62
    7
  6
CONTINUOUS
  0
LAYER
  5
D19
330
C62
100
AcDbSymbolTableRecord
100
AcDbLayerTableRecord
  2
Shape213
 70
    0
 62
    7
  6
CONTINUOUS
  0
LAYER
  5
D1A
330
C62
100
AcDbSymbolTableRecord
100
AcDbLayerTableRecord
  2
Shape214
 70
    0
 62
    7
  6
CONTINUOUS
  0
LAYER
  5
D1B
330
C62
100
AcDbSymbolTableRecord
100
AcDbLayerTableRecord
  2
Shape215
 70
    0
 62
    7
  6
CONTINUOUS
  0
LAYER
  5
D1C
330
C62
100
AcDbSymbolTableRecord
100
AcDbLayerTableRecord
  2
Shape216
 70
    0
 62
    7
  6
CONTINUOUS
  0
LAYER
  5
D1D
330
C62
100
AcDbSymbolTableRecord
100
AcDbLayerTableRecord
  2
Shape217
 70
    0
 62
    7
  6
CONTINUOUS
  0
LAYER
  5
D1E
330
C62
100
AcDbSymbolTableRecord
100
AcDbLayerTableRecord
  2
Shape218
 70
    0
 62
    7
  6
CONTINUOUS
  0
LAYER
  5
D1F
330
C62
100
AcDbSymbolTableRecord
100
AcDbLayerTableRecord
  2
Shape219
 70
    0
 62
    7
  6
CONTINUOUS
  0
LAYER
  5
D20
330
C62
100
AcDbSymbolTableRecord
100
AcDbLayerTableRecord
  2
Shape220
 70
    0
 62
    7
  6
CONTINUOUS
  0
LAYER
  5
D21
330
C62
100
AcDbSymbolTableRecord
100
AcDbLayerTableRecord
  2
Shape221
 70
    0
 62
    7
  6
CONTINUOUS
  0
LAYER
  5
D22
330
C62
100
AcDbSymbolTableRecord
100
AcDbLayerTableRecord
  2
Shape222
 70
    0
 62
    7
  6
CONTINUOUS
  0
LAYER
  5
D23
330
C62
100
AcDbSymbolTableRecord
100
AcDbLayerTableRecord
  2
Shape223
 70
    0
 62
    7
  6
CONTINUOUS
  0
LAYER
  5
D24
330
C62
100
AcDbSymbolTableRecord
100
AcDbLayerTableRecord
  2
Shape224
 70
    0
 62
    7
  6
CONTINUOUS
  0
LAYER
  5
D25
330
C62
100
AcDbSymbolTableRecord
100
AcDbLayerTableRecord
  2
Shape225
 70
    0
 62
    7
  6
CONTINUOUS
  0
LAYER
  5
D26
330
C62
100
AcDbSymbolTableRecord
100
AcDbLayerTableRecord
  2
Shape226
 70
    0
 62
    7
  6
CONTINUOUS
  0
LAYER
  5
D27
330
C62
100
AcDbSymbolTableRecord
100
AcDbLayerTableRecord
  2
Shape227
 70
    0
 62
    7
  6
CONTINUOUS
  0
LAYER
  5
D28
330
C62
100
AcDbSymbolTableRecord
100
AcDbLayerTableRecord
  2
Shape228
 70
    0
 62
    7
  6
CONTINUOUS
  0
LAYER
  5
D29
330
C62
100
AcDbSymbolTableRecord
100
AcDbLayerTableRecord
  2
Shape229
 70
    0
 62
    7
  6
CONTINUOUS
  0
LAYER
  5
D2A
330
C62
100
AcDbSymbolTableRecord
100
AcDbLayerTableRecord
  2
Shape230
 70
    0
 62
    7
  6
CONTINUOUS
  0
LAYER
  5
D2B
330
C62
100
AcDbSymbolTableRecord
100
AcDbLayerTableRecord
  2
Shape231
 70
    0
 62
    7
  6
CONTINUOUS
  0
LAYER
  5
D2C
330
C62
100
AcDbSymbolTableRecord
100
AcDbLayerTableRecord
  2
Shape232
 70
    0
 62
    7
  6
CONTINUOUS
  0
LAYER
  5
D2D
330
C62
100
AcDbSymbolTableRecord
100
AcDbLayerTableRecord
  2
Shape233
 70
    0
 62
    7
  6
CONTINUOUS
  0
LAYER
  5
D2E
330
C62
100
AcDbSymbolTableRecord
100
AcDbLayerTableRecord
  2
Shape234
 70
    0
 62
    7
  6
CONTINUOUS
  0
LAYER
  5
D2F
330
C62
100
AcDbSymbolTableRecord
100
AcDbLayerTableRecord
  2
Shape235
 70
    0
 62
    7
  6
CONTINUOUS
  0
LAYER
  5
D30
330
C62
100
AcDbSymbolTableRecord
100
AcDbLayerTableRecord
  2
Shape236
 70
    0
 62
    7
  6
CONTINUOUS
  0
LAYER
  5
D31
330
C62
100
AcDbSymbolTableRecord
100
AcDbLayerTableRecord
  2
Shape237
 70
    0
 62
    7
  6
CONTINUOUS
  0
LAYER
  5
D32
330
C62
100
AcDbSymbolTableRecord
100
AcDbLayerTableRecord
  2
Shape238
 70
    0
 62
    7
  6
CONTINUOUS
  0
LAYER
  5
D33
330
C62
100
AcDbSymbolTableRecord
100
AcDbLayerTableRecord
  2
Shape239
 70
    0
 62
    7
  6
CONTINUOUS
  0
LAYER
  5
D34
330
C62
100
AcDbSymbolTableRecord
100
AcDbLayerTableRecord
  2
Shape240
 70
    0
 62
    7
  6
CONTINUOUS
  0
LAYER
  5
D35
330
C62
100
AcDbSymbolTableRecord
100
AcDbLayerTableRecord
  2
Shape247
 70
    0
 62
    7
  6
CONTINUOUS
  0
LAYER
  5
D36
330
C62
100
AcDbSymbolTableRecord
100
AcDbLayerTableRecord
  2
Shape248
 70
    0
 62
    7
  6
CONTINUOUS
  0
LAYER
  5
D37
330
C62
100
AcDbSymbolTableRecord
100
AcDbLayerTableRecord
  2
Shape249
 70
    0
 62
    7
  6
CONTINUOUS
  0
LAYER
  5
D38
330
C62
100
AcDbSymbolTableRecord
100
AcDbLayerTableRecord
  2
Shape250
 70
    0
 62
    7
  6
CONTINUOUS
  0
LAYER
  5
D39
330
C62
100
AcDbSymbolTableRecord
100
AcDbLayerTableRecord
  2
Shape251
 70
    0
 62
    7
  6
CONTINUOUS
  0
LAYER
  5
D3A
330
C62
100
AcDbSymbolTableRecord
100
AcDbLayerTableRecord
  2
Shape252
 70
    0
 62
    7
  6
CONTINUOUS
  0
LAYER
  5
D3B
330
C62
100
AcDbSymbolTableRecord
100
AcDbLayerTableRecord
  2
Shape253
 70
    0
 62
    7
  6
CONTINUOUS
  0
LAYER
  5
D3C
330
C62
100
AcDbSymbolTableRecord
100
AcDbLayerTableRecord
  2
Shape254
 70
    0
 62
    7
  6
CONTINUOUS
  0
LAYER
  5
D3D
330
C62
100
AcDbSymbolTableRecord
100
AcDbLayerTableRecord
  2
Shape255
 70
    0
 62
    7
  6
CONTINUOUS
  0
LAYER
  5
D3E
330
C62
100
AcDbSymbolTableRecord
100
AcDbLayerTableRecord
  2
Shape256
 70
    0
 62
    7
  6
CONTINUOUS
  0
LAYER
  5
D3F
330
C62
100
AcDbSymbolTableRecord
100
AcDbLayerTableRecord
  2
Shape257
 70
    0
 62
    7
  6
CONTINUOUS
  0
LAYER
  5
D40
330
C62
100
AcDbSymbolTableRecord
100
AcDbLayerTableRecord
  2
Shape258
 70
    0
 62
    7
  6
CONTINUOUS
  0
LAYER
  5
D41
330
C62
100
AcDbSymbolTableRecord
100
AcDbLayerTableRecord
  2
Shape259
 70
    0
 62
    7
  6
CONTINUOUS
  0
LAYER
  5
D42
330
C62
100
AcDbSymbolTableRecord
100
AcDbLayerTableRecord
  2
Shape260
 70
    0
 62
    7
  6
CONTINUOUS
  0
LAYER
  5
D43
330
C62
100
AcDbSymbolTableRecord
100
AcDbLayerTableRecord
  2
Shape261
 70
    0
 62
    7
  6
CONTINUOUS
  0
LAYER
  5
D44
330
C62
100
AcDbSymbolTableRecord
100
AcDbLayerTableRecord
  2
Shape262
 70
    0
 62
    7
  6
CONTINUOUS
  0
LAYER
  5
D45
330
C62
100
AcDbSymbolTableRecord
100
AcDbLayerTableRecord
  2
Shape263
 70
    0
 62
    7
  6
CONTINUOUS
  0
LAYER
  5
D46
330
C62
100
AcDbSymbolTableRecord
100
AcDbLayerTableRecord
  2
Shape264
 70
    0
 62
    7
  6
CONTINUOUS
  0
LAYER
  5
D47
330
C62
100
AcDbSymbolTableRecord
100
AcDbLayerTableRecord
  2
Shape265
 70
    0
 62
    7
  6
CONTINUOUS
  0
LAYER
  5
D48
330
C62
100
AcDbSymbolTableRecord
100
AcDbLayerTableRecord
  2
Shape266
 70
    0
 62
    7
  6
CONTINUOUS
  0
LAYER
  5
D49
330
C62
100
AcDbSymbolTableRecord
100
AcDbLayerTableRecord
  2
Shape267
 70
    0
 62
    7
  6
CONTINUOUS
  0
LAYER
  5
D4A
330
C62
100
AcDbSymbolTableRecord
100
AcDbLayerTableRecord
  2
Shape268
 70
    0
 62
    7
  6
CONTINUOUS
  0
LAYER
  5
D4B
330
C62
100
AcDbSymbolTableRecord
100
AcDbLayerTableRecord
  2
Shape269
 70
    0
 62
    7
  6
CONTINUOUS
  0
LAYER
  5
D4C
330
C62
100
AcDbSymbolTableRecord
100
AcDbLayerTableRecord
  2
Shape270
 70
    0
 62
    7
  6
CONTINUOUS
  0
LAYER
  5
D4D
330
C62
100
AcDbSymbolTableRecord
100
AcDbLayerTableRecord
  2
Shape271
 70
    0
 62
    7
  6
CONTINUOUS
  0
LAYER
  5
D4E
330
C62
100
AcDbSymbolTableRecord
100
AcDbLayerTableRecord
  2
Shape272
 70
    0
 62
    7
  6
CONTINUOUS
  0
LAYER
  5
D4F
330
C62
100
AcDbSymbolTableRecord
100
AcDbLayerTableRecord
  2
Shape273
 70
    0
 62
    7
  6
CONTINUOUS
  0
LAYER
  5
D50
330
C62
100
AcDbSymbolTableRecord
100
AcDbLayerTableRecord
  2
Shape274
 70
    0
 62
    7
  6
CONTINUOUS
  0
LAYER
  5
D51
330
C62
100
AcDbSymbolTableRecord
100
AcDbLayerTableRecord
  2
Shape275
 70
    0
 62
    7
  6
CONTINUOUS
  0
LAYER
  5
D52
330
C62
100
AcDbSymbolTableRecord
100
AcDbLayerTableRecord
  2
Shape276
 70
    0
 62
    7
  6
CONTINUOUS
  0
LAYER
  5
D53
330
C62
100
AcDbSymbolTableRecord
100
AcDbLayerTableRecord
  2
Shape277
 70
    0
 62
    7
  6
CONTINUOUS
  0
LAYER
  5
D54
330
C62
100
AcDbSymbolTableRecord
100
AcDbLayerTableRecord
  2
Shape278
 70
    0
 62
    7
  6
CONTINUOUS
  0
LAYER
  5
D55
330
C62
100
AcDbSymbolTableRecord
100
AcDbLayerTableRecord
  2
Shape279
 70
    0
 62
    7
  6
CONTINUOUS
  0
LAYER
  5
D56
330
C62
100
AcDbSymbolTableRecord
100
AcDbLayerTableRecord
  2
Shape280
 70
    0
 62
    7
  6
CONTINUOUS
  0
LAYER
  5
D57
330
C62
100
AcDbSymbolTableRecord
100
AcDbLayerTableRecord
  2
Shape281
 70
    0
 62
    7
  6
CONTINUOUS
  0
LAYER
  5
D58
330
C62
100
AcDbSymbolTableRecord
100
AcDbLayerTableRecord
  2
Shape282
 70
    0
 62
    7
  6
CONTINUOUS
  0
LAYER
  5
D59
330
C62
100
AcDbSymbolTableRecord
100
AcDbLayerTableRecord
  2
Shape283
 70
    0
 62
    7
  6
CONTINUOUS
  0
LAYER
  5
D5A
330
C62
100
AcDbSymbolTableRecord
100
AcDbLayerTableRecord
  2
Shape284
 70
    0
 62
    7
  6
CONTINUOUS
  0
LAYER
  5
D5B
330
C62
100
AcDbSymbolTableRecord
100
AcDbLayerTableRecord
  2
Shape285
 70
    0
 62
    7
  6
CONTINUOUS
  0
LAYER
  5
D5C
330
C62
100
AcDbSymbolTableRecord
100
AcDbLayerTableRecord
  2
Shape286
 70
    0
 62
    7
  6
CONTINUOUS
  0
LAYER
  5
D5D
330
C62
100
AcDbSymbolTableRecord
100
AcDbLayerTableRecord
  2
Shape287
 70
    0
 62
    7
  6
CONTINUOUS
  0
LAYER
  5
D5E
330
C62
100
AcDbSymbolTableRecord
100
AcDbLayerTableRecord
  2
Shape300
 70
    0
 62
    7
  6
CONTINUOUS
  0
LAYER
  5
D5F
330
C62
100
AcDbSymbolTableRecord
100
AcDbLayerTableRecord
  2
Shape301
 70
    0
 62
    7
  6
CONTINUOUS
  0
LAYER
  5
D60
330
C62
100
AcDbSymbolTableRecord
100
AcDbLayerTableRecord
  2
Shape302
 70
    0
 62
    7
  6
CONTINUOUS
  0
LAYER
  5
D61
330
C62
100
AcDbSymbolTableRecord
100
AcDbLayerTableRecord
  2
Shape303
 70
    0
 62
    7
  6
CONTINUOUS
  0
LAYER
  5
D62
330
C62
100
AcDbSymbolTableRecord
100
AcDbLayerTableRecord
  2
Shape304
 70
    0
 62
    7
  6
CONTINUOUS
  0
LAYER
  5
D63
330
C62
100
AcDbSymbolTableRecord
100
AcDbLayerTableRecord
  2
Shape305
 70
    0
 62
    7
  6
CONTINUOUS
  0
LAYER
  5
D64
330
C62
100
AcDbSymbolTableRecord
100
AcDbLayerTableRecord
  2
Shape306
 70
    0
 62
    7
  6
CONTINUOUS
  0
LAYER
  5
D65
330
C62
100
AcDbSymbolTableRecord
100
AcDbLayerTableRecord
  2
Shape307
 70
    0
 62
    7
  6
CONTINUOUS
  0
LAYER
  5
D66
330
C62
100
AcDbSymbolTableRecord
100
AcDbLayerTableRecord
  2
Shape308
 70
    0
 62
    7
  6
CONTINUOUS
  0
LAYER
  5
D67
330
C62
100
AcDbSymbolTableRecord
100
AcDbLayerTableRecord
  2
Shape309
 70
    0
 62
    7
  6
CONTINUOUS
  0
LAYER
  5
D68
330
C62
100
AcDbSymbolTableRecord
100
AcDbLayerTableRecord
  2
Shape310
 70
    0
 62
    7
  6
CONTINUOUS
  0
LAYER
  5
D69
330
C62
100
AcDbSymbolTableRecord
100
AcDbLayerTableRecord
  2
Shape311
 70
    0
 62
    7
  6
CONTINUOUS
  0
LAYER
  5
D6A
330
C62
100
AcDbSymbolTableRecord
100
AcDbLayerTableRecord
  2
Shape312
 70
    0
 62
    7
  6
CONTINUOUS
  0
LAYER
  5
D6B
330
C62
100
AcDbSymbolTableRecord
100
AcDbLayerTableRecord
  2
Shape313
 70
    0
 62
    7
  6
CONTINUOUS
  0
LAYER
  5
D6C
330
C62
100
AcDbSymbolTableRecord
100
AcDbLayerTableRecord
  2
Shape314
 70
    0
 62
    7
  6
CONTINUOUS
  0
LAYER
  5
D6D
330
C62
100
AcDbSymbolTableRecord
100
AcDbLayerTableRecord
  2
Shape315
 70
    0
 62
    7
  6
CONTINUOUS
  0
LAYER
  5
D6E
330
C62
100
AcDbSymbolTableRecord
100
AcDbLayerTableRecord
  2
Shape316
 70
    0
 62
    7
  6
CONTINUOUS
  0
LAYER
  5
D6F
330
C62
100
AcDbSymbolTableRecord
100
AcDbLayerTableRecord
  2
Shape317
 70
    0
 62
    7
  6
CONTINUOUS
  0
LAYER
  5
D70
330
C62
100
AcDbSymbolTableRecord
100
AcDbLayerTableRecord
  2
Shape318
 70
    0
 62
    7
  6
CONTINUOUS
  0
LAYER
  5
D71
330
C62
100
AcDbSymbolTableRecord
100
AcDbLayerTableRecord
  2
Shape319
 70
    0
 62
    7
  6
CONTINUOUS
  0
LAYER
  5
D72
330
C62
100
AcDbSymbolTableRecord
100
AcDbLayerTableRecord
  2
Shape320
 70
    0
 62
    7
  6
CONTINUOUS
  0
LAYER
  5
D73
330
C62
100
AcDbSymbolTableRecord
100
AcDbLayerTableRecord
  2
Shape321
 70
    0
 62
    7
  6
CONTINUOUS
  0
LAYER
  5
D74
330
C62
100
AcDbSymbolTableRecord
100
AcDbLayerTableRecord
  2
Shape322
 70
    0
 62
    7
  6
CONTINUOUS
  0
LAYER
  5
D75
330
C62
100
AcDbSymbolTableRecord
100
AcDbLayerTableRecord
  2
Shape323
 70
    0
 62
    7
  6
CONTINUOUS
  0
LAYER
  5
D76
330
C62
100
AcDbSymbolTableRecord
100
AcDbLayerTableRecord
  2
Shape324
 70
    0
 62
    7
  6
CONTINUOUS
  0
LAYER
  5
D77
330
C62
100
AcDbSymbolTableRecord
100
AcDbLayerTableRecord
  2
Shape325
 70
    0
 62
    7
  6
CONTINUOUS
  0
LAYER
  5
D78
330
C62
100
AcDbSymbolTableRecord
100
AcDbLayerTableRecord
  2
Shape326
 70
    0
 62
    7
  6
CONTINUOUS
  0
LAYER
  5
D79
330
C62
100
AcDbSymbolTableRecord
100
AcDbLayerTableRecord
  2
Shape327
 70
    0
 62
    7
  6
CONTINUOUS
  0
LAYER
  5
D7A
330
C62
100
AcDbSymbolTableRecord
100
AcDbLayerTableRecord
  2
Shape328
 70
    0
 62
    7
  6
CONTINUOUS
  0
LAYER
  5
D7B
330
C62
100
AcDbSymbolTableRecord
100
AcDbLayerTableRecord
  2
Shape329
 70
    0
 62
    7
  6
CONTINUOUS
  0
LAYER
  5
D7C
330
C62
100
AcDbSymbolTableRecord
100
AcDbLayerTableRecord
  2
Shape330
 70
    0
 62
    7
  6
CONTINUOUS
  0
LAYER
  5
D7D
330
C62
100
AcDbSymbolTableRecord
100
AcDbLayerTableRecord
  2
Shape331
 70
    0
 62
    7
  6
CONTINUOUS
  0
LAYER
  5
D7E
330
C62
100
AcDbSymbolTableRecord
100
AcDbLayerTableRecord
  2
Shape332
 70
    0
 62
    7
  6
CONTINUOUS
  0
LAYER
  5
D7F
330
C62
100
AcDbSymbolTableRecord
100
AcDbLayerTableRecord
  2
Shape333
 70
    0
 62
    7
  6
CONTINUOUS
  0
LAYER
  5
D80
330
C62
100
AcDbSymbolTableRecord
100
AcDbLayerTableRecord
  2
Shape334
 70
    0
 62
    7
  6
CONTINUOUS
  0
LAYER
  5
D81
330
C62
100
AcDbSymbolTableRecord
100
AcDbLayerTableRecord
  2
Shape335
 70
    0
 62
    7
  6
CONTINUOUS
  0
LAYER
  5
D82
330
C62
100
AcDbSymbolTableRecord
100
AcDbLayerTableRecord
  2
Shape336
 70
    0
 62
    7
  6
CONTINUOUS
  0
LAYER
  5
D83
330
C62
100
AcDbSymbolTableRecord
100
AcDbLayerTableRecord
  2
Shape337
 70
    0
 62
    7
  6
CONTINUOUS
  0
LAYER
  5
D84
330
C62
100
AcDbSymbolTableRecord
100
AcDbLayerTableRecord
  2
Shape338
 70
    0
 62
    7
  6
CONTINUOUS
  0
LAYER
  5
D85
330
C62
100
AcDbSymbolTableRecord
100
AcDbLayerTableRecord
  2
Shape339
 70
    0
 62
    7
  6
CONTINUOUS
  0
LAYER
  5
D86
330
C62
100
AcDbSymbolTableRecord
100
AcDbLayerTableRecord
  2
Shape340
 70
    0
 62
    7
  6
CONTINUOUS
  0
LAYER
  5
D87
330
C62
100
AcDbSymbolTableRecord
100
AcDbLayerTableRecord
  2
Shape341
 70
    0
 62
    7
  6
CONTINUOUS
  0
LAYER
  5
D88
330
C62
100
AcDbSymbolTableRecord
100
AcDbLayerTableRecord
  2
Shape342
 70
    0
 62
    7
  6
CONTINUOUS
  0
LAYER
  5
D89
330
C62
100
AcDbSymbolTableRecord
100
AcDbLayerTableRecord
  2
Shape343
 70
    0
 62
    7
  6
CONTINUOUS
  0
LAYER
  5
D8A
330
C62
100
AcDbSymbolTableRecord
100
AcDbLayerTableRecord
  2
Shape344
 70
    0
 62
    7
  6
CONTINUOUS
  0
LAYER
  5
D8B
330
C62
100
AcDbSymbolTableRecord
100
AcDbLayerTableRecord
  2
Shape345
 70
    0
 62
    7
  6
CONTINUOUS
  0
LAYER
  5
D8C
330
C62
100
AcDbSymbolTableRecord
100
AcDbLayerTableRecord
  2
Shape346
 70
    0
 62
    7
  6
CONTINUOUS
  0
LAYER
  5
D8D
330
C62
100
AcDbSymbolTableRecord
100
AcDbLayerTableRecord
  2
Shape347
 70
    0
 62
    7
  6
CONTINUOUS
  0
LAYER
  5
D8E
330
C62
100
AcDbSymbolTableRecord
100
AcDbLayerTableRecord
  2
Shape348
 70
    0
 62
    7
  6
CONTINUOUS
  0
LAYER
  5
D8F
330
C62
100
AcDbSymbolTableRecord
100
AcDbLayerTableRecord
  2
Shape349
 70
    0
 62
    7
  6
CONTINUOUS
  0
LAYER
  5
D90
330
C62
100
AcDbSymbolTableRecord
100
AcDbLayerTableRecord
  2
Shape356
 70
    0
 62
    7
  6
CONTINUOUS
  0
LAYER
  5
D91
330
C62
100
AcDbSymbolTableRecord
100
AcDbLayerTableRecord
  2
Shape357
 70
    0
 62
    7
  6
CONTINUOUS
  0
LAYER
  5
D92
330
C62
100
AcDbSymbolTableRecord
100
AcDbLayerTableRecord
  2
Shape358
 70
    0
 62
    7
  6
CONTINUOUS
  0
LAYER
  5
D93
330
C62
100
AcDbSymbolTableRecord
100
AcDbLayerTableRecord
  2
Shape359
 70
    0
 62
    7
  6
CONTINUOUS
  0
LAYER
  5
D94
330
C62
100
AcDbSymbolTableRecord
100
AcDbLayerTableRecord
  2
Shape360
 70
    0
 62
    7
  6
CONTINUOUS
  0
LAYER
  5
D95
330
C62
100
AcDbSymbolTableRecord
100
AcDbLayerTableRecord
  2
Shape361
 70
    0
 62
    7
  6
CONTINUOUS
  0
LAYER
  5
D96
330
C62
100
AcDbSymbolTableRecord
100
AcDbLayerTableRecord
  2
Shape362
 70
    0
 62
    7
  6
CONTINUOUS
  0
LAYER
  5
D97
330
C62
100
AcDbSymbolTableRecord
100
AcDbLayerTableRecord
  2
Shape363
 70
    0
 62
    7
  6
CONTINUOUS
  0
LAYER
  5
D98
330
C62
100
AcDbSymbolTableRecord
100
AcDbLayerTableRecord
  2
Shape364
 70
    0
 62
    7
  6
CONTINUOUS
  0
LAYER
  5
D99
330
C62
100
AcDbSymbolTableRecord
100
AcDbLayerTableRecord
  2
Shape365
 70
    0
 62
    7
  6
CONTINUOUS
  0
LAYER
  5
D9A
330
C62
100
AcDbSymbolTableRecord
100
AcDbLayerTableRecord
  2
Shape366
 70
    0
 62
    7
  6
CONTINUOUS
  0
LAYER
  5
D9B
330
C62
100
AcDbSymbolTableRecord
100
AcDbLayerTableRecord
  2
Shape367
 70
    0
 62
    7
  6
CONTINUOUS
  0
LAYER
  5
D9C
330
C62
100
AcDbSymbolTableRecord
100
AcDbLayerTableRecord
  2
Shape368
 70
    0
 62
    7
  6
CONTINUOUS
  0
LAYER
  5
D9D
330
C62
100
AcDbSymbolTableRecord
100
AcDbLayerTableRecord
  2
Shape369
 70
    0
 62
    7
  6
CONTINUOUS
  0
LAYER
  5
D9E
330
C62
100
AcDbSymbolTableRecord
100
AcDbLayerTableRecord
  2
Shape370
 70
    0
 62
    7
  6
CONTINUOUS
  0
LAYER
  5
D9F
330
C62
100
AcDbSymbolTableRecord
100
AcDbLayerTableRecord
  2
Shape371
 70
    0
 62
    7
  6
CONTINUOUS
  0
LAYER
  5
DA0
330
C62
100
AcDbSymbolTableRecord
100
AcDbLayerTableRecord
  2
Shape372
 70
    0
 62
    7
  6
CONTINUOUS
  0
LAYER
  5
DA1
330
C62
100
AcDbSymbolTableRecord
100
AcDbLayerTableRecord
  2
Shape373
 70
    0
 62
    7
  6
CONTINUOUS
  0
LAYER
  5
DA2
330
C62
100
AcDbSymbolTableRecord
100
AcDbLayerTableRecord
  2
Shape374
 70
    0
 62
    7
  6
CONTINUOUS
  0
LAYER
  5
DA3
330
C62
100
AcDbSymbolTableRecord
100
AcDbLayerTableRecord
  2
Shape375
 70
    0
 62
    7
  6
CONTINUOUS
  0
LAYER
  5
DA4
330
C62
100
AcDbSymbolTableRecord
100
AcDbLayerTableRecord
  2
Shape376
 70
    0
 62
    7
  6
CONTINUOUS
  0
LAYER
  5
DA5
330
C62
100
AcDbSymbolTableRecord
100
AcDbLayerTableRecord
  2
Shape377
 70
    0
 62
    7
  6
CONTINUOUS
  0
LAYER
  5
DA6
330
C62
100
AcDbSymbolTableRecord
100
AcDbLayerTableRecord
  2
Shape378
 70
    0
 62
    7
  6
CONTINUOUS
  0
LAYER
  5
DA7
330
C62
100
AcDbSymbolTableRecord
100
AcDbLayerTableRecord
  2
Shape379
 70
    0
 62
    7
  6
CONTINUOUS
  0
LAYER
  5
DA8
330
C62
100
AcDbSymbolTableRecord
100
AcDbLayerTableRecord
  2
Shape380
 70
    0
 62
    7
  6
CONTINUOUS
  0
LAYER
  5
DA9
330
C62
100
AcDbSymbolTableRecord
100
AcDbLayerTableRecord
  2
Shape381
 70
    0
 62
    7
  6
CONTINUOUS
  0
LAYER
  5
DAA
330
C62
100
AcDbSymbolTableRecord
100
AcDbLayerTableRecord
  2
Shape382
 70
    0
 62
    7
  6
CONTINUOUS
  0
LAYER
  5
DAB
330
C62
100
AcDbSymbolTableRecord
100
AcDbLayerTableRecord
  2
Shape383
 70
    0
 62
    7
  6
CONTINUOUS
  0
LAYER
  5
DAC
330
C62
100
AcDbSymbolTableRecord
100
AcDbLayerTableRecord
  2
Shape384
 70
    0
 62
    7
  6
CONTINUOUS
  0
LAYER
  5
DAD
330
C62
100
AcDbSymbolTableRecord
100
AcDbLayerTableRecord
  2
Shape385
 70
    0
 62
    7
  6
CONTINUOUS
  0
LAYER
  5
DAE
330
C62
100
AcDbSymbolTableRecord
100
AcDbLayerTableRecord
  2
Shape386
 70
    0
 62
    7
  6
CONTINUOUS
  0
LAYER
  5
DAF
330
C62
100
AcDbSymbolTableRecord
100
AcDbLayerTableRecord
  2
Shape387
 70
    0
 62
    7
  6
CONTINUOUS
  0
LAYER
  5
DB0
330
C62
100
AcDbSymbolTableRecord
100
AcDbLayerTableRecord
  2
Shape388
 70
    0
 62
    7
  6
CONTINUOUS
  0
LAYER
  5
DB1
330
C62
100
AcDbSymbolTableRecord
100
AcDbLayerTableRecord
  2
Shape389
 70
    0
 62
    7
  6
CONTINUOUS
  0
LAYER
  5
DB2
330
C62
100
AcDbSymbolTableRecord
100
AcDbLayerTableRecord
  2
Shape390
 70
    0
 62
    7
  6
CONTINUOUS
  0
LAYER
  5
DB3
330
C62
100
AcDbSymbolTableRecord
100
AcDbLayerTableRecord
  2
Shape391
 70
    0
 62
    7
  6
CONTINUOUS
  0
LAYER
  5
DB4
330
C62
100
AcDbSymbolTableRecord
100
AcDbLayerTableRecord
  2
Shape392
 70
    0
 62
    7
  6
CONTINUOUS
  0
LAYER
  5
DB5
330
C62
100
AcDbSymbolTableRecord
100
AcDbLayerTableRecord
  2
Shape393
 70
    0
 62
    7
  6
CONTINUOUS
  0
LAYER
  5
DB6
330
C62
100
AcDbSymbolTableRecord
100
AcDbLayerTableRecord
  2
Shape394
 70
    0
 62
    7
  6
CONTINUOUS
  0
LAYER
  5
DB7
330
C62
100
AcDbSymbolTableRecord
100
AcDbLayerTableRecord
  2
Shape395
 70
    0
 62
    7
  6
CONTINUOUS
  0
LAYER
  5
DB8
330
C62
100
AcDbSymbolTableRecord
100
AcDbLayerTableRecord
  2
Shape396
 70
    0
 62
    7
  6
CONTINUOUS
  0
LAYER
  5
DB9
330
C62
100
AcDbSymbolTableRecord
100
AcDbLayerTableRecord
  2
Shape397
 70
    0
 62
    7
  6
CONTINUOUS
  0
LAYER
  5
DBA
330
C62
100
AcDbSymbolTableRecord
100
AcDbLayerTableRecord
  2
Shape398
 70
    0
 62
    7
  6
CONTINUOUS
  0
LAYER
  5
DBB
330
C62
100
AcDbSymbolTableRecord
100
AcDbLayerTableRecord
  2
Shape399
 70
    0
 62
    7
  6
CONTINUOUS
  0
LAYER
  5
DBC
330
C62
100
AcDbSymbolTableRecord
100
AcDbLayerTableRecord
  2
Shape400
 70
    0
 62
    7
  6
CONTINUOUS
  0
LAYER
  5
DBD
330
C62
100
AcDbSymbolTableRecord
100
AcDbLayerTableRecord
  2
Shape401
 70
    0
 62
    7
  6
CONTINUOUS
  0
LAYER
  5
DBE
330
C62
100
AcDbSymbolTableRecord
100
AcDbLayerTableRecord
  2
Shape402
 70
    0
 62
    7
  6
CONTINUOUS
  0
LAYER
  5
DBF
330
C62
100
AcDbSymbolTableRecord
100
AcDbLayerTableRecord
  2
Shape403
 70
    0
 62
    7
  6
CONTINUOUS
  0
LAYER
  5
DC0
330
C62
100
AcDbSymbolTableRecord
100
AcDbLayerTableRecord
  2
Shape404
 70
    0
 62
    7
  6
CONTINUOUS
  0
LAYER
  5
DC1
330
C62
100
AcDbSymbolTableRecord
100
AcDbLayerTableRecord
  2
Shape405
 70
    0
 62
    7
  6
CONTINUOUS
  0
LAYER
  5
DC2
330
C62
100
AcDbSymbolTableRecord
100
AcDbLayerTableRecord
  2
Shape406
 70
    0
 62
    7
  6
CONTINUOUS
  0
LAYER
  5
DC3
330
C62
100
AcDbSymbolTableRecord
100
AcDbLayerTableRecord
  2
Shape407
 70
    0
 62
    7
  6
CONTINUOUS
  0
LAYER
  5
DC4
330
C62
100
AcDbSymbolTableRecord
100
AcDbLayerTableRecord
  2
Shape408
 70
    0
 62
    7
  6
CONTINUOUS
  0
LAYER
  5
DC5
330
C62
100
AcDbSymbolTableRecord
100
AcDbLayerTableRecord
  2
Shape409
 70
    0
 62
    7
  6
CONTINUOUS
  0
LAYER
  5
DC6
330
C62
100
AcDbSymbolTableRecord
100
AcDbLayerTableRecord
  2
Shape410
 70
    0
 62
    7
  6
CONTINUOUS
  0
LAYER
  5
DC7
330
C62
100
AcDbSymbolTableRecord
100
AcDbLayerTableRecord
  2
Shape411
 70
    0
 62
    7
  6
CONTINUOUS
  0
LAYER
  5
DC8
330
C62
100
AcDbSymbolTableRecord
100
AcDbLayerTableRecord
  2
Shape412
 70
    0
 62
    7
  6
CONTINUOUS
  0
LAYER
  5
DC9
330
C62
100
AcDbSymbolTableRecord
100
AcDbLayerTableRecord
  2
Shape413
 70
    0
 62
    7
  6
CONTINUOUS
  0
LAYER
  5
DCA
330
C62
100
AcDbSymbolTableRecord
100
AcDbLayerTableRecord
  2
Shape414
 70
    0
 62
    7
  6
CONTINUOUS
  0
LAYER
  5
DCB
330
C62
100
AcDbSymbolTableRecord
100
AcDbLayerTableRecord
  2
Shape415
 70
    0
 62
    7
  6
CONTINUOUS
  0
LAYER
  5
DCC
330
C62
100
AcDbSymbolTableRecord
100
AcDbLayerTableRecord
  2
Shape424
 70
    0
 62
    7
  6
CONTINUOUS
  0
LAYER
  5
DCD
330
C62
100
AcDbSymbolTableRecord
100
AcDbLayerTableRecord
  2
Shape425
 70
    0
 62
    7
  6
CONTINUOUS
  0
LAYER
  5
DCE
330
C62
100
AcDbSymbolTableRecord
100
AcDbLayerTableRecord
  2
Shape431
 70
    0
 62
    7
  6
CONTINUOUS
  0
LAYER
  5
DCF
330
C62
100
AcDbSymbolTableRecord
100
AcDbLayerTableRecord
  2
Shape432
 70
    0
 62
    7
  6
CONTINUOUS
  0
LAYER
  5
DD0
330
C62
100
AcDbSymbolTableRecord
100
AcDbLayerTableRecord
  2
Shape433
 70
    0
 62
    7
  6
CONTINUOUS
  0
LAYER
  5
DD1
330
C62
100
AcDbSymbolTableRecord
100
AcDbLayerTableRecord
  2
Shape434
 70
    0
 62
    7
  6
CONTINUOUS
  0
LAYER
  5
DD2
330
C62
100
AcDbSymbolTableRecord
100
AcDbLayerTableRecord
  2
Shape435
 70
    0
 62
    7
  6
CONTINUOUS
  0
LAYER
  5
DD3
330
C62
100
AcDbSymbolTableRecord
100
AcDbLayerTableRecord
  2
Shape436
 70
    0
 62
    7
  6
CONTINUOUS
  0
LAYER
  5
DD4
330
C62
100
AcDbSymbolTableRecord
100
AcDbLayerTableRecord
  2
Shape437
 70
    0
 62
    7
  6
CONTINUOUS
  0
LAYER
  5
DD5
330
C62
100
AcDbSymbolTableRecord
100
AcDbLayerTableRecord
  2
Shape438
 70
    0
 62
    7
  6
CONTINUOUS
  0
LAYER
  5
DD6
330
C62
100
AcDbSymbolTableRecord
100
AcDbLayerTableRecord
  2
Shape439
 70
    0
 62
    7
  6
CONTINUOUS
  0
LAYER
  5
DD7
330
C62
100
AcDbSymbolTableRecord
100
AcDbLayerTableRecord
  2
Shape440
 70
    0
 62
    7
  6
CONTINUOUS
  0
LAYER
  5
DD8
330
C62
100
AcDbSymbolTableRecord
100
AcDbLayerTableRecord
  2
Shape441
 70
    0
 62
    7
  6
CONTINUOUS
  0
LAYER
  5
DD9
330
C62
100
AcDbSymbolTableRecord
100
AcDbLayerTableRecord
  2
Shape442
 70
    0
 62
    7
  6
CONTINUOUS
  0
LAYER
  5
DDA
330
C62
100
AcDbSymbolTableRecord
100
AcDbLayerTableRecord
  2
Shape443
 70
    0
 62
    7
  6
CONTINUOUS
  0
LAYER
  5
DDB
330
C62
100
AcDbSymbolTableRecord
100
AcDbLayerTableRecord
  2
Shape444
 70
    0
 62
    7
  6
CONTINUOUS
  0
LAYER
  5
DDC
330
C62
100
AcDbSymbolTableRecord
100
AcDbLayerTableRecord
  2
Shape445
 70
    0
 62
    7
  6
CONTINUOUS
  0
LAYER
  5
DDD
330
C62
100
AcDbSymbolTableRecord
100
AcDbLayerTableRecord
  2
Shape446
 70
    0
 62
    7
  6
CONTINUOUS
  0
LAYER
  5
DDE
330
C62
100
AcDbSymbolTableRecord
100
AcDbLayerTableRecord
  2
Shape447
 70
    0
 62
    7
  6
CONTINUOUS
  0
LAYER
  5
DDF
330
C62
100
AcDbSymbolTableRecord
100
AcDbLayerTableRecord
  2
Shape448
 70
    0
 62
    7
  6
CONTINUOUS
  0
LAYER
  5
DE0
330
C62
100
AcDbSymbolTableRecord
100
AcDbLayerTableRecord
  2
Shape454
 70
    0
 62
    7
  6
CONTINUOUS
  0
LAYER
  5
DE1
330
C62
100
AcDbSymbolTableRecord
100
AcDbLayerTableRecord
  2
Shape455
 70
    0
 62
    7
  6
CONTINUOUS
  0
LAYER
  5
DE2
330
C62
100
AcDbSymbolTableRecord
100
AcDbLayerTableRecord
  2
Shape456
 70
    0
 62
    7
  6
CONTINUOUS
  0
LAYER
  5
DE3
330
C62
100
AcDbSymbolTableRecord
100
AcDbLayerTableRecord
  2
Shape457
 70
    0
 62
    7
  6
CONTINUOUS
  0
LAYER
  5
DE4
330
C62
100
AcDbSymbolTableRecord
100
AcDbLayerTableRecord
  2
Shape458
 70
    0
 62
    7
  6
CONTINUOUS
  0
LAYER
  5
DE5
330
C62
100
AcDbSymbolTableRecord
100
AcDbLayerTableRecord
  2
Shape459
 70
    0
 62
    7
  6
CONTINUOUS
  0
LAYER
  5
DE6
330
C62
100
AcDbSymbolTableRecord
100
AcDbLayerTableRecord
  2
Shape460
 70
    0
 62
    7
  6
CONTINUOUS
  0
LAYER
  5
DE7
330
C62
100
AcDbSymbolTableRecord
100
AcDbLayerTableRecord
  2
Shape461
 70
    0
 62
    7
  6
CONTINUOUS
  0
LAYER
  5
DE8
330
C62
100
AcDbSymbolTableRecord
100
AcDbLayerTableRecord
  2
Shape462
 70
    0
 62
    7
  6
CONTINUOUS
  0
LAYER
  5
DE9
330
C62
100
AcDbSymbolTableRecord
100
AcDbLayerTableRecord
  2
Shape463
 70
    0
 62
    7
  6
CONTINUOUS
  0
LAYER
  5
DEA
330
C62
100
AcDbSymbolTableRecord
100
AcDbLayerTableRecord
  2
Shape464
 70
    0
 62
    7
  6
CONTINUOUS
  0
LAYER
  5
DEB
330
C62
100
AcDbSymbolTableRecord
100
AcDbLayerTableRecord
  2
Shape465
 70
    0
 62
    7
  6
CONTINUOUS
  0
LAYER
  5
DEC
330
C62
100
AcDbSymbolTableRecord
100
AcDbLayerTableRecord
  2
Shape466
 70
    0
 62
    7
  6
CONTINUOUS
  0
LAYER
  5
DED
330
C62
100
AcDbSymbolTableRecord
100
AcDbLayerTableRecord
  2
Shape467
 70
    0
 62
    7
  6
CONTINUOUS
  0
LAYER
  5
DEE
330
C62
100
AcDbSymbolTableRecord
100
AcDbLayerTableRecord
  2
Shape468
 70
    0
 62
    7
  6
CONTINUOUS
  0
LAYER
  5
DEF
330
C62
100
AcDbSymbolTableRecord
100
AcDbLayerTableRecord
  2
Shape469
 70
    0
 62
    7
  6
CONTINUOUS
  0
LAYER
  5
DF0
330
C62
100
AcDbSymbolTableRecord
100
AcDbLayerTableRecord
  2
Shape470
 70
    0
 62
    7
  6
CONTINUOUS
  0
LAYER
  5
DF1
330
C62
100
AcDbSymbolTableRecord
100
AcDbLayerTableRecord
  2
Shape471
 70
    0
 62
    7
  6
CONTINUOUS
  0
LAYER
  5
DF2
330
C62
100
AcDbSymbolTableRecord
100
AcDbLayerTableRecord
  2
Shape472
 70
    0
 62
    7
  6
CONTINUOUS
  0
LAYER
  5
DF3
330
C62
100
AcDbSymbolTableRecord
100
AcDbLayerTableRecord
  2
Shape473
 70
    0
 62
    7
  6
CONTINUOUS
  0
LAYER
  5
DF4
330
C62
100
AcDbSymbolTableRecord
100
AcDbLayerTableRecord
  2
Shape474
 70
    0
 62
    7
  6
CONTINUOUS
  0
LAYER
  5
DF5
330
C62
100
AcDbSymbolTableRecord
100
AcDbLayerTableRecord
  2
Shape475
 70
    0
 62
    7
  6
CONTINUOUS
  0
LAYER
  5
DF6
330
C62
100
AcDbSymbolTableRecord
100
AcDbLayerTableRecord
  2
Shape476
 70
    0
 62
    7
  6
CONTINUOUS
  0
LAYER
  5
DF7
330
C62
100
AcDbSymbolTableRecord
100
AcDbLayerTableRecord
  2
Shape477
 70
    0
 62
    7
  6
CONTINUOUS
  0
LAYER
  5
DF8
330
C62
100
AcDbSymbolTableRecord
100
AcDbLayerTableRecord
  2
Shape478
 70
    0
 62
    7
  6
CONTINUOUS
  0
LAYER
  5
DF9
330
C62
100
AcDbSymbolTableRecord
100
AcDbLayerTableRecord
  2
Shape479
 70
    0
 62
    7
  6
CONTINUOUS
  0
LAYER
  5
DFA
330
C62
100
AcDbSymbolTableRecord
100
AcDbLayerTableRecord
  2
Shape480
 70
    0
 62
    7
  6
CONTINUOUS
  0
LAYER
  5
DFB
330
C62
100
AcDbSymbolTableRecord
100
AcDbLayerTableRecord
  2
Shape481
 70
    0
 62
    7
  6
CONTINUOUS
  0
LAYER
  5
DFC
330
C62
100
AcDbSymbolTableRecord
100
AcDbLayerTableRecord
  2
Shape482
 70
    0
 62
    7
  6
CONTINUOUS
  0
LAYER
  5
DFD
330
C62
100
AcDbSymbolTableRecord
100
AcDbLayerTableRecord
  2
Shape483
 70
    0
 62
    7
  6
CONTINUOUS
  0
LAYER
  5
DFE
330
C62
100
AcDbSymbolTableRecord
100
AcDbLayerTableRecord
  2
Shape484
 70
    0
 62
    7
  6
CONTINUOUS
  0
LAYER
  5
DFF
330
C62
100
AcDbSymbolTableRecord
100
AcDbLayerTableRecord
  2
Shape485
 70
    0
 62
    7
  6
CONTINUOUS
  0
LAYER
  5
E00
330
C62
100
AcDbSymbolTableRecord
100
AcDbLayerTableRecord
  2
Shape486
 70
    0
 62
    7
  6
CONTINUOUS
  0
LAYER
  5
E01
330
C62
100
AcDbSymbolTableRecord
100
AcDbLayerTableRecord
  2
Shape487
 70
    0
 62
    7
  6
CONTINUOUS
  0
LAYER
  5
E02
330
C62
100
AcDbSymbolTableRecord
100
AcDbLayerTableRecord
  2
Shape488
 70
    0
 62
    7
  6
CONTINUOUS
  0
LAYER
  5
E03
330
C62
100
AcDbSymbolTableRecord
100
AcDbLayerTableRecord
  2
Shape489
 70
    0
 62
    7
  6
CONTINUOUS
  0
LAYER
  5
E04
330
C62
100
AcDbSymbolTableRecord
100
AcDbLayerTableRecord
  2
Shape490
 70
    0
 62
    7
  6
CONTINUOUS
  0
LAYER
  5
E05
330
C62
100
AcDbSymbolTableRecord
100
AcDbLayerTableRecord
  2
Shape491
 70
    0
 62
    7
  6
CONTINUOUS
  0
LAYER
  5
E06
330
C62
100
AcDbSymbolTableRecord
100
AcDbLayerTableRecord
  2
Shape492
 70
    0
 62
    7
  6
CONTINUOUS
  0
LAYER
  5
E07
330
C62
100
AcDbSymbolTableRecord
100
AcDbLayerTableRecord
  2
Shape493
 70
    0
 62
    7
  6
CONTINUOUS
  0
LAYER
  5
E08
330
C62
100
AcDbSymbolTableRecord
100
AcDbLayerTableRecord
  2
Shape494
 70
    0
 62
    7
  6
CONTINUOUS
  0
LAYER
  5
E09
330
C62
100
AcDbSymbolTableRecord
100
AcDbLayerTableRecord
  2
Shape495
 70
    0
 62
    7
  6
CONTINUOUS
  0
LAYER
  5
E0A
330
C62
100
AcDbSymbolTableRecord
100
AcDbLayerTableRecord
  2
Shape496
 70
    0
 62
    7
  6
CONTINUOUS
  0
LAYER
  5
E0B
330
C62
100
AcDbSymbolTableRecord
100
AcDbLayerTableRecord
  2
Shape509
 70
    0
 62
    7
  6
CONTINUOUS
  0
LAYER
  5
E0C
330
C62
100
AcDbSymbolTableRecord
100
AcDbLayerTableRecord
  2
Shape510
 70
    0
 62
    7
  6
CONTINUOUS
  0
LAYER
  5
E0D
330
C62
100
AcDbSymbolTableRecord
100
AcDbLayerTableRecord
  2
Shape511
 70
    0
 62
    7
  6
CONTINUOUS
  0
LAYER
  5
E0E
330
C62
100
AcDbSymbolTableRecord
100
AcDbLayerTableRecord
  2
Shape512
 70
    0
 62
    7
  6
CONTINUOUS
  0
LAYER
  5
E0F
330
C62
100
AcDbSymbolTableRecord
100
AcDbLayerTableRecord
  2
Shape513
 70
    0
 62
    7
  6
CONTINUOUS
  0
LAYER
  5
E10
330
C62
100
AcDbSymbolTableRecord
100
AcDbLayerTableRecord
  2
Shape514
 70
    0
 62
    7
  6
CONTINUOUS
  0
LAYER
  5
E11
330
C62
100
AcDbSymbolTableRecord
100
AcDbLayerTableRecord
  2
Shape515
 70
    0
 62
    7
  6
CONTINUOUS
  0
LAYER
  5
E12
330
C62
100
AcDbSymbolTableRecord
100
AcDbLayerTableRecord
  2
Shape516
 70
    0
 62
    7
  6
CONTINUOUS
  0
LAYER
  5
E13
330
C62
100
AcDbSymbolTableRecord
100
AcDbLayerTableRecord
  2
Shape517
 70
    0
 62
    7
  6
CONTINUOUS
  0
LAYER
  5
E14
330
C62
100
AcDbSymbolTableRecord
100
AcDbLayerTableRecord
  2
Shape518
 70
    0
 62
    7
  6
CONTINUOUS
  0
LAYER
  5
E15
330
C62
100
AcDbSymbolTableRecord
100
AcDbLayerTableRecord
  2
Shape519
 70
    0
 62
    7
  6
CONTINUOUS
  0
LAYER
  5
E16
330
C62
100
AcDbSymbolTableRecord
100
AcDbLayerTableRecord
  2
Shape520
 70
    0
 62
    7
  6
CONTINUOUS
  0
LAYER
  5
E17
330
C62
100
AcDbSymbolTableRecord
100
AcDbLayerTableRecord
  2
Shape521
 70
    0
 62
    7
  6
CONTINUOUS
  0
LAYER
  5
E18
330
C62
100
AcDbSymbolTableRecord
100
AcDbLayerTableRecord
  2
Shape522
 70
    0
 62
    7
  6
CONTINUOUS
  0
LAYER
  5
E19
330
C62
100
AcDbSymbolTableRecord
100
AcDbLayerTableRecord
  2
Shape523
 70
    0
 62
    7
  6
CONTINUOUS
  0
LAYER
  5
E1A
330
C62
100
AcDbSymbolTableRecord
100
AcDbLayerTableRecord
  2
Shape524
 70
    0
 62
    7
  6
CONTINUOUS
  0
LAYER
  5
E1B
330
C62
100
AcDbSymbolTableRecord
100
AcDbLayerTableRecord
  2
Shape525
 70
    0
 62
    7
  6
CONTINUOUS
  0
LAYER
  5
E1C
330
C62
100
AcDbSymbolTableRecord
100
AcDbLayerTableRecord
  2
Shape526
 70
    0
 62
    7
  6
CONTINUOUS
  0
LAYER
  5
E1D
330
C62
100
AcDbSymbolTableRecord
100
AcDbLayerTableRecord
  2
Shape527
 70
    0
 62
    7
  6
CONTINUOUS
  0
LAYER
  5
E1E
330
C62
100
AcDbSymbolTableRecord
100
AcDbLayerTableRecord
  2
Shape528
 70
    0
 62
    7
  6
CONTINUOUS
  0
LAYER
  5
E1F
330
C62
100
AcDbSymbolTableRecord
100
AcDbLayerTableRecord
  2
Shape529
 70
    0
 62
    7
  6
CONTINUOUS
  0
LAYER
  5
E20
330
C62
100
AcDbSymbolTableRecord
100
AcDbLayerTableRecord
  2
Shape530
 70
    0
 62
    7
  6
CONTINUOUS
  0
LAYER
  5
E21
330
C62
100
AcDbSymbolTableRecord
100
AcDbLayerTableRecord
  2
Shape531
 70
    0
 62
    7
  6
CONTINUOUS
  0
LAYER
  5
E22
330
C62
100
AcDbSymbolTableRecord
100
AcDbLayerTableRecord
  2
Shape532
 70
    0
 62
    7
  6
CONTINUOUS
  0
LAYER
  5
E23
330
C62
100
AcDbSymbolTableRecord
100
AcDbLayerTableRecord
  2
Shape533
 70
    0
 62
    7
  6
CONTINUOUS
  0
LAYER
  5
E24
330
C62
100
AcDbSymbolTableRecord
100
AcDbLayerTableRecord
  2
Shape534
 70
    0
 62
    7
  6
CONTINUOUS
  0
LAYER
  5
E25
330
C62
100
AcDbSymbolTableRecord
100
AcDbLayerTableRecord
  2
Shape535
 70
    0
 62
    7
  6
CONTINUOUS
  0
LAYER
  5
E26
330
C62
100
AcDbSymbolTableRecord
100
AcDbLayerTableRecord
  2
Shape536
 70
    0
 62
    7
  6
CONTINUOUS
  0
LAYER
  5
E27
330
C62
100
AcDbSymbolTableRecord
100
AcDbLayerTableRecord
  2
Shape537
 70
    0
 62
    7
  6
CONTINUOUS
  0
LAYER
  5
E28
330
C62
100
AcDbSymbolTableRecord
100
AcDbLayerTableRecord
  2
Shape538
 70
    0
 62
    7
  6
CONTINUOUS
  0
LAYER
  5
E29
330
C62
100
AcDbSymbolTableRecord
100
AcDbLayerTableRecord
  2
Shape539
 70
    0
 62
    7
  6
CONTINUOUS
  0
LAYER
  5
E2A
330
C62
100
AcDbSymbolTableRecord
100
AcDbLayerTableRecord
  2
Shape540
 70
    0
 62
    7
  6
CONTINUOUS
  0
LAYER
  5
E2B
330
C62
100
AcDbSymbolTableRecord
100
AcDbLayerTableRecord
  2
Shape541
 70
    0
 62
    7
  6
CONTINUOUS
  0
LAYER
  5
E2C
330
C62
100
AcDbSymbolTableRecord
100
AcDbLayerTableRecord
  2
Shape542
 70
    0
 62
    7
  6
CONTINUOUS
  0
LAYER
  5
E2D
330
C62
100
AcDbSymbolTableRecord
100
AcDbLayerTableRecord
  2
Shape543
 70
    0
 62
    7
  6
CONTINUOUS
  0
LAYER
  5
E2E
330
C62
100
AcDbSymbolTableRecord
100
AcDbLayerTableRecord
  2
Shape544
 70
    0
 62
    7
  6
CONTINUOUS
  0
LAYER
  5
E2F
330
C62
100
AcDbSymbolTableRecord
100
AcDbLayerTableRecord
  2
Shape545
 70
    0
 62
    7
  6
CONTINUOUS
  0
LAYER
  5
E30
330
C62
100
AcDbSymbolTableRecord
100
AcDbLayerTableRecord
  2
Shape546
 70
    0
 62
    7
  6
CONTINUOUS
  0
LAYER
  5
E31
330
C62
100
AcDbSymbolTableRecord
100
AcDbLayerTableRecord
  2
Shape547
 70
    0
 62
    7
  6
CONTINUOUS
  0
LAYER
  5
E32
330
C62
100
AcDbSymbolTableRecord
100
AcDbLayerTableRecord
  2
Shape548
 70
    0
 62
    7
  6
CONTINUOUS
  0
LAYER
  5
E33
330
C62
100
AcDbSymbolTableRecord
100
AcDbLayerTableRecord
  2
Shape549
 70
    0
 62
    7
  6
CONTINUOUS
  0
LAYER
  5
E34
330
C62
100
AcDbSymbolTableRecord
100
AcDbLayerTableRecord
  2
Shape550
 70
    0
 62
    7
  6
CONTINUOUS
  0
LAYER
  5
E35
330
C62
100
AcDbSymbolTableRecord
100
AcDbLayerTableRecord
  2
Shape551
 70
    0
 62
    7
  6
CONTINUOUS
  0
LAYER
  5
E36
330
C62
100
AcDbSymbolTableRecord
100
AcDbLayerTableRecord
  2
Shape552
 70
    0
 62
    7
  6
CONTINUOUS
  0
LAYER
  5
E37
330
C62
100
AcDbSymbolTableRecord
100
AcDbLayerTableRecord
  2
Shape553
 70
    0
 62
    7
  6
CONTINUOUS
  0
LAYER
  5
E38
330
C62
100
AcDbSymbolTableRecord
100
AcDbLayerTableRecord
  2
Shape554
 70
    0
 62
    7
  6
CONTINUOUS
  0
LAYER
  5
E39
330
C62
100
AcDbSymbolTableRecord
100
AcDbLayerTableRecord
  2
Shape555
 70
    0
 62
    7
  6
CONTINUOUS
  0
LAYER
  5
E3A
330
C62
100
AcDbSymbolTableRecord
100
AcDbLayerTableRecord
  2
Shape556
 70
    0
 62
    7
  6
CONTINUOUS
  0
LAYER
  5
E3B
330
C62
100
AcDbSymbolTableRecord
100
AcDbLayerTableRecord
  2
Shape557
 70
    0
 62
    7
  6
CONTINUOUS
  0
LAYER
  5
E3C
330
C62
100
AcDbSymbolTableRecord
100
AcDbLayerTableRecord
  2
Shape558
 70
    0
 62
    7
  6
CONTINUOUS
  0
LAYER
  5
E3D
330
C62
100
AcDbSymbolTableRecord
100
AcDbLayerTableRecord
  2
Shape559
 70
    0
 62
    7
  6
CONTINUOUS
  0
LAYER
  5
E3E
330
C62
100
AcDbSymbolTableRecord
100
AcDbLayerTableRecord
  2
Shape560
 70
    0
 62
    7
  6
CONTINUOUS
  0
LAYER
  5
E3F
330
C62
100
AcDbSymbolTableRecord
100
AcDbLayerTableRecord
  2
Shape561
 70
    0
 62
    7
  6
CONTINUOUS
  0
LAYER
  5
E40
330
C62
100
AcDbSymbolTableRecord
100
AcDbLayerTableRecord
  2
Shape562
 70
    0
 62
    7
  6
CONTINUOUS
  0
LAYER
  5
E41
330
C62
100
AcDbSymbolTableRecord
100
AcDbLayerTableRecord
  2
Shape563
 70
    0
 62
    7
  6
CONTINUOUS
  0
LAYER
  5
E42
330
C62
100
AcDbSymbolTableRecord
100
AcDbLayerTableRecord
  2
Shape564
 70
    0
 62
    7
  6
CONTINUOUS
  0
LAYER
  5
E43
330
C62
100
AcDbSymbolTableRecord
100
AcDbLayerTableRecord
  2
Shape565
 70
    0
 62
    7
  6
CONTINUOUS
  0
LAYER
  5
E44
330
C62
100
AcDbSymbolTableRecord
100
AcDbLayerTableRecord
  2
Shape566
 70
    0
 62
    7
  6
CONTINUOUS
  0
LAYER
  5
E45
330
C62
100
AcDbSymbolTableRecord
100
AcDbLayerTableRecord
  2
Shape569
 70
    0
 62
    7
  6
CONTINUOUS
  0
LAYER
  5
E46
330
C62
100
AcDbSymbolTableRecord
100
AcDbLayerTableRecord
  2
Shape570
 70
    0
 62
    7
  6
CONTINUOUS
  0
LAYER
  5
E47
330
C62
100
AcDbSymbolTableRecord
100
AcDbLayerTableRecord
  2
Shape571
 70
    0
 62
    7
  6
CONTINUOUS
  0
LAYER
  5
E48
330
C62
100
AcDbSymbolTableRecord
100
AcDbLayerTableRecord
  2
Shape572
 70
    0
 62
    7
  6
CONTINUOUS
  0
LAYER
  5
E49
330
C62
100
AcDbSymbolTableRecord
100
AcDbLayerTableRecord
  2
Shape573
 70
    0
 62
    7
  6
CONTINUOUS
  0
LAYER
  5
E4A
330
C62
100
AcDbSymbolTableRecord
100
AcDbLayerTableRecord
  2
Shape574
 70
    0
 62
    7
  6
CONTINUOUS
  0
LAYER
  5
E4B
330
C62
100
AcDbSymbolTableRecord
100
AcDbLayerTableRecord
  2
Shape575
 70
    0
 62
    7
  6
CONTINUOUS
  0
LAYER
  5
E4C
330
C62
100
AcDbSymbolTableRecord
100
AcDbLayerTableRecord
  2
Shape576
 70
    0
 62
    7
  6
CONTINUOUS
  0
LAYER
  5
E4D
330
C62
100
AcDbSymbolTableRecord
100
AcDbLayerTableRecord
  2
Shape577
 70
    0
 62
    7
  6
CONTINUOUS
  0
LAYER
  5
E4E
330
C62
100
AcDbSymbolTableRecord
100
AcDbLayerTableRecord
  2
Shape580
 70
    0
 62
    7
  6
CONTINUOUS
  0
LAYER
  5
E4F
330
C62
100
AcDbSymbolTableRecord
100
AcDbLayerTableRecord
  2
Shape581
 70
    0
 62
    7
  6
CONTINUOUS
  0
LAYER
  5
E50
330
C62
100
AcDbSymbolTableRecord
100
AcDbLayerTableRecord
  2
Shape582
 70
    0
 62
    7
  6
CONTINUOUS
  0
LAYER
  5
E51
330
C62
100
AcDbSymbolTableRecord
100
AcDbLayerTableRecord
  2
Shape583
 70
    0
 62
    7
  6
CONTINUOUS
  0
LAYER
  5
E52
330
C62
100
AcDbSymbolTableRecord
100
AcDbLayerTableRecord
  2
Shape584
 70
    0
 62
    7
  6
CONTINUOUS
  0
LAYER
  5
E53
330
C62
100
AcDbSymbolTableRecord
100
AcDbLayerTableRecord
  2
Shape585
 70
    0
 62
    7
  6
CONTINUOUS
  0
LAYER
  5
E54
330
C62
100
AcDbSymbolTableRecord
100
AcDbLayerTableRecord
  2
Shape586
 70
    0
 62
    7
  6
CONTINUOUS
  0
LAYER
  5
E55
330
C62
100
AcDbSymbolTableRecord
100
AcDbLayerTableRecord
  2
Shape587
 70
    0
 62
    7
  6
CONTINUOUS
  0
LAYER
  5
E56
330
C62
100
AcDbSymbolTableRecord
100
AcDbLayerTableRecord
  2
Shape588
 70
    0
 62
    7
  6
CONTINUOUS
  0
LAYER
  5
E57
330
C62
100
AcDbSymbolTableRecord
100
AcDbLayerTableRecord
  2
Shape589
 70
    0
 62
    7
  6
CONTINUOUS
  0
LAYER
  5
E58
330
C62
100
AcDbSymbolTableRecord
100
AcDbLayerTableRecord
  2
Shape590
 70
    0
 62
    7
  6
CONTINUOUS
  0
LAYER
  5
E59
330
C62
100
AcDbSymbolTableRecord
100
AcDbLayerTableRecord
  2
Shape591
 70
    0
 62
    7
  6
CONTINUOUS
  0
LAYER
  5
E5A
330
C62
100
AcDbSymbolTableRecord
100
AcDbLayerTableRecord
  2
Shape592
 70
    0
 62
    7
  6
CONTINUOUS
  0
LAYER
  5
E5B
330
C62
100
AcDbSymbolTableRecord
100
AcDbLayerTableRecord
  2
Shape593
 70
    0
 62
    7
  6
CONTINUOUS
  0
LAYER
  5
E5C
330
C62
100
AcDbSymbolTableRecord
100
AcDbLayerTableRecord
  2
Shape594
 70
    0
 62
    7
  6
CONTINUOUS
  0
LAYER
  5
E5D
330
C62
100
AcDbSymbolTableRecord
100
AcDbLayerTableRecord
  2
Shape595
 70
    0
 62
    7
  6
CONTINUOUS
  0
LAYER
  5
E5E
330
C62
100
AcDbSymbolTableRecord
100
AcDbLayerTableRecord
  2
Shape596
 70
    0
 62
    7
  6
CONTINUOUS
  0
LAYER
  5
E5F
330
C62
100
AcDbSymbolTableRecord
100
AcDbLayerTableRecord
  2
Shape597
 70
    0
 62
    7
  6
CONTINUOUS
  0
LAYER
  5
E60
330
C62
100
AcDbSymbolTableRecord
100
AcDbLayerTableRecord
  2
Shape598
 70
    0
 62
    7
  6
CONTINUOUS
  0
LAYER
  5
E61
330
C62
100
AcDbSymbolTableRecord
100
AcDbLayerTableRecord
  2
Shape599
 70
    0
 62
    7
  6
CONTINUOUS
  0
LAYER
  5
E62
330
C62
100
AcDbSymbolTableRecord
100
AcDbLayerTableRecord
  2
Shape600
 70
    0
 62
    7
  6
CONTINUOUS
  0
LAYER
  5
E63
330
C62
100
AcDbSymbolTableRecord
100
AcDbLayerTableRecord
  2
Shape601
 70
    0
 62
    7
  6
CONTINUOUS
  0
LAYER
  5
E64
330
C62
100
AcDbSymbolTableRecord
100
AcDbLayerTableRecord
  2
Shape602
 70
    0
 62
    7
  6
CONTINUOUS
  0
LAYER
  5
E65
330
C62
100
AcDbSymbolTableRecord
100
AcDbLayerTableRecord
  2
Shape603
 70
    0
 62
    7
  6
CONTINUOUS
  0
LAYER
  5
E66
330
C62
100
AcDbSymbolTableRecord
100
AcDbLayerTableRecord
  2
Shape604
 70
    0
 62
    7
  6
CONTINUOUS
  0
LAYER
  5
E67
330
C62
100
AcDbSymbolTableRecord
100
AcDbLayerTableRecord
  2
Shape605
 70
    0
 62
    7
  6
CONTINUOUS
  0
LAYER
  5
E68
330
C62
100
AcDbSymbolTableRecord
100
AcDbLayerTableRecord
  2
Shape606
 70
    0
 62
    7
  6
CONTINUOUS
  0
LAYER
  5
E69
330
C62
100
AcDbSymbolTableRecord
100
AcDbLayerTableRecord
  2
Shape607
 70
    0
 62
    7
  6
CONTINUOUS
  0
LAYER
  5
E6A
330
C62
100
AcDbSymbolTableRecord
100
AcDbLayerTableRecord
  2
Shape608
 70
    0
 62
    7
  6
CONTINUOUS
  0
LAYER
  5
E6B
330
C62
100
AcDbSymbolTableRecord
100
AcDbLayerTableRecord
  2
Shape609
 70
    0
 62
    7
  6
CONTINUOUS
  0
LAYER
  5
E6C
330
C62
100
AcDbSymbolTableRecord
100
AcDbLayerTableRecord
  2
Shape610
 70
    0
 62
    7
  6
CONTINUOUS
  0
LAYER
  5
E6D
330
C62
100
AcDbSymbolTableRecord
100
AcDbLayerTableRecord
  2
Shape611
 70
    0
 62
    7
  6
CONTINUOUS
  0
LAYER
  5
E6E
330
C62
100
AcDbSymbolTableRecord
100
AcDbLayerTableRecord
  2
Shape612
 70
    0
 62
    7
  6
CONTINUOUS
  0
LAYER
  5
E6F
330
C62
100
AcDbSymbolTableRecord
100
AcDbLayerTableRecord
  2
Shape613
 70
    0
 62
    7
  6
CONTINUOUS
  0
LAYER
  5
E70
330
C62
100
AcDbSymbolTableRecord
100
AcDbLayerTableRecord
  2
Shape614
 70
    0
 62
    7
  6
CONTINUOUS
  0
LAYER
  5
E71
330
C62
100
AcDbSymbolTableRecord
100
AcDbLayerTableRecord
  2
Shape615
 70
    0
 62
    7
  6
CONTINUOUS
  0
LAYER
  5
E72
330
C62
100
AcDbSymbolTableRecord
100
AcDbLayerTableRecord
  2
Shape617
 70
    0
 62
    7
  6
CONTINUOUS
  0
LAYER
  5
E73
330
C62
100
AcDbSymbolTableRecord
100
AcDbLayerTableRecord
  2
Shape618
 70
    0
 62
    7
  6
CONTINUOUS
  0
LAYER
  5
E74
330
C62
100
AcDbSymbolTableRecord
100
AcDbLayerTableRecord
  2
Shape619
 70
    0
 62
    7
  6
CONTINUOUS
  0
LAYER
  5
E75
330
C62
100
AcDbSymbolTableRecord
100
AcDbLayerTableRecord
  2
Shape620
 70
    0
 62
    7
  6
CONTINUOUS
  0
LAYER
  5
E76
330
C62
100
AcDbSymbolTableRecord
100
AcDbLayerTableRecord
  2
Shape621
 70
    0
 62
    7
  6
CONTINUOUS
  0
LAYER
  5
E77
330
C62
100
AcDbSymbolTableRecord
100
AcDbLayerTableRecord
  2
Shape622
 70
    0
 62
    7
  6
CONTINUOUS
  0
LAYER
  5
E78
330
C62
100
AcDbSymbolTableRecord
100
AcDbLayerTableRecord
  2
Shape623
 70
    0
 62
    7
  6
CONTINUOUS
  0
LAYER
  5
E79
330
C62
100
AcDbSymbolTableRecord
100
AcDbLayerTableRecord
  2
Shape624
 70
    0
 62
    7
  6
CONTINUOUS
  0
LAYER
  5
E7A
330
C62
100
AcDbSymbolTableRecord
100
AcDbLayerTableRecord
  2
Shape625
 70
    0
 62
    7
  6
CONTINUOUS
  0
LAYER
  5
E7B
330
C62
100
AcDbSymbolTableRecord
100
AcDbLayerTableRecord
  2
Shape626
 70
    0
 62
    7
  6
CONTINUOUS
  0
LAYER
  5
E7C
330
C62
100
AcDbSymbolTableRecord
100
AcDbLayerTableRecord
  2
Shape633
 70
    0
 62
    7
  6
CONTINUOUS
  0
LAYER
  5
E7D
330
C62
100
AcDbSymbolTableRecord
100
AcDbLayerTableRecord
  2
Shape634
 70
    0
 62
    7
  6
CONTINUOUS
  0
LAYER
  5
E7E
330
C62
100
AcDbSymbolTableRecord
100
AcDbLayerTableRecord
  2
Shape635
 70
    0
 62
    7
  6
CONTINUOUS
  0
LAYER
  5
E7F
330
C62
100
AcDbSymbolTableRecord
100
AcDbLayerTableRecord
  2
Shape656
 70
    0
 62
    7
  6
CONTINUOUS
  0
LAYER
  5
E80
330
C62
100
AcDbSymbolTableRecord
100
AcDbLayerTableRecord
  2
Shape657
 70
    0
 62
    7
  6
CONTINUOUS
  0
LAYER
  5
E81
330
C62
100
AcDbSymbolTableRecord
100
AcDbLayerTableRecord
  2
Shape658
 70
    0
 62
    7
  6
CONTINUOUS
  0
LAYER
  5
E82
330
C62
100
AcDbSymbolTableRecord
100
AcDbLayerTableRecord
  2
Shape659
 70
    0
 62
    7
  6
CONTINUOUS
  0
LAYER
  5
E83
330
C62
100
AcDbSymbolTableRecord
100
AcDbLayerTableRecord
  2
Shape660
 70
    0
 62
    7
  6
CONTINUOUS
  0
LAYER
  5
E84
330
C62
100
AcDbSymbolTableRecord
100
AcDbLayerTableRecord
  2
Shape661
 70
    0
 62
    7
  6
CONTINUOUS
  0
LAYER
  5
E85
330
C62
100
AcDbSymbolTableRecord
100
AcDbLayerTableRecord
  2
Shape665
 70
    0
 62
    7
  6
CONTINUOUS
  0
LAYER
  5
E86
330
C62
100
AcDbSymbolTableRecord
100
AcDbLayerTableRecord
  2
Shape666
 70
    0
 62
    7
  6
CONTINUOUS
  0
LAYER
  5
E87
330
C62
100
AcDbSymbolTableRecord
100
AcDbLayerTableRecord
  2
Shape667
 70
    0
 62
    7
  6
CONTINUOUS
  0
LAYER
  5
E88
330
C62
100
AcDbSymbolTableRecord
100
AcDbLayerTableRecord
  2
Shape668
 70
    0
 62
    7
  6
CONTINUOUS
  0
LAYER
  5
E89
330
C62
100
AcDbSymbolTableRecord
100
AcDbLayerTableRecord
  2
Shape669
 70
    0
 62
    7
  6
CONTINUOUS
  0
LAYER
  5
E8A
330
C62
100
AcDbSymbolTableRecord
100
AcDbLayerTableRecord
  2
Shape670
 70
    0
 62
    7
  6
CONTINUOUS
  0
LAYER
  5
E8B
330
C62
100
AcDbSymbolTableRecord
100
AcDbLayerTableRecord
  2
Shape671
 70
    0
 62
    7
  6
CONTINUOUS
  0
LAYER
  5
E8C
330
C62
100
AcDbSymbolTableRecord
100
AcDbLayerTableRecord
  2
Shape683
 70
    0
 62
    7
  6
CONTINUOUS
  0
LAYER
  5
E8D
330
C62
100
AcDbSymbolTableRecord
100
AcDbLayerTableRecord
  2
Shape684
 70
    0
 62
    7
  6
CONTINUOUS
  0
LAYER
  5
E8E
330
C62
100
AcDbSymbolTableRecord
100
AcDbLayerTableRecord
  2
Shape685
 70
    0
 62
    7
  6
CONTINUOUS
  0
LAYER
  5
E8F
330
C62
100
AcDbSymbolTableRecord
100
AcDbLayerTableRecord
  2
Shape686
 70
    0
 62
    7
  6
CONTINUOUS
  0
LAYER
  5
E90
330
C62
100
AcDbSymbolTableRecord
100
AcDbLayerTableRecord
  2
Shape687
 70
    0
 62
    7
  6
CONTINUOUS
  0
LAYER
  5
E91
330
C62
100
AcDbSymbolTableRecord
100
AcDbLayerTableRecord
  2
Shape688
 70
    0
 62
    7
  6
CONTINUOUS
  0
LAYER
  5
E92
330
C62
100
AcDbSymbolTableRecord
100
AcDbLayerTableRecord
  2
Shape694
 70
    0
 62
    7
  6
CONTINUOUS
  0
LAYER
  5
E93
330
C62
100
AcDbSymbolTableRecord
100
AcDbLayerTableRecord
  2
Shape695
 70
    0
 62
    7
  6
CONTINUOUS
  0
LAYER
  5
E94
330
C62
100
AcDbSymbolTableRecord
100
AcDbLayerTableRecord
  2
Shape696
 70
    0
 62
    7
  6
CONTINUOUS
  0
LAYER
  5
E95
330
C62
100
AcDbSymbolTableRecord
100
AcDbLayerTableRecord
  2
Shape697
 70
    0
 62
    7
  6
CONTINUOUS
  0
LAYER
  5
E96
330
C62
100
AcDbSymbolTableRecord
100
AcDbLayerTableRecord
  2
Shape698
 70
    0
 62
    7
  6
CONTINUOUS
  0
LAYER
  5
E97
330
C62
100
AcDbSymbolTableRecord
100
AcDbLayerTableRecord
  2
Shape699
 70
    0
 62
    7
  6
CONTINUOUS
  0
LAYER
  5
E98
330
C62
100
AcDbSymbolTableRecord
100
AcDbLayerTableRecord
  2
Shape708
 70
    0
 62
    7
  6
CONTINUOUS
  0
LAYER
  5
E99
330
C62
100
AcDbSymbolTableRecord
100
AcDbLayerTableRecord
  2
Shape709
 70
    0
 62
    7
  6
CONTINUOUS
  0
LAYER
  5
E9A
330
C62
100
AcDbSymbolTableRecord
100
AcDbLayerTableRecord
  2
Shape710
 70
    0
 62
    7
  6
CONTINUOUS
  0
LAYER
  5
E9B
330
C62
100
AcDbSymbolTableRecord
100
AcDbLayerTableRecord
  2
Shape717
 70
    0
 62
    7
  6
CONTINUOUS
  0
LAYER
  5
E9C
330
C62
100
AcDbSymbolTableRecord
100
AcDbLayerTableRecord
  2
Shape718
 70
    0
 62
    7
  6
CONTINUOUS
  0
LAYER
  5
E9D
330
C62
100
AcDbSymbolTableRecord
100
AcDbLayerTableRecord
  2
Shape719
 70
    0
 62
    7
  6
CONTINUOUS
  0
LAYER
  5
E9E
330
C62
100
AcDbSymbolTableRecord
100
AcDbLayerTableRecord
  2
Shape720
 70
    0
 62
    7
  6
CONTINUOUS
  0
LAYER
  5
E9F
330
C62
100
AcDbSymbolTableRecord
100
AcDbLayerTableRecord
  2
Shape721
 70
    0
 62
    7
  6
CONTINUOUS
  0
LAYER
  5
EA0
330
C62
100
AcDbSymbolTableRecord
100
AcDbLayerTableRecord
  2
Shape724
 70
    0
 62
    7
  6
CONTINUOUS
  0
LAYER
  5
EA1
330
C62
100
AcDbSymbolTableRecord
100
AcDbLayerTableRecord
  2
Shape725
 70
    0
 62
    7
  6
CONTINUOUS
  0
LAYER
  5
EA2
330
C62
100
AcDbSymbolTableRecord
100
AcDbLayerTableRecord
  2
Shape726
 70
    0
 62
    7
  6
CONTINUOUS
  0
LAYER
  5
EA3
330
C62
100
AcDbSymbolTableRecord
100
AcDbLayerTableRecord
  2
Shape729
 70
    0
 62
    7
  6
CONTINUOUS
  0
LAYER
  5
EA4
330
C62
100
AcDbSymbolTableRecord
100
AcDbLayerTableRecord
  2
Shape730
 70
    0
 62
    7
  6
CONTINUOUS
  0
LAYER
  5
EA5
330
C62
100
AcDbSymbolTableRecord
100
AcDbLayerTableRecord
  2
Shape731
 70
    0
 62
    7
  6
CONTINUOUS
  0
LAYER
  5
EA6
330
C62
100
AcDbSymbolTableRecord
100
AcDbLayerTableRecord
  2
Shape732
 70
    0
 62
    7
  6
CONTINUOUS
  0
LAYER
  5
EA7
330
C62
100
AcDbSymbolTableRecord
100
AcDbLayerTableRecord
  2
Shape741
 70
    0
 62
    7
  6
CONTINUOUS
  0
LAYER
  5
EA8
330
C62
100
AcDbSymbolTableRecord
100
AcDbLayerTableRecord
  2
Shape745
 70
    0
 62
    7
  6
CONTINUOUS
  0
LAYER
  5
EA9
330
C62
100
AcDbSymbolTableRecord
100
AcDbLayerTableRecord
  2
Shape746
 70
    0
 62
    7
  6
CONTINUOUS
  0
LAYER
  5
EAA
330
C62
100
AcDbSymbolTableRecord
100
AcDbLayerTableRecord
  2
Shape747
 70
    0
 62
    7
  6
CONTINUOUS
  0
LAYER
  5
EAB
330
C62
100
AcDbSymbolTableRecord
100
AcDbLayerTableRecord
  2
Shape748
 70
    0
 62
    7
  6
CONTINUOUS
  0
LAYER
  5
EAC
330
C62
100
AcDbSymbolTableRecord
100
AcDbLayerTableRecord
  2
Shape749
 70
    0
 62
    7
  6
CONTINUOUS
  0
LAYER
  5
EAD
330
C62
100
AcDbSymbolTableRecord
100
AcDbLayerTableRecord
  2
Shape750
 70
    0
 62
    7
  6
CONTINUOUS
  0
LAYER
  5
EAE
330
C62
100
AcDbSymbolTableRecord
100
AcDbLayerTableRecord
  2
Shape755
 70
    0
 62
    7
  6
CONTINUOUS
  0
LAYER
  5
EAF
330
C62
100
AcDbSymbolTableRecord
100
AcDbLayerTableRecord
  2
Shape756
 70
    0
 62
    7
  6
CONTINUOUS
  0
LAYER
  5
EB0
330
C62
100
AcDbSymbolTableRecord
100
AcDbLayerTableRecord
  2
Shape757
 70
    0
 62
    7
  6
CONTINUOUS
  0
LAYER
  5
EB1
330
C62
100
AcDbSymbolTableRecord
100
AcDbLayerTableRecord
  2
Shape758
 70
    0
 62
    7
  6
CONTINUOUS
  0
LAYER
  5
EB2
330
C62
100
AcDbSymbolTableRecord
100
AcDbLayerTableRecord
  2
Shape759
 70
    0
 62
    7
  6
CONTINUOUS
  0
LAYER
  5
EB3
330
C62
100
AcDbSymbolTableRecord
100
AcDbLayerTableRecord
  2
Shape760
 70
    0
 62
    7
  6
CONTINUOUS
  0
LAYER
  5
EB4
330
C62
100
AcDbSymbolTableRecord
100
AcDbLayerTableRecord
  2
Shape768
 70
    0
 62
    7
  6
CONTINUOUS
  0
LAYER
  5
EB5
330
C62
100
AcDbSymbolTableRecord
100
AcDbLayerTableRecord
  2
Shape769
 70
    0
 62
    7
  6
CONTINUOUS
  0
LAYER
  5
EB6
330
C62
100
AcDbSymbolTableRecord
100
AcDbLayerTableRecord
  2
Shape770
 70
    0
 62
    7
  6
CONTINUOUS
  0
LAYER
  5
EB7
330
C62
100
AcDbSymbolTableRecord
100
AcDbLayerTableRecord
  2
Shape771
 70
    0
 62
    7
  6
CONTINUOUS
  0
LAYER
  5
EB8
330
C62
100
AcDbSymbolTableRecord
100
AcDbLayerTableRecord
  2
Shape772
 70
    0
 62
    7
  6
CONTINUOUS
  0
LAYER
  5
EB9
330
C62
100
AcDbSymbolTableRecord
100
AcDbLayerTableRecord
  2
Shape773
 70
    0
 62
    7
  6
CONTINUOUS
  0
LAYER
  5
EBA
330
C62
100
AcDbSymbolTableRecord
100
AcDbLayerTableRecord
  2
Shape774
 70
    0
 62
    7
  6
CONTINUOUS
  0
LAYER
  5
EBB
330
C62
100
AcDbSymbolTableRecord
100
AcDbLayerTableRecord
  2
Shape783
 70
    0
 62
    7
  6
CONTINUOUS
  0
LAYER
  5
EBC
330
C62
100
AcDbSymbolTableRecord
100
AcDbLayerTableRecord
  2
Line001
 70
    0
 62
    7
  6
CONTINUOUS
  0
LAYER
  5
EBD
330
C62
100
AcDbSymbolTableRecord
100
AcDbLayerTableRecord
  2
Line
 70
    0
 62
    7
  6
CONTINUOUS
  0
LAYER
  5
EBE
330
C62
100
AcDbSymbolTableRecord
100
AcDbLayerTableRecord
  2
Line002
 70
    0
 62
    7
  6
CONTINUOUS
  0
ENDTAB
  0
TABLE
  2
STYLE
  5
70
330
0
100
AcDbSymbolTable
 70
     2
  0
STYLE
  5
71
330
70
100
AcDbSymbolTableRecord
100
AcDbTextStyleTableRecord
  2
STANDARD
 70
     0
 40
0.0
 41
1.0
 50
0.0
 71
     0
 42
2.5
  3
arial.ttf
  4

  0
STYLE
  5
72
330
70
100
AcDbSymbolTableRecord
100
AcDbTextStyleTableRecord
  2
ANNOTATIVE
 70
     0
 40
0.0
 41
1.0
 50
0.0
 71
     0
 42
2.5
  3
arial.ttf
  4

  0
ENDTAB
  0
TABLE
  2
VIEW
  5
73
330
0
100
AcDbSymbolTable
 70
     0
  0
ENDTAB
  0
TABLE
  2
UCS
  5
74
330
0
100
AcDbSymbolTable
 70
     0
  0
ENDTAB
  0
TABLE
  2
APPID
  5
75
330
0
100
AcDbSymbolTable
 70
     2
  0
APPID
  5
76
330
75
100
AcDbSymbolTableRecord
100
AcDbRegAppTableRecord
  2
ACAD
 70
     0
  0
APPID
  5
77
330
75
100
AcDbSymbolTableRecord
100
AcDbRegAppTableRecord
  2
ACADANNOTATIVE
 70
     0
  0
ENDTAB
  0
TABLE
  2
DIMSTYLE
  5
78
330
0
100
AcDbSymbolTable
 70
     2
  0
DIMSTYLE
105
79
330
78
100
AcDbSymbolTableRecord
100
AcDbDimStyleTableRecord
  2
STANDARD
 70
     0
  3

  4

  5

  6

  7

 40
0.0
 41
2.5
 42
0.625
 43
3.75
 44
1.25
 45
0.0
 46
0.0
 47
0.0
 48
0.0
140
2.5
141
2.5
142
0.0
143
0.03937007874016
144
1.0
145
0.0
146
1.0
147
0.625
 71
     0
 72
     0
 73
     0
 74
     0
 75
     0
 76
     0
 77
     1
 78
     8
170
     0
171
     3
172
     1
173
     0
174
     0
175
     0
176
     0
177
     0
178
     0
270
     2
271
     2
272
     2
273
     2
274
     3
340
71
275
     0
280
     0
281
     0
282
     0
283
     0
284
     8
285
     0
286
     0
287
     3
288
     0
  0
ENDTAB
  0
TABLE
  2
BLOCK_RECORD
  5
A01
330
0
100
AcDbSymbolTable
  70
5
  0
BLOCK_RECORD
  5
A02
330
A01
100
AcDbSymbolTableRecord
100
AcDbBlockTableRecord
  2
*MODEL_SPACE
  0
BLOCK_RECORD
  5
A03
330
A01
100
AcDbSymbolTableRecord
100
AcDbBlockTableRecord
  2
*PAPER_SPACE
  0
ENDTAB
  0
ENDSEC
  0
SECTION
  2
BLOCKS
  0
BLOCK
  5
A04
330
A02
100
AcDbEntity
  8
0
100
AcDbBlockBegin
  2
*MODEL_SPACE
 70
   0
 10
0
 20
0
 30
0
  3
*MODEL_SPACE
  1
 
  0
ENDBLK
  5
A05
330
A02
100
AcDbEntity
  8
0
100
AcDbBlockEnd
  0
BLOCK
  5
A06
330
A03
100
AcDbEntity
 67
1
  8
0
100
AcDbBlockBegin
  2
*PAPER_SPACE
 70
   0
 10
0
 20
0
 30
0
  3
*PAPER_SPACE
  1
 
  0
ENDBLK
  5
A07
330
A03
100
AcDbEntity
 67
    1
  8
0
100
AcDbBlockEnd
  0
ENDSEC
  0
SECTION
  2
ENTITIES
  0
LINE
  5
A08
330
A02
100
AcDbEntity
  8
Shape
100
AcDbLine
 10
-5018.05
 20
-2239.3
 30
0
 11
-5018.05
 21
-2142.78
 31
0
  0
LINE
  5
A09
330
A02
100
AcDbEntity
  8
Shape001
100
AcDbLine
 10
-5018.05
 20
-2091.98
 30
0
 11
-5018.05
 21
-1970.06
 31
0
  0
LINE
  5
A0A
330
A02
100
AcDbEntity
  8
Shape002
100
AcDbLine
 10
-5018.05
 20
-1919.26
 30
0
 11
-5018.05
 21
-1822.74
 31
0
  0
LINE
  5
A0B
330
A02
100
AcDbEntity
  8
Shape003
100
AcDbLine
 10
-5018.05
 20
-715.304
 30
0
 11
-5018.05
 21
-618.784
 31
0
  0
LINE
  5
A0C
330
A02
100
AcDbEntity
  8
Shape004
100
AcDbLine
 10
-5018.05
 20
-567.984
 30
0
 11
-5018.05
 21
-446.064
 31
0
  0
LINE
  5
A0D
330
A02
100
AcDbEntity
  8
Shape005
100
AcDbLine
 10
-5018.05
 20
-395.264
 30
0
 11
-5018.05
 21
-298.744
 31
0
  0
LINE
  5
A0E
330
A02
100
AcDbEntity
  8
Shape006
100
AcDbLine
 10
-4954.55
 20
299.426
 30
0
 11
-4954.55
 21
-222.544
 31
0
  0
LINE
  5
A0F
330
A02
100
AcDbEntity
  8
Shape007
100
AcDbLine
 10
-4954.55
 20
-791.504
 30
0
 11
-4954.55
 21
-1746.54
 31
0
  0
LINE
  5
A10
330
A02
100
AcDbEntity
  8
Shape008
100
AcDbLine
 10
-4954.55
 20
-2315.5
 30
0
 11
-4954.55
 21
-2837.47
 31
0
  0
LINE
  5
A11
330
A02
100
AcDbEntity
  8
Shape009
100
AcDbLine
 10
-4811.38
 20
181.701
 30
0
 11
-4811.38
 21
-174.661
 31
0
  0
LINE
  5
A12
330
A02
100
AcDbEntity
  8
Shape010
100
AcDbLine
 10
-4811.38
 20
-432.979
 30
0
 11
-4811.38
 21
-789.341
 31
0
  0
LINE
  5
A13
330
A02
100
AcDbEntity
  8
Shape011
100
AcDbLine
 10
-4751.18
 20
-2363.38
 30
0
 11
-4751.18
 21
-2719.74
 31
0
  0
LINE
  5
A14
330
A02
100
AcDbEntity
  8
Shape012
100
AcDbLine
 10
-4731.62
 20
-2212.38
 30
0
 11
-4731.62
 21
-1882.18
 31
0
  0
LINE
  5
A15
330
A02
100
AcDbEntity
  8
Shape013
100
AcDbLine
 10
-4690.73
 20
-915.579
 30
0
 11
-4690.73
 21
-1271.94
 31
0
  0
LINE
  5
A16
330
A02
100
AcDbEntity
  8
Shape014
100
AcDbLine
 10
-4632.82
 20
-1398.18
 30
0
 11
-4632.82
 21
-1754.54
 31
0
  0
LINE
  5
A17
330
A02
100
AcDbEntity
  8
Shape015
100
AcDbLine
 10
-4536.04
 20
-1882.18
 30
0
 11
-4536.04
 21
-2212.38
 31
0
  0
LINE
  5
A18
330
A02
100
AcDbEntity
  8
Shape016
100
AcDbLine
 10
-4507.21
 20
-1881.8
 30
0
 11
-4507.21
 21
-2238.16
 31
0
  0
LINE
  5
A19
330
A02
100
AcDbEntity
  8
Shape017
100
AcDbLine
 10
-4494.81
 20
-2834.93
 30
0
 11
-4494.81
 21
-2862.87
 31
0
  0
LINE
  5
A1A
330
A02
100
AcDbEntity
  8
Shape018
100
AcDbLine
 10
-4494.81
 20
296.886
 30
0
 11
-4494.81
 21
324.826
 31
0
  0
LINE
  5
A1B
330
A02
100
AcDbEntity
  8
Shape019
100
AcDbLine
 10
-4455.02
 20
-789.341
 30
0
 11
-4455.02
 21
-432.979
 31
0
  0
LINE
  5
A1C
330
A02
100
AcDbEntity
  8
Shape020
100
AcDbLine
 10
-4455.02
 20
-174.661
 30
0
 11
-4455.02
 21
181.701
 31
0
  0
LINE
  5
A1D
330
A02
100
AcDbEntity
  8
Shape021
100
AcDbLine
 10
-4444.01
 20
-2900.97
 30
0
 11
-4444.01
 21
-2834.93
 31
0
  0
LINE
  5
A1E
330
A02
100
AcDbEntity
  8
Shape022
100
AcDbLine
 10
-4444.01
 20
296.886
 30
0
 11
-4444.01
 21
362.926
 31
0
  0
LINE
  5
A1F
330
A02
100
AcDbEntity
  8
Shape023
100
AcDbLine
 10
-4394.82
 20
-2719.74
 30
0
 11
-4394.82
 21
-2363.38
 31
0
  0
LINE
  5
A20
330
A02
100
AcDbEntity
  8
Shape024
100
AcDbLine
 10
-4334.37
 20
-1271.94
 30
0
 11
-4334.37
 21
-915.579
 31
0
  0
LINE
  5
A21
330
A02
100
AcDbEntity
  8
Shape025
100
AcDbLine
 10
-4328.78
 20
-432.979
 30
0
 11
-4328.78
 21
-789.341
 31
0
  0
LINE
  5
A22
330
A02
100
AcDbEntity
  8
Shape026
100
AcDbLine
 10
-4325.9
 20
388.326
 30
0
 11
-4325.9
 21
296.886
 31
0
  0
LINE
  5
A23
330
A02
100
AcDbEntity
  8
Shape027
100
AcDbLine
 10
-4325.9
 20
-2834.93
 30
0
 11
-4325.9
 21
-2926.37
 31
0
  0
LINE
  5
A24
330
A02
100
AcDbEntity
  8
Shape028
100
AcDbLine
 10
-4276.46
 20
-1754.54
 30
0
 11
-4276.46
 21
-1398.18
 31
0
  0
LINE
  5
A25
330
A02
100
AcDbEntity
  8
Shape029
100
AcDbLine
 10
-4275.1
 20
-2926.37
 30
0
 11
-4275.1
 21
-2834.93
 31
0
  0
LINE
  5
A26
330
A02
100
AcDbEntity
  8
Shape030
100
AcDbLine
 10
-4275.1
 20
296.886
 30
0
 11
-4275.1
 21
388.326
 31
0
  0
LINE
  5
A27
330
A02
100
AcDbEntity
  8
Shape031
100
AcDbLine
 10
-4156.99
 20
388.326
 30
0
 11
-4156.99
 21
296.886
 31
0
  0
LINE
  5
A28
330
A02
100
AcDbEntity
  8
Shape032
100
AcDbLine
 10
-4156.99
 20
-2834.93
 30
0
 11
-4156.99
 21
-2926.37
 31
0
  0
LINE
  5
A29
330
A02
100
AcDbEntity
  8
Shape033
100
AcDbLine
 10
-4150.85
 20
-2238.16
 30
0
 11
-4150.85
 21
-1881.8
 31
0
  0
LINE
  5
A2A
330
A02
100
AcDbEntity
  8
Shape034
100
AcDbLine
 10
-4149.2
 20
-2363.38
 30
0
 11
-4149.2
 21
-2719.74
 31
0
  0
LINE
  5
A2B
330
A02
100
AcDbEntity
  8
Shape035
100
AcDbLine
 10
-4122.02
 20
-2212.38
 30
0
 11
-4122.02
 21
-1882.18
 31
0
  0
LINE
  5
A2C
330
A02
100
AcDbEntity
  8
Shape036
100
AcDbLine
 10
-4106.19
 20
-2926.37
 30
0
 11
-4106.19
 21
-2834.93
 31
0
  0
LINE
  5
A2D
330
A02
100
AcDbEntity
  8
Shape037
100
AcDbLine
 10
-4106.19
 20
296.886
 30
0
 11
-4106.19
 21
388.326
 31
0
  0
LINE
  5
A2E
330
A02
100
AcDbEntity
  8
Shape038
100
AcDbLine
 10
-4087.48
 20
-915.579
 30
0
 11
-4087.48
 21
-1271.94
 31
0
  0
LINE
  5
A2F
330
A02
100
AcDbEntity
  8
Shape039
100
AcDbLine
 10
-3988.08
 20
362.926
 30
0
 11
-3988.08
 21
296.886
 31
0
  0
LINE
  5
A30
330
A02
100
AcDbEntity
  8
Shape040
100
AcDbLine
 10
-3988.08
 20
-2834.93
 30
0
 11
-3988.08
 21
-2900.97
 31
0
  0
LINE
  5
A31
330
A02
100
AcDbEntity
  8
Shape041
100
AcDbLine
 10
-3972.42
 20
-789.341
 30
0
 11
-3972.42
 21
-432.979
 31
0
  0
LINE
  5
A32
330
A02
100
AcDbEntity
  8
Shape042
100
AcDbLine
 10
-3971.66
 20
-1398.18
 30
0
 11
-3971.66
 21
-1754.54
 31
0
  0
LINE
  5
A33
330
A02
100
AcDbEntity
  8
Shape043
100
AcDbLine
 10
-3937.28
 20
-2834.93
 30
0
 11
-3937.28
 21
-2862.87
 31
0
  0
LINE
  5
A34
330
A02
100
AcDbEntity
  8
Shape044
100
AcDbLine
 10
-3937.28
 20
296.886
 30
0
 11
-3937.28
 21
324.826
 31
0
  0
LINE
  5
A35
330
A02
100
AcDbEntity
  8
Shape045
100
AcDbLine
 10
-3926.44
 20
-1882.18
 30
0
 11
-3926.44
 21
-2212.38
 31
0
  0
LINE
  5
A36
330
A02
100
AcDbEntity
  8
Shape046
100
AcDbLine
 10
-3866.5
 20
181.701
 30
0
 11
-3866.5
 21
-174.661
 31
0
  0
LINE
  5
A37
330
A02
100
AcDbEntity
  8
Shape047
100
AcDbLine
 10
-3846.18
 20
-432.979
 30
0
 11
-3846.18
 21
-789.341
 31
0
  0
LINE
  5
A38
330
A02
100
AcDbEntity
  8
Shape048
100
AcDbLine
 10
-3792.84
 20
-2719.74
 30
0
 11
-3792.84
 21
-2363.38
 31
0
  0
LINE
  5
A39
330
A02
100
AcDbEntity
  8
Shape049
100
AcDbLine
 10
-3731.12
 20
-1271.94
 30
0
 11
-3731.12
 21
-915.579
 31
0
  0
LINE
  5
A3A
330
A02
100
AcDbEntity
  8
Shape050
100
AcDbLine
 10
-3720.45
 20
-1880.78
 30
0
 11
-3720.45
 21
-2237.14
 31
0
  0
LINE
  5
A3B
330
A02
100
AcDbEntity
  8
Shape051
100
AcDbLine
 10
-3615.29
 20
-1754.54
 30
0
 11
-3615.29
 21
-1398.18
 31
0
  0
LINE
  5
A3C
330
A02
100
AcDbEntity
  8
Shape052
100
AcDbLine
 10
-3604.88
 20
-915.579
 30
0
 11
-3604.88
 21
-1271.94
 31
0
  0
LINE
  5
A3D
330
A02
100
AcDbEntity
  8
Shape053
100
AcDbLine
 10
-3547.22
 20
-2363.38
 30
0
 11
-3547.22
 21
-2719.74
 31
0
  0
LINE
  5
A3E
330
A02
100
AcDbEntity
  8
Shape054
100
AcDbLine
 10
-3510.14
 20
-174.661
 30
0
 11
-3510.14
 21
181.701
 31
0
  0
LINE
  5
A3F
330
A02
100
AcDbEntity
  8
Shape055
100
AcDbLine
 10
-3489.82
 20
-789.341
 30
0
 11
-3489.82
 21
-432.979
 31
0
  0
LINE
  5
A40
330
A02
100
AcDbEntity
  8
Shape056
100
AcDbLine
 10
-3489.06
 20
-1398.18
 30
0
 11
-3489.06
 21
-1754.54
 31
0
  0
LINE
  5
A41
330
A02
100
AcDbEntity
  8
Shape057
100
AcDbLine
 10
-3383.9
 20
181.701
 30
0
 11
-3383.9
 21
-174.661
 31
0
  0
LINE
  5
A42
330
A02
100
AcDbEntity
  8
Shape058
100
AcDbLine
 10
-3364.09
 20
-2237.14
 30
0
 11
-3364.09
 21
-1880.78
 31
0
  0
LINE
  5
A43
330
A02
100
AcDbEntity
  8
Shape059
100
AcDbLine
 10
-3363.58
 20
-432.979
 30
0
 11
-3363.58
 21
-789.341
 31
0
  0
LINE
  5
A44
330
A02
100
AcDbEntity
  8
Shape060
100
AcDbLine
 10
-3248.52
 20
-1271.94
 30
0
 11
-3248.52
 21
-915.579
 31
0
  0
LINE
  5
A45
330
A02
100
AcDbEntity
  8
Shape061
100
AcDbLine
 10
-3237.85
 20
-1880.78
 30
0
 11
-3237.85
 21
-2237.14
 31
0
  0
LINE
  5
A46
330
A02
100
AcDbEntity
  8
Shape062
100
AcDbLine
 10
-3190.86
 20
-2719.74
 30
0
 11
-3190.86
 21
-2363.38
 31
0
  0
LINE
  5
A47
330
A02
100
AcDbEntity
  8
Shape063
100
AcDbLine
 10
-3132.69
 20
-1754.54
 30
0
 11
-3132.69
 21
-1398.18
 31
0
  0
LINE
  5
A48
330
A02
100
AcDbEntity
  8
Shape064
100
AcDbLine
 10
-3122.28
 20
-915.579
 30
0
 11
-3122.28
 21
-1271.94
 31
0
  0
LINE
  5
A49
330
A02
100
AcDbEntity
  8
Shape065
100
AcDbLine
 10
-3027.54
 20
-174.661
 30
0
 11
-3027.54
 21
181.701
 31
0
  0
LINE
  5
A4A
330
A02
100
AcDbEntity
  8
Shape066
100
AcDbLine
 10
-3007.22
 20
-789.341
 30
0
 11
-3007.22
 21
-432.979
 31
0
  0
LINE
  5
A4B
330
A02
100
AcDbEntity
  8
Shape067
100
AcDbLine
 10
-3006.46
 20
-1398.18
 30
0
 11
-3006.46
 21
-1754.54
 31
0
  0
LINE
  5
A4C
330
A02
100
AcDbEntity
  8
Shape068
100
AcDbLine
 10
-2927.84
 20
-2693.96
 30
0
 11
-2927.84
 21
-2363.76
 31
0
  0
LINE
  5
A4D
330
A02
100
AcDbEntity
  8
Shape069
100
AcDbLine
 10
-2901.3
 20
181.701
 30
0
 11
-2901.3
 21
-174.661
 31
0
  0
LINE
  5
A4E
330
A02
100
AcDbEntity
  8
Shape070
100
AcDbLine
 10
-2881.49
 20
-2237.14
 30
0
 11
-2881.49
 21
-1880.78
 31
0
  0
LINE
  5
A4F
330
A02
100
AcDbEntity
  8
Shape071
100
AcDbLine
 10
-2880.98
 20
-432.979
 30
0
 11
-2880.98
 21
-789.341
 31
0
  0
LINE
  5
A50
330
A02
100
AcDbEntity
  8
Shape072
100
AcDbLine
 10
-2765.92
 20
-1271.94
 30
0
 11
-2765.92
 21
-915.579
 31
0
  0
LINE
  5
A51
330
A02
100
AcDbEntity
  8
Shape073
100
AcDbLine
 10
-2755.25
 20
-1880.78
 30
0
 11
-2755.25
 21
-2237.14
 31
0
  0
LINE
  5
A52
330
A02
100
AcDbEntity
  8
Shape074
100
AcDbLine
 10
-2732.26
 20
-2363.76
 30
0
 11
-2732.26
 21
-2693.96
 31
0
  0
LINE
  5
A53
330
A02
100
AcDbEntity
  8
Shape075
100
AcDbLine
 10
-2650.09
 20
-1754.54
 30
0
 11
-2650.09
 21
-1398.18
 31
0
  0
LINE
  5
A54
330
A02
100
AcDbEntity
  8
Shape076
100
AcDbLine
 10
-2639.68
 20
-915.579
 30
0
 11
-2639.68
 21
-1271.94
 31
0
  0
LINE
  5
A55
330
A02
100
AcDbEntity
  8
Shape077
100
AcDbLine
 10
-2544.94
 20
-174.661
 30
0
 11
-2544.94
 21
181.701
 31
0
  0
LINE
  5
A56
330
A02
100
AcDbEntity
  8
Shape078
100
AcDbLine
 10
-2524.62
 20
-789.341
 30
0
 11
-2524.62
 21
-432.979
 31
0
  0
LINE
  5
A57
330
A02
100
AcDbEntity
  8
Shape079
100
AcDbLine
 10
-2523.86
 20
-1398.18
 30
0
 11
-2523.86
 21
-1754.54
 31
0
  0
LINE
  5
A58
330
A02
100
AcDbEntity
  8
Shape080
100
AcDbLine
 10
-2418.7
 20
181.701
 30
0
 11
-2418.7
 21
-174.661
 31
0
  0
LINE
  5
A59
330
A02
100
AcDbEntity
  8
Shape081
100
AcDbLine
 10
-2398.89
 20
-2237.14
 30
0
 11
-2398.89
 21
-1880.78
 31
0
  0
LINE
  5
A5A
330
A02
100
AcDbEntity
  8
Shape082
100
AcDbLine
 10
-2398.38
 20
-432.979
 30
0
 11
-2398.38
 21
-789.341
 31
0
  0
LINE
  5
A5B
330
A02
100
AcDbEntity
  8
Shape083
100
AcDbLine
 10
-2283.32
 20
-1271.94
 30
0
 11
-2283.32
 21
-915.579
 31
0
  0
LINE
  5
A5C
330
A02
100
AcDbEntity
  8
Shape084
100
AcDbLine
 10
-2272.65
 20
-1880.78
 30
0
 11
-2272.65
 21
-2237.14
 31
0
  0
LINE
  5
A5D
330
A02
100
AcDbEntity
  8
Shape085
100
AcDbLine
 10
-2167.49
 20
-1754.54
 30
0
 11
-2167.49
 21
-1398.18
 31
0
  0
LINE
  5
A5E
330
A02
100
AcDbEntity
  8
Shape086
100
AcDbLine
 10
-2157.08
 20
-915.579
 30
0
 11
-2157.08
 21
-1271.94
 31
0
  0
LINE
  5
A5F
330
A02
100
AcDbEntity
  8
Shape087
100
AcDbLine
 10
-2062.34
 20
-174.661
 30
0
 11
-2062.34
 21
181.701
 31
0
  0
LINE
  5
A60
330
A02
100
AcDbEntity
  8
Shape088
100
AcDbLine
 10
-2042.02
 20
-789.341
 30
0
 11
-2042.02
 21
-432.979
 31
0
  0
LINE
  5
A61
330
A02
100
AcDbEntity
  8
Shape089
100
AcDbLine
 10
-2041.26
 20
-1398.18
 30
0
 11
-2041.26
 21
-1754.54
 31
0
  0
LINE
  5
A62
330
A02
100
AcDbEntity
  8
Shape090
100
AcDbLine
 10
-4418.61
 20
-2926.37
 30
0
 11
-4325.9
 21
-2926.37
 31
0
  0
LINE
  5
A63
330
A02
100
AcDbEntity
  8
Shape091
100
AcDbLine
 10
-4275.1
 20
-2926.37
 30
0
 11
-4156.99
 21
-2926.37
 31
0
  0
LINE
  5
A64
330
A02
100
AcDbEntity
  8
Shape092
100
AcDbLine
 10
-4106.19
 20
-2926.37
 30
0
 11
-4013.48
 21
-2926.37
 31
0
  0
LINE
  5
A65
330
A02
100
AcDbEntity
  8
Shape096
100
AcDbLine
 10
582.653
 20
-2926.37
 30
0
 11
675.363
 21
-2926.37
 31
0
  0
LINE
  5
A66
330
A02
100
AcDbEntity
  8
Shape097
100
AcDbLine
 10
726.163
 20
-2926.37
 30
0
 11
844.273
 21
-2926.37
 31
0
  0
LINE
  5
A67
330
A02
100
AcDbEntity
  8
Shape098
100
AcDbLine
 10
895.073
 20
-2926.37
 30
0
 11
987.783
 21
-2926.37
 31
0
  0
LINE
  5
A68
330
A02
100
AcDbEntity
  8
Shape099
100
AcDbLine
 10
3083.28
 20
-2926.37
 30
0
 11
3175.99
 21
-2926.37
 31
0
  0
LINE
  5
A69
330
A02
100
AcDbEntity
  8
Shape100
100
AcDbLine
 10
3226.79
 20
-2926.37
 30
0
 11
3344.9
 21
-2926.37
 31
0
  0
LINE
  5
A6A
330
A02
100
AcDbEntity
  8
Shape101
100
AcDbLine
 10
3395.7
 20
-2926.37
 30
0
 11
3488.41
 21
-2926.37
 31
0
  0
LINE
  5
A6B
330
A02
100
AcDbEntity
  8
Shape102
100
AcDbLine
 10
-4929.15
 20
-2862.87
 30
0
 11
-4494.81
 21
-2862.87
 31
0
  0
LINE
  5
A6C
330
A02
100
AcDbEntity
  8
Shape105
100
AcDbLine
 10
1063.98
 20
-2862.87
 30
0
 11
3007.08
 21
-2862.87
 31
0
  0
LINE
  5
A6D
330
A02
100
AcDbEntity
  8
Shape106
100
AcDbLine
 10
3564.61
 20
-2862.87
 30
0
 11
3998.95
 21
-2862.87
 31
0
  0
LINE
  5
A6E
330
A02
100
AcDbEntity
  8
Shape108
100
AcDbLine
 10
-1994.18
 20
296.886
 30
0
 11
-1994.18
 21
324.826
 31
0
  0
LINE
  5
A6F
330
A02
100
AcDbEntity
  8
Shape110
100
AcDbLine
 10
-1943.38
 20
296.886
 30
0
 11
-1943.38
 21
362.926
 31
0
  0
LINE
  5
A70
330
A02
100
AcDbEntity
  8
Shape111
100
AcDbLine
 10
-1916.29
 20
-2237.14
 30
0
 11
-1916.29
 21
-1880.78
 31
0
  0
LINE
  5
A71
330
A02
100
AcDbEntity
  8
Shape112
100
AcDbLine
 10
-1915.78
 20
-432.979
 30
0
 11
-1915.78
 21
-789.341
 31
0
  0
LINE
  5
A72
330
A02
100
AcDbEntity
  8
Shape113
100
AcDbLine
 10
-1825.27
 20
388.326
 30
0
 11
-1825.27
 21
296.886
 31
0
  0
LINE
  5
A73
330
A02
100
AcDbEntity
  8
Shape115
100
AcDbLine
 10
-1800.72
 20
-1271.94
 30
0
 11
-1800.72
 21
-915.579
 31
0
  0
LINE
  5
A74
330
A02
100
AcDbEntity
  8
Shape116
100
AcDbLine
 10
-1790.05
 20
-1880.78
 30
0
 11
-1790.05
 21
-2237.14
 31
0
  0
LINE
  5
A75
330
A02
100
AcDbEntity
  8
Shape118
100
AcDbLine
 10
-1774.47
 20
296.886
 30
0
 11
-1774.47
 21
388.326
 31
0
  0
LINE
  5
A76
330
A02
100
AcDbEntity
  8
Shape119
100
AcDbLine
 10
-1734.8
 20
-2363.38
 30
0
 11
-1734.8
 21
-2719.74
 31
0
  0
LINE
  5
A77
330
A02
100
AcDbEntity
  8
Shape132
100
AcDbLine
 10
-4751.18
 20
-2719.74
 30
0
 11
-4394.82
 21
-2719.74
 31
0
  0
LINE
  5
A78
330
A02
100
AcDbEntity
  8
Shape133
100
AcDbLine
 10
-4149.2
 20
-2719.74
 30
0
 11
-3792.84
 21
-2719.74
 31
0
  0
LINE
  5
A79
330
A02
100
AcDbEntity
  8
Shape134
100
AcDbLine
 10
-3547.22
 20
-2719.74
 30
0
 11
-3190.86
 21
-2719.74
 31
0
  0
LINE
  5
A7A
330
A02
100
AcDbEntity
  8
Shape135
100
AcDbLine
 10
-1734.8
 20
-2719.74
 30
0
 11
-1378.44
 21
-2719.74
 31
0
  0
LINE
  5
A7B
330
A02
100
AcDbEntity
  8
Shape136
100
AcDbLine
 10
77.3586
 20
-2719.74
 30
0
 11
433.721
 21
-2719.74
 31
0
  0
LINE
  5
A7C
330
A02
100
AcDbEntity
  8
Shape137
100
AcDbLine
 10
679.339
 20
-2719.74
 30
0
 11
1035.7
 21
-2719.74
 31
0
  0
LINE
  5
A7D
330
A02
100
AcDbEntity
  8
Shape138
100
AcDbLine
 10
1281.32
 20
-2719.74
 30
0
 11
1637.68
 21
-2719.74
 31
0
  0
LINE
  5
A7E
330
A02
100
AcDbEntity
  8
Shape139
100
AcDbLine
 10
1884.57
 20
-2719.74
 30
0
 11
2240.93
 21
-2719.74
 31
0
  0
LINE
  5
A7F
330
A02
100
AcDbEntity
  8
Shape140
100
AcDbLine
 10
2559.7
 20
-2719.74
 30
0
 11
2916.06
 21
-2719.74
 31
0
  0
LINE
  5
A80
330
A02
100
AcDbEntity
  8
Shape141
100
AcDbLine
 10
3042.3
 20
-2719.74
 30
0
 11
3398.66
 21
-2719.74
 31
0
  0
LINE
  5
A81
330
A02
100
AcDbEntity
  8
Shape142
100
AcDbLine
 10
3524.9
 20
-2719.74
 30
0
 11
3881.26
 21
-2719.74
 31
0
  0
LINE
  5
A82
330
A02
100
AcDbEntity
  8
Shape143
100
AcDbLine
 10
-188.833
 20
-2693.96
 30
0
 11
-384.413
 21
-2693.96
 31
0
  0
LINE
  5
A83
330
A02
100
AcDbEntity
  8
Shape144
100
AcDbLine
 10
-2732.26
 20
-2693.96
 30
0
 11
-2927.84
 21
-2693.96
 31
0
  0
LINE
  5
A84
330
A02
100
AcDbEntity
  8
Shape145
100
AcDbLine
 10
-1684.89
 20
-1754.54
 30
0
 11
-1684.89
 21
-1398.18
 31
0
  0
LINE
  5
A85
330
A02
100
AcDbEntity
  8
Shape146
100
AcDbLine
 10
-1684.64
 20
181.701
 30
0
 11
-1684.64
 21
-174.661
 31
0
  0
LINE
  5
A86
330
A02
100
AcDbEntity
  8
Shape147
100
AcDbLine
 10
-1674.48
 20
-915.579
 30
0
 11
-1674.48
 21
-1271.94
 31
0
  0
LINE
  5
A87
330
A02
100
AcDbEntity
  8
Shape148
100
AcDbLine
 10
-1656.36
 20
388.326
 30
0
 11
-1656.36
 21
296.886
 31
0
  0
LINE
  5
A88
330
A02
100
AcDbEntity
  8
Shape151
100
AcDbLine
 10
-1605.56
 20
296.886
 30
0
 11
-1605.56
 21
388.326
 31
0
  0
LINE
  5
A89
330
A02
100
AcDbEntity
  8
Shape152
100
AcDbLine
 10
-1559.42
 20
-789.341
 30
0
 11
-1559.42
 21
-432.979
 31
0
  0
LINE
  5
A8A
330
A02
100
AcDbEntity
  8
Shape153
100
AcDbLine
 10
-1558.66
 20
-1398.18
 30
0
 11
-1558.66
 21
-1754.54
 31
0
  0
LINE
  5
A8B
330
A02
100
AcDbEntity
  8
Shape154
100
AcDbLine
 10
-1487.45
 20
362.926
 30
0
 11
-1487.45
 21
296.886
 31
0
  0
LINE
  5
A8C
330
A02
100
AcDbEntity
  8
Shape157
100
AcDbLine
 10
-1436.65
 20
296.886
 30
0
 11
-1436.65
 21
324.826
 31
0
  0
LINE
  5
A8D
330
A02
100
AcDbEntity
  8
Shape158
100
AcDbLine
 10
-1433.69
 20
-2237.14
 30
0
 11
-1433.69
 21
-1880.78
 31
0
  0
LINE
  5
A8E
330
A02
100
AcDbEntity
  8
Shape159
100
AcDbLine
 10
-1433.18
 20
-432.979
 30
0
 11
-1433.18
 21
-789.341
 31
0
  0
LINE
  5
A8F
330
A02
100
AcDbEntity
  8
Shape160
100
AcDbLine
 10
-2927.84
 20
-2363.76
 30
0
 11
-2732.26
 21
-2363.76
 31
0
  0
LINE
  5
A90
330
A02
100
AcDbEntity
  8
Shape161
100
AcDbLine
 10
-384.413
 20
-2363.76
 30
0
 11
-188.833
 21
-2363.76
 31
0
  0
LINE
  5
A91
330
A02
100
AcDbEntity
  8
Shape162
100
AcDbLine
 10
-1378.44
 20
-2363.38
 30
0
 11
-1734.8
 21
-2363.38
 31
0
  0
LINE
  5
A92
330
A02
100
AcDbEntity
  8
Shape163
100
AcDbLine
 10
3881.26
 20
-2363.38
 30
0
 11
3524.9
 21
-2363.38
 31
0
  0
LINE
  5
A93
330
A02
100
AcDbEntity
  8
Shape164
100
AcDbLine
 10
3398.66
 20
-2363.38
 30
0
 11
3042.3
 21
-2363.38
 31
0
  0
LINE
  5
A94
330
A02
100
AcDbEntity
  8
Shape165
100
AcDbLine
 10
2916.06
 20
-2363.38
 30
0
 11
2559.7
 21
-2363.38
 31
0
  0
LINE
  5
A95
330
A02
100
AcDbEntity
  8
Shape166
100
AcDbLine
 10
2240.93
 20
-2363.38
 30
0
 11
1884.57
 21
-2363.38
 31
0
  0
LINE
  5
A96
330
A02
100
AcDbEntity
  8
Shape167
100
AcDbLine
 10
1637.68
 20
-2363.38
 30
0
 11
1281.32
 21
-2363.38
 31
0
  0
LINE
  5
A97
330
A02
100
AcDbEntity
  8
Shape168
100
AcDbLine
 10
1035.7
 20
-2363.38
 30
0
 11
679.339
 21
-2363.38
 31
0
  0
LINE
  5
A98
330
A02
100
AcDbEntity
  8
Shape169
100
AcDbLine
 10
433.721
 20
-2363.38
 30
0
 11
77.3586
 21
-2363.38
 31
0
  0
LINE
  5
A99
330
A02
100
AcDbEntity
  8
Shape170
100
AcDbLine
 10
-3190.86
 20
-2363.38
 30
0
 11
-3547.22
 21
-2363.38
 31
0
  0
LINE
  5
A9A
330
A02
100
AcDbEntity
  8
Shape171
100
AcDbLine
 10
-3792.84
 20
-2363.38
 30
0
 11
-4149.2
 21
-2363.38
 31
0
  0
LINE
  5
A9B
330
A02
100
AcDbEntity
  8
Shape172
100
AcDbLine
 10
-4394.82
 20
-2363.38
 30
0
 11
-4751.18
 21
-2363.38
 31
0
  0
LINE
  5
A9C
330
A02
100
AcDbEntity
  8
Shape177
100
AcDbLine
 10
-4926.61
 20
-2315.5
 30
0
 11
-4954.55
 21
-2315.5
 31
0
  0
LINE
  5
A9D
330
A02
100
AcDbEntity
  8
Shape178
100
AcDbLine
 10
3996.41
 20
-2315.5
 30
0
 11
4024.35
 21
-2315.5
 31
0
  0
LINE
  5
A9E
330
A02
100
AcDbEntity
  8
Shape183
100
AcDbLine
 10
4062.45
 20
-2264.7
 30
0
 11
3996.41
 21
-2264.7
 31
0
  0
LINE
  5
A9F
330
A02
100
AcDbEntity
  8
Shape184
100
AcDbLine
 10
-4926.61
 20
-2264.7
 30
0
 11
-4992.65
 21
-2264.7
 31
0
  0
LINE
  5
AA0
330
A02
100
AcDbEntity
  8
Shape185
100
AcDbLine
 10
-4507.21
 20
-2238.16
 30
0
 11
-4150.85
 21
-2238.16
 31
0
  0
LINE
  5
AA1
330
A02
100
AcDbEntity
  8
Shape186
100
AcDbLine
 10
-3720.45
 20
-2237.14
 30
0
 11
-3364.09
 21
-2237.14
 31
0
  0
LINE
  5
AA2
330
A02
100
AcDbEntity
  8
Shape187
100
AcDbLine
 10
-3237.85
 20
-2237.14
 30
0
 11
-2881.49
 21
-2237.14
 31
0
  0
LINE
  5
AA3
330
A02
100
AcDbEntity
  8
Shape188
100
AcDbLine
 10
-2755.25
 20
-2237.14
 30
0
 11
-2398.89
 21
-2237.14
 31
0
  0
LINE
  5
AA4
330
A02
100
AcDbEntity
  8
Shape189
100
AcDbLine
 10
-2272.65
 20
-2237.14
 30
0
 11
-1916.29
 21
-2237.14
 31
0
  0
LINE
  5
AA5
330
A02
100
AcDbEntity
  8
Shape190
100
AcDbLine
 10
-1790.05
 20
-2237.14
 30
0
 11
-1433.69
 21
-2237.14
 31
0
  0
LINE
  5
AA6
330
A02
100
AcDbEntity
  8
Shape191
100
AcDbLine
 10
-1307.45
 20
-2237.14
 30
0
 11
-951.087
 21
-2237.14
 31
0
  0
LINE
  5
AA7
330
A02
100
AcDbEntity
  8
Shape192
100
AcDbLine
 10
-824.849
 20
-2237.14
 30
0
 11
-468.487
 21
-2237.14
 31
0
  0
LINE
  5
AA8
330
A02
100
AcDbEntity
  8
Shape193
100
AcDbLine
 10
-342.249
 20
-2237.14
 30
0
 11
14.1126
 21
-2237.14
 31
0
  0
LINE
  5
AA9
330
A02
100
AcDbEntity
  8
Shape194
100
AcDbLine
 10
140.351
 20
-2237.14
 30
0
 11
496.713
 21
-2237.14
 31
0
  0
LINE
  5
AAA
330
A02
100
AcDbEntity
  8
Shape195
100
AcDbLine
 10
622.951
 20
-2237.14
 30
0
 11
979.313
 21
-2237.14
 31
0
  0
LINE
  5
AAB
330
A02
100
AcDbEntity
  8
Shape196
100
AcDbLine
 10
1525.29
 20
-2237.14
 30
0
 11
1881.65
 21
-2237.14
 31
0
  0
LINE
  5
AAC
330
A02
100
AcDbEntity
  8
Shape197
100
AcDbLine
 10
3042.3
 20
-2237.14
 30
0
 11
3398.66
 21
-2237.14
 31
0
  0
LINE
  5
AAD
330
A02
100
AcDbEntity
  8
Shape198
100
AcDbLine
 10
2106.06
 20
-2236.76
 30
0
 11
1910.48
 21
-2236.76
 31
0
  0
LINE
  5
AAE
330
A02
100
AcDbEntity
  8
Shape199
100
AcDbLine
 10
1496.46
 20
-2236.76
 30
0
 11
1300.88
 21
-2236.76
 31
0
  0
LINE
  5
AAF
330
A02
100
AcDbEntity
  8
Shape200
100
AcDbLine
 10
-3926.44
 20
-2212.38
 30
0
 11
-4122.02
 21
-2212.38
 31
0
  0
LINE
  5
AB0
330
A02
100
AcDbEntity
  8
Shape201
100
AcDbLine
 10
-4536.04
 20
-2212.38
 30
0
 11
-4731.62
 21
-2212.38
 31
0
  0
LINE
  5
AB1
330
A02
100
AcDbEntity
  8
Shape202
100
AcDbLine
 10
-1378.44
 20
-2719.74
 30
0
 11
-1378.44
 21
-2363.38
 31
0
  0
LINE
  5
AB2
330
A02
100
AcDbEntity
  8
Shape203
100
AcDbLine
 10
-1328.28
 20
-174.661
 30
0
 11
-1328.28
 21
181.701
 31
0
  0
LINE
  5
AB3
330
A02
100
AcDbEntity
  8
Shape204
100
AcDbLine
 10
-1318.12
 20
-1271.94
 30
0
 11
-1318.12
 21
-915.579
 31
0
  0
LINE
  5
AB4
330
A02
100
AcDbEntity
  8
Shape205
100
AcDbLine
 10
-1307.45
 20
-1880.78
 30
0
 11
-1307.45
 21
-2237.14
 31
0
  0
LINE
  5
AB5
330
A02
100
AcDbEntity
  8
Shape206
100
AcDbLine
 10
-1202.29
 20
-1754.54
 30
0
 11
-1202.29
 21
-1398.18
 31
0
  0
LINE
  5
AB6
330
A02
100
AcDbEntity
  8
Shape207
100
AcDbLine
 10
-1202.04
 20
181.701
 30
0
 11
-1202.04
 21
-174.661
 31
0
  0
LINE
  5
AB7
330
A02
100
AcDbEntity
  8
Shape208
100
AcDbLine
 10
-1191.88
 20
-915.579
 30
0
 11
-1191.88
 21
-1271.94
 31
0
  0
LINE
  5
AB8
330
A02
100
AcDbEntity
  8
Shape209
100
AcDbLine
 10
-1076.82
 20
-789.341
 30
0
 11
-1076.82
 21
-432.979
 31
0
  0
LINE
  5
AB9
330
A02
100
AcDbEntity
  8
Shape210
100
AcDbLine
 10
-1076.06
 20
-1398.18
 30
0
 11
-1076.06
 21
-1754.54
 31
0
  0
LINE
  5
ABA
330
A02
100
AcDbEntity
  8
Shape211
100
AcDbLine
 10
-5018.05
 20
-2142.78
 30
0
 11
-4926.61
 21
-2142.78
 31
0
  0
LINE
  5
ABB
330
A02
100
AcDbEntity
  8
Shape212
100
AcDbLine
 10
3996.41
 20
-2142.78
 30
0
 11
4087.85
 21
-2142.78
 31
0
  0
LINE
  5
ABC
330
A02
100
AcDbEntity
  8
Shape213
100
AcDbLine
 10
4087.85
 20
-2091.98
 30
0
 11
3996.41
 21
-2091.98
 31
0
  0
LINE
  5
ABD
330
A02
100
AcDbEntity
  8
Shape214
100
AcDbLine
 10
-4926.61
 20
-2091.98
 30
0
 11
-5018.05
 21
-2091.98
 31
0
  0
LINE
  5
ABE
330
A02
100
AcDbEntity
  8
Shape215
100
AcDbLine
 10
-5018.05
 20
-1970.06
 30
0
 11
-4926.61
 21
-1970.06
 31
0
  0
LINE
  5
ABF
330
A02
100
AcDbEntity
  8
Shape216
100
AcDbLine
 10
3996.41
 20
-1970.06
 30
0
 11
4087.85
 21
-1970.06
 31
0
  0
LINE
  5
AC0
330
A02
100
AcDbEntity
  8
Shape217
100
AcDbLine
 10
4087.85
 20
-1919.26
 30
0
 11
3996.41
 21
-1919.26
 31
0
  0
LINE
  5
AC1
330
A02
100
AcDbEntity
  8
Shape218
100
AcDbLine
 10
-4926.61
 20
-1919.26
 30
0
 11
-5018.05
 21
-1919.26
 31
0
  0
LINE
  5
AC2
330
A02
100
AcDbEntity
  8
Shape219
100
AcDbLine
 10
1300.88
 20
-1906.56
 30
0
 11
1496.46
 21
-1906.56
 31
0
  0
LINE
  5
AC3
330
A02
100
AcDbEntity
  8
Shape220
100
AcDbLine
 10
1910.48
 20
-1906.56
 30
0
 11
2106.06
 21
-1906.56
 31
0
  0
LINE
  5
AC4
330
A02
100
AcDbEntity
  8
Shape221
100
AcDbLine
 10
-4731.62
 20
-1882.18
 30
0
 11
-4536.04
 21
-1882.18
 31
0
  0
LINE
  5
AC5
330
A02
100
AcDbEntity
  8
Shape222
100
AcDbLine
 10
-4122.02
 20
-1882.18
 30
0
 11
-3926.44
 21
-1882.18
 31
0
  0
LINE
  5
AC6
330
A02
100
AcDbEntity
  8
Shape223
100
AcDbLine
 10
-4150.85
 20
-1881.8
 30
0
 11
-4507.21
 21
-1881.8
 31
0
  0
LINE
  5
AC7
330
A02
100
AcDbEntity
  8
Shape224
100
AcDbLine
 10
3398.66
 20
-1880.78
 30
0
 11
3042.3
 21
-1880.78
 31
0
  0
LINE
  5
AC8
330
A02
100
AcDbEntity
  8
Shape225
100
AcDbLine
 10
1881.65
 20
-1880.78
 30
0
 11
1525.29
 21
-1880.78
 31
0
  0
LINE
  5
AC9
330
A02
100
AcDbEntity
  8
Shape226
100
AcDbLine
 10
979.313
 20
-1880.78
 30
0
 11
622.951
 21
-1880.78
 31
0
  0
LINE
  5
ACA
330
A02
100
AcDbEntity
  8
Shape227
100
AcDbLine
 10
496.713
 20
-1880.78
 30
0
 11
140.351
 21
-1880.78
 31
0
  0
LINE
  5
ACB
330
A02
100
AcDbEntity
  8
Shape228
100
AcDbLine
 10
14.1126
 20
-1880.78
 30
0
 11
-342.249
 21
-1880.78
 31
0
  0
LINE
  5
ACC
330
A02
100
AcDbEntity
  8
Shape229
100
AcDbLine
 10
-468.487
 20
-1880.78
 30
0
 11
-824.849
 21
-1880.78
 31
0
  0
LINE
  5
ACD
330
A02
100
AcDbEntity
  8
Shape230
100
AcDbLine
 10
-951.087
 20
-1880.78
 30
0
 11
-1307.45
 21
-1880.78
 31
0
  0
LINE
  5
ACE
330
A02
100
AcDbEntity
  8
Shape231
100
AcDbLine
 10
-1433.69
 20
-1880.78
 30
0
 11
-1790.05
 21
-1880.78
 31
0
  0
LINE
  5
ACF
330
A02
100
AcDbEntity
  8
Shape232
100
AcDbLine
 10
-1916.29
 20
-1880.78
 30
0
 11
-2272.65
 21
-1880.78
 31
0
  0
LINE
  5
AD0
330
A02
100
AcDbEntity
  8
Shape233
100
AcDbLine
 10
-2398.89
 20
-1880.78
 30
0
 11
-2755.25
 21
-1880.78
 31
0
  0
LINE
  5
AD1
330
A02
100
AcDbEntity
  8
Shape234
100
AcDbLine
 10
-2881.49
 20
-1880.78
 30
0
 11
-3237.85
 21
-1880.78
 31
0
  0
LINE
  5
AD2
330
A02
100
AcDbEntity
  8
Shape235
100
AcDbLine
 10
-3364.09
 20
-1880.78
 30
0
 11
-3720.45
 21
-1880.78
 31
0
  0
LINE
  5
AD3
330
A02
100
AcDbEntity
  8
Shape236
100
AcDbLine
 10
-951.087
 20
-2237.14
 30
0
 11
-951.087
 21
-1880.78
 31
0
  0
LINE
  5
AD4
330
A02
100
AcDbEntity
  8
Shape237
100
AcDbLine
 10
-950.579
 20
-432.979
 30
0
 11
-950.579
 21
-789.341
 31
0
  0
LINE
  5
AD5
330
A02
100
AcDbEntity
  8
Shape238
100
AcDbLine
 10
-845.677
 20
-174.661
 30
0
 11
-845.677
 21
181.701
 31
0
  0
LINE
  5
AD6
330
A02
100
AcDbEntity
  8
Shape239
100
AcDbLine
 10
-835.517
 20
-1271.94
 30
0
 11
-835.517
 21
-915.579
 31
0
  0
LINE
  5
AD7
330
A02
100
AcDbEntity
  8
Shape240
100
AcDbLine
 10
-824.849
 20
-1880.78
 30
0
 11
-824.849
 21
-2237.14
 31
0
  0
LINE
  5
AD8
330
A02
100
AcDbEntity
  8
Shape247
100
AcDbLine
 10
-4992.65
 20
-1797.34
 30
0
 11
-4926.61
 21
-1797.34
 31
0
  0
LINE
  5
AD9
330
A02
100
AcDbEntity
  8
Shape248
100
AcDbLine
 10
3996.41
 20
-1797.34
 30
0
 11
4062.45
 21
-1797.34
 31
0
  0
LINE
  5
ADA
330
A02
100
AcDbEntity
  8
Shape249
100
AcDbLine
 10
1640.86
 20
-1754.54
 30
0
 11
1997.22
 21
-1754.54
 31
0
  0
LINE
  5
ADB
330
A02
100
AcDbEntity
  8
Shape250
100
AcDbLine
 10
-4632.82
 20
-1754.54
 30
0
 11
-4276.46
 21
-1754.54
 31
0
  0
LINE
  5
ADC
330
A02
100
AcDbEntity
  8
Shape251
100
AcDbLine
 10
-3971.66
 20
-1754.54
 30
0
 11
-3615.29
 21
-1754.54
 31
0
  0
LINE
  5
ADD
330
A02
100
AcDbEntity
  8
Shape252
100
AcDbLine
 10
-3489.06
 20
-1754.54
 30
0
 11
-3132.69
 21
-1754.54
 31
0
  0
LINE
  5
ADE
330
A02
100
AcDbEntity
  8
Shape253
100
AcDbLine
 10
-3006.46
 20
-1754.54
 30
0
 11
-2650.09
 21
-1754.54
 31
0
  0
LINE
  5
ADF
330
A02
100
AcDbEntity
  8
Shape254
100
AcDbLine
 10
-2523.86
 20
-1754.54
 30
0
 11
-2167.49
 21
-1754.54
 31
0
  0
LINE
  5
AE0
330
A02
100
AcDbEntity
  8
Shape255
100
AcDbLine
 10
-2041.26
 20
-1754.54
 30
0
 11
-1684.89
 21
-1754.54
 31
0
  0
LINE
  5
AE1
330
A02
100
AcDbEntity
  8
Shape256
100
AcDbLine
 10
-1558.66
 20
-1754.54
 30
0
 11
-1202.29
 21
-1754.54
 31
0
  0
LINE
  5
AE2
330
A02
100
AcDbEntity
  8
Shape257
100
AcDbLine
 10
-1076.06
 20
-1754.54
 30
0
 11
-719.693
 21
-1754.54
 31
0
  0
LINE
  5
AE3
330
A02
100
AcDbEntity
  8
Shape258
100
AcDbLine
 10
-593.455
 20
-1754.54
 30
0
 11
-237.093
 21
-1754.54
 31
0
  0
LINE
  5
AE4
330
A02
100
AcDbEntity
  8
Shape259
100
AcDbLine
 10
-110.855
 20
-1754.54
 30
0
 11
245.507
 21
-1754.54
 31
0
  0
LINE
  5
AE5
330
A02
100
AcDbEntity
  8
Shape260
100
AcDbLine
 10
371.745
 20
-1754.54
 30
0
 11
728.107
 21
-1754.54
 31
0
  0
LINE
  5
AE6
330
A02
100
AcDbEntity
  8
Shape261
100
AcDbLine
 10
854.345
 20
-1754.54
 30
0
 11
1210.71
 21
-1754.54
 31
0
  0
LINE
  5
AE7
330
A02
100
AcDbEntity
  8
Shape262
100
AcDbLine
 10
-4926.61
 20
-1746.54
 30
0
 11
-4954.55
 21
-1746.54
 31
0
  0
LINE
  5
AE8
330
A02
100
AcDbEntity
  8
Shape263
100
AcDbLine
 10
3996.41
 20
-1746.54
 30
0
 11
4024.35
 21
-1746.54
 31
0
  0
LINE
  5
AE9
330
A02
100
AcDbEntity
  8
Shape264
100
AcDbLine
 10
2221.63
 20
-1728.76
 30
0
 11
2026.05
 21
-1728.76
 31
0
  0
LINE
  5
AEA
330
A02
100
AcDbEntity
  8
Shape265
100
AcDbLine
 10
1612.03
 20
-1728.76
 30
0
 11
1416.45
 21
-1728.76
 31
0
  0
LINE
  5
AEB
330
A02
100
AcDbEntity
  8
Shape266
100
AcDbLine
 10
-719.693
 20
-1754.54
 30
0
 11
-719.693
 21
-1398.18
 31
0
  0
LINE
  5
AEC
330
A02
100
AcDbEntity
  8
Shape267
100
AcDbLine
 10
-719.439
 20
181.701
 30
0
 11
-719.439
 21
-174.661
 31
0
  0
LINE
  5
AED
330
A02
100
AcDbEntity
  8
Shape268
100
AcDbLine
 10
-709.279
 20
-915.579
 30
0
 11
-709.279
 21
-1271.94
 31
0
  0
LINE
  5
AEE
330
A02
100
AcDbEntity
  8
Shape269
100
AcDbLine
 10
-594.217
 20
-789.341
 30
0
 11
-594.217
 21
-432.979
 31
0
  0
LINE
  5
AEF
330
A02
100
AcDbEntity
  8
Shape270
100
AcDbLine
 10
-593.455
 20
-1398.18
 30
0
 11
-593.455
 21
-1754.54
 31
0
  0
LINE
  5
AF0
330
A02
100
AcDbEntity
  8
Shape271
100
AcDbLine
 10
-468.487
 20
-2237.14
 30
0
 11
-468.487
 21
-1880.78
 31
0
  0
LINE
  5
AF1
330
A02
100
AcDbEntity
  8
Shape272
100
AcDbLine
 10
-467.979
 20
-432.979
 30
0
 11
-467.979
 21
-789.341
 31
0
  0
LINE
  5
AF2
330
A02
100
AcDbEntity
  8
Shape273
100
AcDbLine
 10
1416.45
 20
-1398.56
 30
0
 11
1612.03
 21
-1398.56
 31
0
  0
LINE
  5
AF3
330
A02
100
AcDbEntity
  8
Shape274
100
AcDbLine
 10
2026.05
 20
-1398.56
 30
0
 11
2221.63
 21
-1398.56
 31
0
  0
LINE
  5
AF4
330
A02
100
AcDbEntity
  8
Shape275
100
AcDbLine
 10
1997.22
 20
-1398.18
 30
0
 11
1640.86
 21
-1398.18
 31
0
  0
LINE
  5
AF5
330
A02
100
AcDbEntity
  8
Shape276
100
AcDbLine
 10
1210.71
 20
-1398.18
 30
0
 11
854.345
 21
-1398.18
 31
0
  0
LINE
  5
AF6
330
A02
100
AcDbEntity
  8
Shape277
100
AcDbLine
 10
728.107
 20
-1398.18
 30
0
 11
371.745
 21
-1398.18
 31
0
  0
LINE
  5
AF7
330
A02
100
AcDbEntity
  8
Shape278
100
AcDbLine
 10
245.507
 20
-1398.18
 30
0
 11
-110.855
 21
-1398.18
 31
0
  0
LINE
  5
AF8
330
A02
100
AcDbEntity
  8
Shape279
100
AcDbLine
 10
-237.093
 20
-1398.18
 30
0
 11
-593.455
 21
-1398.18
 31
0
  0
LINE
  5
AF9
330
A02
100
AcDbEntity
  8
Shape280
100
AcDbLine
 10
-719.693
 20
-1398.18
 30
0
 11
-1076.06
 21
-1398.18
 31
0
  0
LINE
  5
AFA
330
A02
100
AcDbEntity
  8
Shape281
100
AcDbLine
 10
-1202.29
 20
-1398.18
 30
0
 11
-1558.66
 21
-1398.18
 31
0
  0
LINE
  5
AFB
330
A02
100
AcDbEntity
  8
Shape282
100
AcDbLine
 10
-1684.89
 20
-1398.18
 30
0
 11
-2041.26
 21
-1398.18
 31
0
  0
LINE
  5
AFC
330
A02
100
AcDbEntity
  8
Shape283
100
AcDbLine
 10
-2167.49
 20
-1398.18
 30
0
 11
-2523.86
 21
-1398.18
 31
0
  0
LINE
  5
AFD
330
A02
100
AcDbEntity
  8
Shape284
100
AcDbLine
 10
-2650.09
 20
-1398.18
 30
0
 11
-3006.46
 21
-1398.18
 31
0
  0
LINE
  5
AFE
330
A02
100
AcDbEntity
  8
Shape285
100
AcDbLine
 10
-3132.69
 20
-1398.18
 30
0
 11
-3489.06
 21
-1398.18
 31
0
  0
LINE
  5
AFF
330
A02
100
AcDbEntity
  8
Shape286
100
AcDbLine
 10
-3615.29
 20
-1398.18
 30
0
 11
-3971.66
 21
-1398.18
 31
0
  0
LINE
  5
B00
330
A02
100
AcDbEntity
  8
Shape287
100
AcDbLine
 10
-4276.46
 20
-1398.18
 30
0
 11
-4632.82
 21
-1398.18
 31
0
  0
LINE
  5
B01
330
A02
100
AcDbEntity
  8
Shape300
100
AcDbLine
 10
-4690.73
 20
-1271.94
 30
0
 11
-4334.37
 21
-1271.94
 31
0
  0
LINE
  5
B02
330
A02
100
AcDbEntity
  8
Shape301
100
AcDbLine
 10
-4087.48
 20
-1271.94
 30
0
 11
-3731.12
 21
-1271.94
 31
0
  0
LINE
  5
B03
330
A02
100
AcDbEntity
  8
Shape302
100
AcDbLine
 10
-3604.88
 20
-1271.94
 30
0
 11
-3248.52
 21
-1271.94
 31
0
  0
LINE
  5
B04
330
A02
100
AcDbEntity
  8
Shape303
100
AcDbLine
 10
-3122.28
 20
-1271.94
 30
0
 11
-2765.92
 21
-1271.94
 31
0
  0
LINE
  5
B05
330
A02
100
AcDbEntity
  8
Shape304
100
AcDbLine
 10
-2639.68
 20
-1271.94
 30
0
 11
-2283.32
 21
-1271.94
 31
0
  0
LINE
  5
B06
330
A02
100
AcDbEntity
  8
Shape305
100
AcDbLine
 10
-2157.08
 20
-1271.94
 30
0
 11
-1800.72
 21
-1271.94
 31
0
  0
LINE
  5
B07
330
A02
100
AcDbEntity
  8
Shape306
100
AcDbLine
 10
-1674.48
 20
-1271.94
 30
0
 11
-1318.12
 21
-1271.94
 31
0
  0
LINE
  5
B08
330
A02
100
AcDbEntity
  8
Shape307
100
AcDbLine
 10
-1191.88
 20
-1271.94
 30
0
 11
-835.517
 21
-1271.94
 31
0
  0
LINE
  5
B09
330
A02
100
AcDbEntity
  8
Shape308
100
AcDbLine
 10
-709.279
 20
-1271.94
 30
0
 11
-352.917
 21
-1271.94
 31
0
  0
LINE
  5
B0A
330
A02
100
AcDbEntity
  8
Shape309
100
AcDbLine
 10
-226.679
 20
-1271.94
 30
0
 11
129.683
 21
-1271.94
 31
0
  0
LINE
  5
B0B
330
A02
100
AcDbEntity
  8
Shape310
100
AcDbLine
 10
255.921
 20
-1271.94
 30
0
 11
612.283
 21
-1271.94
 31
0
  0
LINE
  5
B0C
330
A02
100
AcDbEntity
  8
Shape311
100
AcDbLine
 10
738.521
 20
-1271.94
 30
0
 11
1094.88
 21
-1271.94
 31
0
  0
LINE
  5
B0D
330
A02
100
AcDbEntity
  8
Shape312
100
AcDbLine
 10
1221.12
 20
-1271.94
 30
0
 11
1577.48
 21
-1271.94
 31
0
  0
LINE
  5
B0E
330
A02
100
AcDbEntity
  8
Shape313
100
AcDbLine
 10
1824.37
 20
-1271.94
 30
0
 11
2180.73
 21
-1271.94
 31
0
  0
LINE
  5
B0F
330
A02
100
AcDbEntity
  8
Shape314
100
AcDbLine
 10
2559.7
 20
-1271.94
 30
0
 11
2916.06
 21
-1271.94
 31
0
  0
LINE
  5
B10
330
A02
100
AcDbEntity
  8
Shape315
100
AcDbLine
 10
3042.3
 20
-1271.94
 30
0
 11
3398.66
 21
-1271.94
 31
0
  0
LINE
  5
B11
330
A02
100
AcDbEntity
  8
Shape316
100
AcDbLine
 10
3524.9
 20
-1271.94
 30
0
 11
3881.26
 21
-1271.94
 31
0
  0
LINE
  5
B12
330
A02
100
AcDbEntity
  8
Shape317
100
AcDbLine
 10
-384.413
 20
-2693.96
 30
0
 11
-384.413
 21
-2363.76
 31
0
  0
LINE
  5
B13
330
A02
100
AcDbEntity
  8
Shape318
100
AcDbLine
 10
-363.077
 20
-174.661
 30
0
 11
-363.077
 21
181.701
 31
0
  0
LINE
  5
B14
330
A02
100
AcDbEntity
  8
Shape319
100
AcDbLine
 10
-352.917
 20
-1271.94
 30
0
 11
-352.917
 21
-915.579
 31
0
  0
LINE
  5
B15
330
A02
100
AcDbEntity
  8
Shape320
100
AcDbLine
 10
-342.249
 20
-1880.78
 30
0
 11
-342.249
 21
-2237.14
 31
0
  0
LINE
  5
B16
330
A02
100
AcDbEntity
  8
Shape321
100
AcDbLine
 10
-237.093
 20
-1754.54
 30
0
 11
-237.093
 21
-1398.18
 31
0
  0
LINE
  5
B17
330
A02
100
AcDbEntity
  8
Shape322
100
AcDbLine
 10
-236.839
 20
181.701
 30
0
 11
-236.839
 21
-174.661
 31
0
  0
LINE
  5
B18
330
A02
100
AcDbEntity
  8
Shape323
100
AcDbLine
 10
-226.679
 20
-915.579
 30
0
 11
-226.679
 21
-1271.94
 31
0
  0
LINE
  5
B19
330
A02
100
AcDbEntity
  8
Shape324
100
AcDbLine
 10
-188.833
 20
-2363.76
 30
0
 11
-188.833
 21
-2693.96
 31
0
  0
LINE
  5
B1A
330
A02
100
AcDbEntity
  8
Shape325
100
AcDbLine
 10
-111.617
 20
-789.341
 30
0
 11
-111.617
 21
-432.979
 31
0
  0
LINE
  5
B1B
330
A02
100
AcDbEntity
  8
Shape326
100
AcDbLine
 10
-110.855
 20
-1398.18
 30
0
 11
-110.855
 21
-1754.54
 31
0
  0
LINE
  5
B1C
330
A02
100
AcDbEntity
  8
Shape327
100
AcDbLine
 10
3881.26
 20
-915.579
 30
0
 11
3524.9
 21
-915.579
 31
0
  0
LINE
  5
B1D
330
A02
100
AcDbEntity
  8
Shape328
100
AcDbLine
 10
3398.66
 20
-915.579
 30
0
 11
3042.3
 21
-915.579
 31
0
  0
LINE
  5
B1E
330
A02
100
AcDbEntity
  8
Shape329
100
AcDbLine
 10
2916.06
 20
-915.579
 30
0
 11
2559.7
 21
-915.579
 31
0
  0
LINE
  5
B1F
330
A02
100
AcDbEntity
  8
Shape330
100
AcDbLine
 10
2180.73
 20
-915.579
 30
0
 11
1824.37
 21
-915.579
 31
0
  0
LINE
  5
B20
330
A02
100
AcDbEntity
  8
Shape331
100
AcDbLine
 10
1577.48
 20
-915.579
 30
0
 11
1221.12
 21
-915.579
 31
0
  0
LINE
  5
B21
330
A02
100
AcDbEntity
  8
Shape332
100
AcDbLine
 10
1094.88
 20
-915.579
 30
0
 11
738.521
 21
-915.579
 31
0
  0
LINE
  5
B22
330
A02
100
AcDbEntity
  8
Shape333
100
AcDbLine
 10
612.283
 20
-915.579
 30
0
 11
255.921
 21
-915.579
 31
0
  0
LINE
  5
B23
330
A02
100
AcDbEntity
  8
Shape334
100
AcDbLine
 10
129.683
 20
-915.579
 30
0
 11
-226.679
 21
-915.579
 31
0
  0
LINE
  5
B24
330
A02
100
AcDbEntity
  8
Shape335
100
AcDbLine
 10
-352.917
 20
-915.579
 30
0
 11
-709.279
 21
-915.579
 31
0
  0
LINE
  5
B25
330
A02
100
AcDbEntity
  8
Shape336
100
AcDbLine
 10
-835.517
 20
-915.579
 30
0
 11
-1191.88
 21
-915.579
 31
0
  0
LINE
  5
B26
330
A02
100
AcDbEntity
  8
Shape337
100
AcDbLine
 10
-1318.12
 20
-915.579
 30
0
 11
-1674.48
 21
-915.579
 31
0
  0
LINE
  5
B27
330
A02
100
AcDbEntity
  8
Shape338
100
AcDbLine
 10
-1800.72
 20
-915.579
 30
0
 11
-2157.08
 21
-915.579
 31
0
  0
LINE
  5
B28
330
A02
100
AcDbEntity
  8
Shape339
100
AcDbLine
 10
-2283.32
 20
-915.579
 30
0
 11
-2639.68
 21
-915.579
 31
0
  0
LINE
  5
B29
330
A02
100
AcDbEntity
  8
Shape340
100
AcDbLine
 10
-2765.92
 20
-915.579
 30
0
 11
-3122.28
 21
-915.579
 31
0
  0
LINE
  5
B2A
330
A02
100
AcDbEntity
  8
Shape341
100
AcDbLine
 10
-3248.52
 20
-915.579
 30
0
 11
-3604.88
 21
-915.579
 31
0
  0
LINE
  5
B2B
330
A02
100
AcDbEntity
  8
Shape342
100
AcDbLine
 10
-3731.12
 20
-915.579
 30
0
 11
-4087.48
 21
-915.579
 31
0
  0
LINE
  5
B2C
330
A02
100
AcDbEntity
  8
Shape343
100
AcDbLine
 10
-4334.37
 20
-915.579
 30
0
 11
-4690.73
 21
-915.579
 31
0
  0
LINE
  5
B2D
330
A02
100
AcDbEntity
  8
Shape344
100
AcDbLine
 10
14.1126
 20
-2237.14
 30
0
 11
14.1126
 21
-1880.78
 31
0
  0
LINE
  5
B2E
330
A02
100
AcDbEntity
  8
Shape345
100
AcDbLine
 10
14.6206
 20
-432.979
 30
0
 11
14.6206
 21
-789.341
 31
0
  0
LINE
  5
B2F
330
A02
100
AcDbEntity
  8
Shape346
100
AcDbLine
 10
77.3586
 20
-2363.38
 30
0
 11
77.3586
 21
-2719.74
 31
0
  0
LINE
  5
B30
330
A02
100
AcDbEntity
  8
Shape347
100
AcDbLine
 10
119.523
 20
-174.661
 30
0
 11
119.523
 21
181.701
 31
0
  0
LINE
  5
B31
330
A02
100
AcDbEntity
  8
Shape348
100
AcDbLine
 10
129.683
 20
-1271.94
 30
0
 11
129.683
 21
-915.579
 31
0
  0
LINE
  5
B32
330
A02
100
AcDbEntity
  8
Shape349
100
AcDbLine
 10
140.351
 20
-1880.78
 30
0
 11
140.351
 21
-2237.14
 31
0
  0
LINE
  5
B33
330
A02
100
AcDbEntity
  8
Shape356
100
AcDbLine
 10
-4926.61
 20
-791.504
 30
0
 11
-4954.55
 21
-791.504
 31
0
  0
LINE
  5
B34
330
A02
100
AcDbEntity
  8
Shape357
100
AcDbLine
 10
3996.41
 20
-791.504
 30
0
 11
4024.35
 21
-791.504
 31
0
  0
LINE
  5
B35
330
A02
100
AcDbEntity
  8
Shape358
100
AcDbLine
 10
-4811.38
 20
-789.341
 30
0
 11
-4455.02
 21
-789.341
 31
0
  0
LINE
  5
B36
330
A02
100
AcDbEntity
  8
Shape359
100
AcDbLine
 10
-4328.78
 20
-789.341
 30
0
 11
-3972.42
 21
-789.341
 31
0
  0
LINE
  5
B37
330
A02
100
AcDbEntity
  8
Shape360
100
AcDbLine
 10
-3846.18
 20
-789.341
 30
0
 11
-3489.82
 21
-789.341
 31
0
  0
LINE
  5
B38
330
A02
100
AcDbEntity
  8
Shape361
100
AcDbLine
 10
-3363.58
 20
-789.341
 30
0
 11
-3007.22
 21
-789.341
 31
0
  0
LINE
  5
B39
330
A02
100
AcDbEntity
  8
Shape362
100
AcDbLine
 10
-2880.98
 20
-789.341
 30
0
 11
-2524.62
 21
-789.341
 31
0
  0
LINE
  5
B3A
330
A02
100
AcDbEntity
  8
Shape363
100
AcDbLine
 10
-2398.38
 20
-789.341
 30
0
 11
-2042.02
 21
-789.341
 31
0
  0
LINE
  5
B3B
330
A02
100
AcDbEntity
  8
Shape364
100
AcDbLine
 10
-1915.78
 20
-789.341
 30
0
 11
-1559.42
 21
-789.341
 31
0
  0
LINE
  5
B3C
330
A02
100
AcDbEntity
  8
Shape365
100
AcDbLine
 10
-1433.18
 20
-789.341
 30
0
 11
-1076.82
 21
-789.341
 31
0
  0
LINE
  5
B3D
330
A02
100
AcDbEntity
  8
Shape366
100
AcDbLine
 10
-950.579
 20
-789.341
 30
0
 11
-594.217
 21
-789.341
 31
0
  0
LINE
  5
B3E
330
A02
100
AcDbEntity
  8
Shape367
100
AcDbLine
 10
-467.979
 20
-789.341
 30
0
 11
-111.617
 21
-789.341
 31
0
  0
LINE
  5
B3F
330
A02
100
AcDbEntity
  8
Shape368
100
AcDbLine
 10
14.6206
 20
-789.341
 30
0
 11
370.983
 21
-789.341
 31
0
  0
LINE
  5
B40
330
A02
100
AcDbEntity
  8
Shape369
100
AcDbLine
 10
497.221
 20
-789.341
 30
0
 11
853.583
 21
-789.341
 31
0
  0
LINE
  5
B41
330
A02
100
AcDbEntity
  8
Shape370
100
AcDbLine
 10
979.821
 20
-789.341
 30
0
 11
1336.18
 21
-789.341
 31
0
  0
LINE
  5
B42
330
A02
100
AcDbEntity
  8
Shape371
100
AcDbLine
 10
1703.72
 20
-789.341
 30
0
 11
2060.08
 21
-789.341
 31
0
  0
LINE
  5
B43
330
A02
100
AcDbEntity
  8
Shape372
100
AcDbLine
 10
2559.7
 20
-789.341
 30
0
 11
2916.06
 21
-789.341
 31
0
  0
LINE
  5
B44
330
A02
100
AcDbEntity
  8
Shape373
100
AcDbLine
 10
3042.3
 20
-789.341
 30
0
 11
3398.66
 21
-789.341
 31
0
  0
LINE
  5
B45
330
A02
100
AcDbEntity
  8
Shape374
100
AcDbLine
 10
3524.9
 20
-789.341
 30
0
 11
3881.26
 21
-789.341
 31
0
  0
LINE
  5
B46
330
A02
100
AcDbEntity
  8
Shape375
100
AcDbLine
 10
2284.49
 20
-763.56
 30
0
 11
2088.91
 21
-763.56
 31
0
  0
LINE
  5
B47
330
A02
100
AcDbEntity
  8
Shape376
100
AcDbLine
 10
1674.89
 20
-763.56
 30
0
 11
1479.31
 21
-763.56
 31
0
  0
LINE
  5
B48
330
A02
100
AcDbEntity
  8
Shape377
100
AcDbLine
 10
4062.45
 20
-740.704
 30
0
 11
3996.41
 21
-740.704
 31
0
  0
LINE
  5
B49
330
A02
100
AcDbEntity
  8
Shape378
100
AcDbLine
 10
-4926.61
 20
-740.704
 30
0
 11
-4992.65
 21
-740.704
 31
0
  0
LINE
  5
B4A
330
A02
100
AcDbEntity
  8
Shape379
100
AcDbLine
 10
-5018.05
 20
-618.784
 30
0
 11
-4926.61
 21
-618.784
 31
0
  0
LINE
  5
B4B
330
A02
100
AcDbEntity
  8
Shape380
100
AcDbLine
 10
3996.41
 20
-618.784
 30
0
 11
4087.85
 21
-618.784
 31
0
  0
LINE
  5
B4C
330
A02
100
AcDbEntity
  8
Shape381
100
AcDbLine
 10
245.507
 20
-1754.54
 30
0
 11
245.507
 21
-1398.18
 31
0
  0
LINE
  5
B4D
330
A02
100
AcDbEntity
  8
Shape382
100
AcDbLine
 10
255.921
 20
-915.579
 30
0
 11
255.921
 21
-1271.94
 31
0
  0
LINE
  5
B4E
330
A02
100
AcDbEntity
  8
Shape383
100
AcDbLine
 10
370.983
 20
-789.341
 30
0
 11
370.983
 21
-432.979
 31
0
  0
LINE
  5
B4F
330
A02
100
AcDbEntity
  8
Shape384
100
AcDbLine
 10
371.745
 20
-1398.18
 30
0
 11
371.745
 21
-1754.54
 31
0
  0
LINE
  5
B50
330
A02
100
AcDbEntity
  8
Shape385
100
AcDbLine
 10
433.721
 20
-2719.74
 30
0
 11
433.721
 21
-2363.38
 31
0
  0
LINE
  5
B51
330
A02
100
AcDbEntity
  8
Shape386
100
AcDbLine
 10
496.713
 20
-2237.14
 30
0
 11
496.713
 21
-1880.78
 31
0
  0
LINE
  5
B52
330
A02
100
AcDbEntity
  8
Shape387
100
AcDbLine
 10
497.221
 20
181.701
 30
0
 11
497.221
 21
-174.661
 31
0
  0
LINE
  5
B53
330
A02
100
AcDbEntity
  8
Shape388
100
AcDbLine
 10
497.221
 20
-432.979
 30
0
 11
497.221
 21
-789.341
 31
0
  0
LINE
  5
B54
330
A02
100
AcDbEntity
  8
Shape389
100
AcDbLine
 10
506.453
 20
-2834.93
 30
0
 11
506.453
 21
-2862.87
 31
0
  0
LINE
  5
B55
330
A02
100
AcDbEntity
  8
Shape390
100
AcDbLine
 10
506.453
 20
296.886
 30
0
 11
506.453
 21
324.826
 31
0
  0
LINE
  5
B56
330
A02
100
AcDbEntity
  8
Shape391
100
AcDbLine
 10
4087.85
 20
-567.984
 30
0
 11
3996.41
 21
-567.984
 31
0
  0
LINE
  5
B57
330
A02
100
AcDbEntity
  8
Shape392
100
AcDbLine
 10
-4926.61
 20
-567.984
 30
0
 11
-5018.05
 21
-567.984
 31
0
  0
LINE
  5
B58
330
A02
100
AcDbEntity
  8
Shape393
100
AcDbLine
 10
-5018.05
 20
-446.064
 30
0
 11
-4926.61
 21
-446.064
 31
0
  0
LINE
  5
B59
330
A02
100
AcDbEntity
  8
Shape394
100
AcDbLine
 10
3996.41
 20
-446.064
 30
0
 11
4087.85
 21
-446.064
 31
0
  0
LINE
  5
B5A
330
A02
100
AcDbEntity
  8
Shape395
100
AcDbLine
 10
1479.31
 20
-433.36
 30
0
 11
1674.89
 21
-433.36
 31
0
  0
LINE
  5
B5B
330
A02
100
AcDbEntity
  8
Shape396
100
AcDbLine
 10
2088.91
 20
-433.36
 30
0
 11
2284.49
 21
-433.36
 31
0
  0
LINE
  5
B5C
330
A02
100
AcDbEntity
  8
Shape397
100
AcDbLine
 10
3881.26
 20
-432.979
 30
0
 11
3524.9
 21
-432.979
 31
0
  0
LINE
  5
B5D
330
A02
100
AcDbEntity
  8
Shape398
100
AcDbLine
 10
3398.66
 20
-432.979
 30
0
 11
3042.3
 21
-432.979
 31
0
  0
LINE
  5
B5E
330
A02
100
AcDbEntity
  8
Shape399
100
AcDbLine
 10
2916.06
 20
-432.979
 30
0
 11
2559.7
 21
-432.979
 31
0
  0
LINE
  5
B5F
330
A02
100
AcDbEntity
  8
Shape400
100
AcDbLine
 10
2060.08
 20
-432.979
 30
0
 11
1703.72
 21
-432.979
 31
0
  0
LINE
  5
B60
330
A02
100
AcDbEntity
  8
Shape401
100
AcDbLine
 10
1336.18
 20
-432.979
 30
0
 11
979.821
 21
-432.979
 31
0
  0
LINE
  5
B61
330
A02
100
AcDbEntity
  8
Shape402
100
AcDbLine
 10
853.583
 20
-432.979
 30
0
 11
497.221
 21
-432.979
 31
0
  0
LINE
  5
B62
330
A02
100
AcDbEntity
  8
Shape403
100
AcDbLine
 10
370.983
 20
-432.979
 30
0
 11
14.6206
 21
-432.979
 31
0
  0
LINE
  5
B63
330
A02
100
AcDbEntity
  8
Shape404
100
AcDbLine
 10
-111.617
 20
-432.979
 30
0
 11
-467.979
 21
-432.979
 31
0
  0
LINE
  5
B64
330
A02
100
AcDbEntity
  8
Shape405
100
AcDbLine
 10
-594.217
 20
-432.979
 30
0
 11
-950.579
 21
-432.979
 31
0
  0
LINE
  5
B65
330
A02
100
AcDbEntity
  8
Shape406
100
AcDbLine
 10
-1076.82
 20
-432.979
 30
0
 11
-1433.18
 21
-432.979
 31
0
  0
LINE
  5
B66
330
A02
100
AcDbEntity
  8
Shape407
100
AcDbLine
 10
-1559.42
 20
-432.979
 30
0
 11
-1915.78
 21
-432.979
 31
0
  0
LINE
  5
B67
330
A02
100
AcDbEntity
  8
Shape408
100
AcDbLine
 10
-2042.02
 20
-432.979
 30
0
 11
-2398.38
 21
-432.979
 31
0
  0
LINE
  5
B68
330
A02
100
AcDbEntity
  8
Shape409
100
AcDbLine
 10
-2524.62
 20
-432.979
 30
0
 11
-2880.98
 21
-432.979
 31
0
  0
LINE
  5
B69
330
A02
100
AcDbEntity
  8
Shape410
100
AcDbLine
 10
-3007.22
 20
-432.979
 30
0
 11
-3363.58
 21
-432.979
 31
0
  0
LINE
  5
B6A
330
A02
100
AcDbEntity
  8
Shape411
100
AcDbLine
 10
-3489.82
 20
-432.979
 30
0
 11
-3846.18
 21
-432.979
 31
0
  0
LINE
  5
B6B
330
A02
100
AcDbEntity
  8
Shape412
100
AcDbLine
 10
-3972.42
 20
-432.979
 30
0
 11
-4328.78
 21
-432.979
 31
0
  0
LINE
  5
B6C
330
A02
100
AcDbEntity
  8
Shape413
100
AcDbLine
 10
-4455.02
 20
-432.979
 30
0
 11
-4811.38
 21
-432.979
 31
0
  0
LINE
  5
B6D
330
A02
100
AcDbEntity
  8
Shape414
100
AcDbLine
 10
4087.85
 20
-395.264
 30
0
 11
3996.41
 21
-395.264
 31
0
  0
LINE
  5
B6E
330
A02
100
AcDbEntity
  8
Shape415
100
AcDbLine
 10
-4926.61
 20
-395.264
 30
0
 11
-5018.05
 21
-395.264
 31
0
  0
LINE
  5
B6F
330
A02
100
AcDbEntity
  8
Shape424
100
AcDbLine
 10
-4992.65
 20
-273.344
 30
0
 11
-4926.61
 21
-273.344
 31
0
  0
LINE
  5
B70
330
A02
100
AcDbEntity
  8
Shape425
100
AcDbLine
 10
3996.41
 20
-273.344
 30
0
 11
4062.45
 21
-273.344
 31
0
  0
LINE
  5
B71
330
A02
100
AcDbEntity
  8
Shape431
100
AcDbLine
 10
557.253
 20
-2900.97
 30
0
 11
557.253
 21
-2834.93
 31
0
  0
LINE
  5
B72
330
A02
100
AcDbEntity
  8
Shape432
100
AcDbLine
 10
557.253
 20
296.886
 30
0
 11
557.253
 21
362.926
 31
0
  0
LINE
  5
B73
330
A02
100
AcDbEntity
  8
Shape433
100
AcDbLine
 10
612.283
 20
-1271.94
 30
0
 11
612.283
 21
-915.579
 31
0
  0
LINE
  5
B74
330
A02
100
AcDbEntity
  8
Shape434
100
AcDbLine
 10
622.951
 20
-1880.78
 30
0
 11
622.951
 21
-2237.14
 31
0
  0
LINE
  5
B75
330
A02
100
AcDbEntity
  8
Shape435
100
AcDbLine
 10
675.363
 20
388.326
 30
0
 11
675.363
 21
296.886
 31
0
  0
LINE
  5
B76
330
A02
100
AcDbEntity
  8
Shape436
100
AcDbLine
 10
675.363
 20
-2834.93
 30
0
 11
675.363
 21
-2926.37
 31
0
  0
LINE
  5
B77
330
A02
100
AcDbEntity
  8
Shape437
100
AcDbLine
 10
679.339
 20
-2363.38
 30
0
 11
679.339
 21
-2719.74
 31
0
  0
LINE
  5
B78
330
A02
100
AcDbEntity
  8
Shape438
100
AcDbLine
 10
726.163
 20
-2926.37
 30
0
 11
726.163
 21
-2834.93
 31
0
  0
LINE
  5
B79
330
A02
100
AcDbEntity
  8
Shape439
100
AcDbLine
 10
726.163
 20
296.886
 30
0
 11
726.163
 21
388.326
 31
0
  0
LINE
  5
B7A
330
A02
100
AcDbEntity
  8
Shape440
100
AcDbLine
 10
728.107
 20
-1754.54
 30
0
 11
728.107
 21
-1398.18
 31
0
  0
LINE
  5
B7B
330
A02
100
AcDbEntity
  8
Shape441
100
AcDbLine
 10
738.521
 20
-915.579
 30
0
 11
738.521
 21
-1271.94
 31
0
  0
LINE
  5
B7C
330
A02
100
AcDbEntity
  8
Shape442
100
AcDbLine
 10
844.273
 20
388.326
 30
0
 11
844.273
 21
296.886
 31
0
  0
LINE
  5
B7D
330
A02
100
AcDbEntity
  8
Shape443
100
AcDbLine
 10
844.273
 20
-2834.93
 30
0
 11
844.273
 21
-2926.37
 31
0
  0
LINE
  5
B7E
330
A02
100
AcDbEntity
  8
Shape444
100
AcDbLine
 10
853.583
 20
-789.341
 30
0
 11
853.583
 21
-432.979
 31
0
  0
LINE
  5
B7F
330
A02
100
AcDbEntity
  8
Shape445
100
AcDbLine
 10
853.583
 20
-174.661
 30
0
 11
853.583
 21
181.701
 31
0
  0
LINE
  5
B80
330
A02
100
AcDbEntity
  8
Shape446
100
AcDbLine
 10
854.345
 20
-1398.18
 30
0
 11
854.345
 21
-1754.54
 31
0
  0
LINE
  5
B81
330
A02
100
AcDbEntity
  8
Shape447
100
AcDbLine
 10
-4926.61
 20
-222.544
 30
0
 11
-4954.55
 21
-222.544
 31
0
  0
LINE
  5
B82
330
A02
100
AcDbEntity
  8
Shape448
100
AcDbLine
 10
3996.41
 20
-222.544
 30
0
 11
4024.35
 21
-222.544
 31
0
  0
LINE
  5
B83
330
A02
100
AcDbEntity
  8
Shape454
100
AcDbLine
 10
-4811.38
 20
-174.661
 30
0
 11
-4455.02
 21
-174.661
 31
0
  0
LINE
  5
B84
330
A02
100
AcDbEntity
  8
Shape455
100
AcDbLine
 10
-3866.5
 20
-174.661
 30
0
 11
-3510.14
 21
-174.661
 31
0
  0
LINE
  5
B85
330
A02
100
AcDbEntity
  8
Shape456
100
AcDbLine
 10
-3383.9
 20
-174.661
 30
0
 11
-3027.54
 21
-174.661
 31
0
  0
LINE
  5
B86
330
A02
100
AcDbEntity
  8
Shape457
100
AcDbLine
 10
-2901.3
 20
-174.661
 30
0
 11
-2544.94
 21
-174.661
 31
0
  0
LINE
  5
B87
330
A02
100
AcDbEntity
  8
Shape458
100
AcDbLine
 10
-2418.7
 20
-174.661
 30
0
 11
-2062.34
 21
-174.661
 31
0
  0
LINE
  5
B88
330
A02
100
AcDbEntity
  8
Shape459
100
AcDbLine
 10
-1684.64
 20
-174.661
 30
0
 11
-1328.28
 21
-174.661
 31
0
  0
LINE
  5
B89
330
A02
100
AcDbEntity
  8
Shape460
100
AcDbLine
 10
-1202.04
 20
-174.661
 30
0
 11
-845.677
 21
-174.661
 31
0
  0
LINE
  5
B8A
330
A02
100
AcDbEntity
  8
Shape461
100
AcDbLine
 10
-719.439
 20
-174.661
 30
0
 11
-363.077
 21
-174.661
 31
0
  0
LINE
  5
B8B
330
A02
100
AcDbEntity
  8
Shape462
100
AcDbLine
 10
-236.839
 20
-174.661
 30
0
 11
119.523
 21
-174.661
 31
0
  0
LINE
  5
B8C
330
A02
100
AcDbEntity
  8
Shape463
100
AcDbLine
 10
497.221
 20
-174.661
 30
0
 11
853.583
 21
-174.661
 31
0
  0
LINE
  5
B8D
330
A02
100
AcDbEntity
  8
Shape464
100
AcDbLine
 10
979.821
 20
-174.661
 30
0
 11
1336.18
 21
-174.661
 31
0
  0
LINE
  5
B8E
330
A02
100
AcDbEntity
  8
Shape465
100
AcDbLine
 10
1462.42
 20
-174.661
 30
0
 11
1818.78
 21
-174.661
 31
0
  0
LINE
  5
B8F
330
A02
100
AcDbEntity
  8
Shape466
100
AcDbLine
 10
1945.02
 20
-174.661
 30
0
 11
2301.38
 21
-174.661
 31
0
  0
LINE
  5
B90
330
A02
100
AcDbEntity
  8
Shape467
100
AcDbLine
 10
2559.7
 20
-174.661
 30
0
 11
2916.06
 21
-174.661
 31
0
  0
LINE
  5
B91
330
A02
100
AcDbEntity
  8
Shape468
100
AcDbLine
 10
3042.3
 20
-174.661
 30
0
 11
3398.66
 21
-174.661
 31
0
  0
LINE
  5
B92
330
A02
100
AcDbEntity
  8
Shape469
100
AcDbLine
 10
3524.9
 20
-174.661
 30
0
 11
3881.26
 21
-174.661
 31
0
  0
LINE
  5
B93
330
A02
100
AcDbEntity
  8
Shape470
100
AcDbLine
 10
895.073
 20
-2926.37
 30
0
 11
895.073
 21
-2834.93
 31
0
  0
LINE
  5
B94
330
A02
100
AcDbEntity
  8
Shape471
100
AcDbLine
 10
895.073
 20
296.886
 30
0
 11
895.073
 21
388.326
 31
0
  0
LINE
  5
B95
330
A02
100
AcDbEntity
  8
Shape472
100
AcDbLine
 10
979.313
 20
-2237.14
 30
0
 11
979.313
 21
-1880.78
 31
0
  0
LINE
  5
B96
330
A02
100
AcDbEntity
  8
Shape473
100
AcDbLine
 10
979.821
 20
181.701
 30
0
 11
979.821
 21
-174.661
 31
0
  0
LINE
  5
B97
330
A02
100
AcDbEntity
  8
Shape474
100
AcDbLine
 10
979.821
 20
-432.979
 30
0
 11
979.821
 21
-789.341
 31
0
  0
LINE
  5
B98
330
A02
100
AcDbEntity
  8
Shape475
100
AcDbLine
 10
1013.18
 20
362.926
 30
0
 11
1013.18
 21
296.886
 31
0
  0
LINE
  5
B99
330
A02
100
AcDbEntity
  8
Shape476
100
AcDbLine
 10
1013.18
 20
-2834.93
 30
0
 11
1013.18
 21
-2900.97
 31
0
  0
LINE
  5
B9A
330
A02
100
AcDbEntity
  8
Shape477
100
AcDbLine
 10
1035.7
 20
-2719.74
 30
0
 11
1035.7
 21
-2363.38
 31
0
  0
LINE
  5
B9B
330
A02
100
AcDbEntity
  8
Shape478
100
AcDbLine
 10
1063.98
 20
-2834.93
 30
0
 11
1063.98
 21
-2862.87
 31
0
  0
LINE
  5
B9C
330
A02
100
AcDbEntity
  8
Shape479
100
AcDbLine
 10
1063.98
 20
296.886
 30
0
 11
1063.98
 21
324.826
 31
0
  0
LINE
  5
B9D
330
A02
100
AcDbEntity
  8
Shape480
100
AcDbLine
 10
1094.88
 20
-1271.94
 30
0
 11
1094.88
 21
-915.579
 31
0
  0
LINE
  5
B9E
330
A02
100
AcDbEntity
  8
Shape481
100
AcDbLine
 10
3881.26
 20
181.701
 30
0
 11
3524.9
 21
181.701
 31
0
  0
LINE
  5
B9F
330
A02
100
AcDbEntity
  8
Shape482
100
AcDbLine
 10
3398.66
 20
181.701
 30
0
 11
3042.3
 21
181.701
 31
0
  0
LINE
  5
BA0
330
A02
100
AcDbEntity
  8
Shape483
100
AcDbLine
 10
2916.06
 20
181.701
 30
0
 11
2559.7
 21
181.701
 31
0
  0
LINE
  5
BA1
330
A02
100
AcDbEntity
  8
Shape484
100
AcDbLine
 10
2301.38
 20
181.701
 30
0
 11
1945.02
 21
181.701
 31
0
  0
LINE
  5
BA2
330
A02
100
AcDbEntity
  8
Shape485
100
AcDbLine
 10
1818.78
 20
181.701
 30
0
 11
1462.42
 21
181.701
 31
0
  0
LINE
  5
BA3
330
A02
100
AcDbEntity
  8
Shape486
100
AcDbLine
 10
1336.18
 20
181.701
 30
0
 11
979.821
 21
181.701
 31
0
  0
LINE
  5
BA4
330
A02
100
AcDbEntity
  8
Shape487
100
AcDbLine
 10
853.583
 20
181.701
 30
0
 11
497.221
 21
181.701
 31
0
  0
LINE
  5
BA5
330
A02
100
AcDbEntity
  8
Shape488
100
AcDbLine
 10
119.523
 20
181.701
 30
0
 11
-236.839
 21
181.701
 31
0
  0
LINE
  5
BA6
330
A02
100
AcDbEntity
  8
Shape489
100
AcDbLine
 10
-363.077
 20
181.701
 30
0
 11
-719.439
 21
181.701
 31
0
  0
LINE
  5
BA7
330
A02
100
AcDbEntity
  8
Shape490
100
AcDbLine
 10
-845.677
 20
181.701
 30
0
 11
-1202.04
 21
181.701
 31
0
  0
LINE
  5
BA8
330
A02
100
AcDbEntity
  8
Shape491
100
AcDbLine
 10
-1328.28
 20
181.701
 30
0
 11
-1684.64
 21
181.701
 31
0
  0
LINE
  5
BA9
330
A02
100
AcDbEntity
  8
Shape492
100
AcDbLine
 10
-2062.34
 20
181.701
 30
0
 11
-2418.7
 21
181.701
 31
0
  0
LINE
  5
BAA
330
A02
100
AcDbEntity
  8
Shape493
100
AcDbLine
 10
-2544.94
 20
181.701
 30
0
 11
-2901.3
 21
181.701
 31
0
  0
LINE
  5
BAB
330
A02
100
AcDbEntity
  8
Shape494
100
AcDbLine
 10
-3027.54
 20
181.701
 30
0
 11
-3383.9
 21
181.701
 31
0
  0
LINE
  5
BAC
330
A02
100
AcDbEntity
  8
Shape495
100
AcDbLine
 10
-3510.14
 20
181.701
 30
0
 11
-3866.5
 21
181.701
 31
0
  0
LINE
  5
BAD
330
A02
100
AcDbEntity
  8
Shape496
100
AcDbLine
 10
-4455.02
 20
181.701
 30
0
 11
-4811.38
 21
181.701
 31
0
  0
LINE
  5
BAE
330
A02
100
AcDbEntity
  8
Shape509
100
AcDbLine
 10
3998.95
 20
324.826
 30
0
 11
3564.61
 21
324.826
 31
0
  0
LINE
  5
BAF
330
A02
100
AcDbEntity
  8
Shape510
100
AcDbLine
 10
3007.08
 20
324.826
 30
0
 11
1063.98
 21
324.826
 31
0
  0
LINE
  5
BB0
330
A02
100
AcDbEntity
  8
Shape511
100
AcDbLine
 10
506.453
 20
324.826
 30
0
 11
-1436.65
 21
324.826
 31
0
  0
LINE
  5
BB1
330
A02
100
AcDbEntity
  8
Shape512
100
AcDbLine
 10
-1994.18
 20
324.826
 30
0
 11
-3937.28
 21
324.826
 31
0
  0
LINE
  5
BB2
330
A02
100
AcDbEntity
  8
Shape513
100
AcDbLine
 10
-4494.81
 20
324.826
 30
0
 11
-4929.15
 21
324.826
 31
0
  0
LINE
  5
BB3
330
A02
100
AcDbEntity
  8
Shape514
100
AcDbLine
 10
-4418.61
 20
388.326
 30
0
 11
-4325.9
 21
388.326
 31
0
  0
LINE
  5
BB4
330
A02
100
AcDbEntity
  8
Shape515
100
AcDbLine
 10
-4275.1
 20
388.326
 30
0
 11
-4156.99
 21
388.326
 31
0
  0
LINE
  5
BB5
330
A02
100
AcDbEntity
  8
Shape516
100
AcDbLine
 10
-4106.19
 20
388.326
 30
0
 11
-4013.48
 21
388.326
 31
0
  0
LINE
  5
BB6
330
A02
100
AcDbEntity
  8
Shape517
100
AcDbLine
 10
-1917.98
 20
388.326
 30
0
 11
-1825.27
 21
388.326
 31
0
  0
LINE
  5
BB7
330
A02
100
AcDbEntity
  8
Shape518
100
AcDbLine
 10
-1774.47
 20
388.326
 30
0
 11
-1656.36
 21
388.326
 31
0
  0
LINE
  5
BB8
330
A02
100
AcDbEntity
  8
Shape519
100
AcDbLine
 10
-1605.56
 20
388.326
 30
0
 11
-1512.85
 21
388.326
 31
0
  0
LINE
  5
BB9
330
A02
100
AcDbEntity
  8
Shape520
100
AcDbLine
 10
582.653
 20
388.326
 30
0
 11
675.363
 21
388.326
 31
0
  0
LINE
  5
BBA
330
A02
100
AcDbEntity
  8
Shape521
100
AcDbLine
 10
726.163
 20
388.326
 30
0
 11
844.273
 21
388.326
 31
0
  0
LINE
  5
BBB
330
A02
100
AcDbEntity
  8
Shape522
100
AcDbLine
 10
895.073
 20
388.326
 30
0
 11
987.783
 21
388.326
 31
0
  0
LINE
  5
BBC
330
A02
100
AcDbEntity
  8
Shape523
100
AcDbLine
 10
3083.28
 20
388.326
 30
0
 11
3175.99
 21
388.326
 31
0
  0
LINE
  5
BBD
330
A02
100
AcDbEntity
  8
Shape524
100
AcDbLine
 10
3226.79
 20
388.326
 30
0
 11
3344.9
 21
388.326
 31
0
  0
LINE
  5
BBE
330
A02
100
AcDbEntity
  8
Shape525
100
AcDbLine
 10
3395.7
 20
388.326
 30
0
 11
3488.41
 21
388.326
 31
0
  0
LINE
  5
BBF
330
A02
100
AcDbEntity
  8
Shape526
100
AcDbLine
 10
1210.71
 20
-1754.54
 30
0
 11
1210.71
 21
-1398.18
 31
0
  0
LINE
  5
BC0
330
A02
100
AcDbEntity
  8
Shape527
100
AcDbLine
 10
1221.12
 20
-915.579
 30
0
 11
1221.12
 21
-1271.94
 31
0
  0
LINE
  5
BC1
330
A02
100
AcDbEntity
  8
Shape528
100
AcDbLine
 10
1281.32
 20
-2363.38
 30
0
 11
1281.32
 21
-2719.74
 31
0
  0
LINE
  5
BC2
330
A02
100
AcDbEntity
  8
Shape529
100
AcDbLine
 10
1300.88
 20
-2236.76
 30
0
 11
1300.88
 21
-1906.56
 31
0
  0
LINE
  5
BC3
330
A02
100
AcDbEntity
  8
Shape530
100
AcDbLine
 10
1336.18
 20
-789.341
 30
0
 11
1336.18
 21
-432.979
 31
0
  0
LINE
  5
BC4
330
A02
100
AcDbEntity
  8
Shape531
100
AcDbLine
 10
1336.18
 20
-174.661
 30
0
 11
1336.18
 21
181.701
 31
0
  0
LINE
  5
BC5
330
A02
100
AcDbEntity
  8
Shape532
100
AcDbLine
 10
1416.45
 20
-1728.76
 30
0
 11
1416.45
 21
-1398.56
 31
0
  0
LINE
  5
BC6
330
A02
100
AcDbEntity
  8
Shape533
100
AcDbLine
 10
1462.42
 20
181.701
 30
0
 11
1462.42
 21
-174.661
 31
0
  0
LINE
  5
BC7
330
A02
100
AcDbEntity
  8
Shape534
100
AcDbLine
 10
1479.31
 20
-763.56
 30
0
 11
1479.31
 21
-433.36
 31
0
  0
LINE
  5
BC8
330
A02
100
AcDbEntity
  8
Shape535
100
AcDbLine
 10
1496.46
 20
-1906.56
 30
0
 11
1496.46
 21
-2236.76
 31
0
  0
LINE
  5
BC9
330
A02
100
AcDbEntity
  8
Shape536
100
AcDbLine
 10
1525.29
 20
-1880.78
 30
0
 11
1525.29
 21
-2237.14
 31
0
  0
LINE
  5
BCA
330
A02
100
AcDbEntity
  8
Shape537
100
AcDbLine
 10
1577.48
 20
-1271.94
 30
0
 11
1577.48
 21
-915.579
 31
0
  0
LINE
  5
BCB
330
A02
100
AcDbEntity
  8
Shape538
100
AcDbLine
 10
1612.03
 20
-1398.56
 30
0
 11
1612.03
 21
-1728.76
 31
0
  0
LINE
  5
BCC
330
A02
100
AcDbEntity
  8
Shape539
100
AcDbLine
 10
1637.68
 20
-2719.74
 30
0
 11
1637.68
 21
-2363.38
 31
0
  0
LINE
  5
BCD
330
A02
100
AcDbEntity
  8
Shape540
100
AcDbLine
 10
1640.86
 20
-1398.18
 30
0
 11
1640.86
 21
-1754.54
 31
0
  0
LINE
  5
BCE
330
A02
100
AcDbEntity
  8
Shape541
100
AcDbLine
 10
1674.89
 20
-433.36
 30
0
 11
1674.89
 21
-763.56
 31
0
  0
LINE
  5
BCF
330
A02
100
AcDbEntity
  8
Shape542
100
AcDbLine
 10
1703.72
 20
-432.979
 30
0
 11
1703.72
 21
-789.341
 31
0
  0
LINE
  5
BD0
330
A02
100
AcDbEntity
  8
Shape543
100
AcDbLine
 10
1818.78
 20
-174.661
 30
0
 11
1818.78
 21
181.701
 31
0
  0
LINE
  5
BD1
330
A02
100
AcDbEntity
  8
Shape544
100
AcDbLine
 10
1824.37
 20
-915.579
 30
0
 11
1824.37
 21
-1271.94
 31
0
  0
LINE
  5
BD2
330
A02
100
AcDbEntity
  8
Shape545
100
AcDbLine
 10
1881.65
 20
-2237.14
 30
0
 11
1881.65
 21
-1880.78
 31
0
  0
LINE
  5
BD3
330
A02
100
AcDbEntity
  8
Shape546
100
AcDbLine
 10
1884.57
 20
-2363.38
 30
0
 11
1884.57
 21
-2719.74
 31
0
  0
LINE
  5
BD4
330
A02
100
AcDbEntity
  8
Shape547
100
AcDbLine
 10
1910.48
 20
-2236.76
 30
0
 11
1910.48
 21
-1906.56
 31
0
  0
LINE
  5
BD5
330
A02
100
AcDbEntity
  8
Shape548
100
AcDbLine
 10
1945.02
 20
181.701
 30
0
 11
1945.02
 21
-174.661
 31
0
  0
LINE
  5
BD6
330
A02
100
AcDbEntity
  8
Shape549
100
AcDbLine
 10
1997.22
 20
-1754.54
 30
0
 11
1997.22
 21
-1398.18
 31
0
  0
LINE
  5
BD7
330
A02
100
AcDbEntity
  8
Shape550
100
AcDbLine
 10
2026.05
 20
-1728.76
 30
0
 11
2026.05
 21
-1398.56
 31
0
  0
LINE
  5
BD8
330
A02
100
AcDbEntity
  8
Shape551
100
AcDbLine
 10
2060.08
 20
-789.341
 30
0
 11
2060.08
 21
-432.979
 31
0
  0
LINE
  5
BD9
330
A02
100
AcDbEntity
  8
Shape552
100
AcDbLine
 10
2088.91
 20
-763.56
 30
0
 11
2088.91
 21
-433.36
 31
0
  0
LINE
  5
BDA
330
A02
100
AcDbEntity
  8
Shape553
100
AcDbLine
 10
2106.06
 20
-1906.56
 30
0
 11
2106.06
 21
-2236.76
 31
0
  0
LINE
  5
BDB
330
A02
100
AcDbEntity
  8
Shape554
100
AcDbLine
 10
2180.73
 20
-1271.94
 30
0
 11
2180.73
 21
-915.579
 31
0
  0
LINE
  5
BDC
330
A02
100
AcDbEntity
  8
Shape555
100
AcDbLine
 10
2221.63
 20
-1398.56
 30
0
 11
2221.63
 21
-1728.76
 31
0
  0
LINE
  5
BDD
330
A02
100
AcDbEntity
  8
Shape556
100
AcDbLine
 10
2240.93
 20
-2719.74
 30
0
 11
2240.93
 21
-2363.38
 31
0
  0
LINE
  5
BDE
330
A02
100
AcDbEntity
  8
Shape557
100
AcDbLine
 10
2284.49
 20
-433.36
 30
0
 11
2284.49
 21
-763.56
 31
0
  0
LINE
  5
BDF
330
A02
100
AcDbEntity
  8
Shape558
100
AcDbLine
 10
2301.38
 20
-174.661
 30
0
 11
2301.38
 21
181.701
 31
0
  0
LINE
  5
BE0
330
A02
100
AcDbEntity
  8
Shape559
100
AcDbLine
 10
2410.22
 20
-2737.52
 30
0
 11
2410.22
 21
-1418.88
 31
0
  0
LINE
  5
BE1
330
A02
100
AcDbEntity
  8
Shape560
100
AcDbLine
 10
2410.22
 20
-1251.24
 30
0
 11
2410.22
 21
199.481
 31
0
  0
LINE
  5
BE2
330
A02
100
AcDbEntity
  8
Shape561
100
AcDbLine
 10
2450.86
 20
199.481
 30
0
 11
2450.86
 21
-1251.24
 31
0
  0
LINE
  5
BE3
330
A02
100
AcDbEntity
  8
Shape562
100
AcDbLine
 10
2450.86
 20
-1418.88
 30
0
 11
2450.86
 21
-2737.52
 31
0
  0
LINE
  5
BE4
330
A02
100
AcDbEntity
  8
Shape563
100
AcDbLine
 10
2559.7
 20
181.701
 30
0
 11
2559.7
 21
-174.661
 31
0
  0
LINE
  5
BE5
330
A02
100
AcDbEntity
  8
Shape564
100
AcDbLine
 10
2559.7
 20
-432.979
 30
0
 11
2559.7
 21
-789.341
 31
0
  0
LINE
  5
BE6
330
A02
100
AcDbEntity
  8
Shape565
100
AcDbLine
 10
2559.7
 20
-915.579
 30
0
 11
2559.7
 21
-1271.94
 31
0
  0
LINE
  5
BE7
330
A02
100
AcDbEntity
  8
Shape566
100
AcDbLine
 10
2559.7
 20
-2363.38
 30
0
 11
2559.7
 21
-2719.74
 31
0
  0
LINE
  5
BE8
330
A02
100
AcDbEntity
  8
Shape569
100
AcDbLine
 10
2916.06
 20
-1271.94
 30
0
 11
2916.06
 21
-915.579
 31
0
  0
LINE
  5
BE9
330
A02
100
AcDbEntity
  8
Shape570
100
AcDbLine
 10
2916.06
 20
-789.341
 30
0
 11
2916.06
 21
-432.979
 31
0
  0
LINE
  5
BEA
330
A02
100
AcDbEntity
  8
Shape571
100
AcDbLine
 10
2916.06
 20
-174.661
 30
0
 11
2916.06
 21
181.701
 31
0
  0
LINE
  5
BEB
330
A02
100
AcDbEntity
  8
Shape572
100
AcDbLine
 10
3007.08
 20
-2834.93
 30
0
 11
3007.08
 21
-2862.87
 31
0
  0
LINE
  5
BEC
330
A02
100
AcDbEntity
  8
Shape573
100
AcDbLine
 10
3007.08
 20
296.886
 30
0
 11
3007.08
 21
324.826
 31
0
  0
LINE
  5
BED
330
A02
100
AcDbEntity
  8
Shape574
100
AcDbLine
 10
3042.3
 20
181.701
 30
0
 11
3042.3
 21
-174.661
 31
0
  0
LINE
  5
BEE
330
A02
100
AcDbEntity
  8
Shape575
100
AcDbLine
 10
3042.3
 20
-432.979
 30
0
 11
3042.3
 21
-789.341
 31
0
  0
LINE
  5
BEF
330
A02
100
AcDbEntity
  8
Shape576
100
AcDbLine
 10
3042.3
 20
-915.579
 30
0
 11
3042.3
 21
-1271.94
 31
0
  0
LINE
  5
BF0
330
A02
100
AcDbEntity
  8
Shape577
100
AcDbLine
 10
3042.3
 20
-1880.78
 30
0
 11
3042.3
 21
-2237.14
 31
0
  0
LINE
  5
BF1
330
A02
100
AcDbEntity
  8
Shape580
100
AcDbLine
 10
3057.88
 20
-2900.97
 30
0
 11
3057.88
 21
-2834.93
 31
0
  0
LINE
  5
BF2
330
A02
100
AcDbEntity
  8
Shape581
100
AcDbLine
 10
3057.88
 20
296.886
 30
0
 11
3057.88
 21
362.926
 31
0
  0
LINE
  5
BF3
330
A02
100
AcDbEntity
  8
Shape582
100
AcDbLine
 10
3175.99
 20
388.326
 30
0
 11
3175.99
 21
296.886
 31
0
  0
LINE
  5
BF4
330
A02
100
AcDbEntity
  8
Shape583
100
AcDbLine
 10
3175.99
 20
-2834.93
 30
0
 11
3175.99
 21
-2926.37
 31
0
  0
LINE
  5
BF5
330
A02
100
AcDbEntity
  8
Shape584
100
AcDbLine
 10
3226.79
 20
-2926.37
 30
0
 11
3226.79
 21
-2834.93
 31
0
  0
LINE
  5
BF6
330
A02
100
AcDbEntity
  8
Shape585
100
AcDbLine
 10
3226.79
 20
296.886
 30
0
 11
3226.79
 21
388.326
 31
0
  0
LINE
  5
BF7
330
A02
100
AcDbEntity
  8
Shape586
100
AcDbLine
 10
3344.9
 20
388.326
 30
0
 11
3344.9
 21
296.886
 31
0
  0
LINE
  5
BF8
330
A02
100
AcDbEntity
  8
Shape587
100
AcDbLine
 10
3344.9
 20
-2834.93
 30
0
 11
3344.9
 21
-2926.37
 31
0
  0
LINE
  5
BF9
330
A02
100
AcDbEntity
  8
Shape588
100
AcDbLine
 10
3395.7
 20
-2926.37
 30
0
 11
3395.7
 21
-2834.93
 31
0
  0
LINE
  5
BFA
330
A02
100
AcDbEntity
  8
Shape589
100
AcDbLine
 10
3395.7
 20
296.886
 30
0
 11
3395.7
 21
388.326
 31
0
  0
LINE
  5
BFB
330
A02
100
AcDbEntity
  8
Shape590
100
AcDbLine
 10
3398.66
 20
-2719.74
 30
0
 11
3398.66
 21
-2363.38
 31
0
  0
LINE
  5
BFC
330
A02
100
AcDbEntity
  8
Shape591
100
AcDbLine
 10
3398.66
 20
-2237.14
 30
0
 11
3398.66
 21
-1880.78
 31
0
  0
LINE
  5
BFD
330
A02
100
AcDbEntity
  8
Shape592
100
AcDbLine
 10
3398.66
 20
-1271.94
 30
0
 11
3398.66
 21
-915.579
 31
0
  0
LINE
  5
BFE
330
A02
100
AcDbEntity
  8
Shape593
100
AcDbLine
 10
3398.66
 20
-789.341
 30
0
 11
3398.66
 21
-432.979
 31
0
  0
LINE
  5
BFF
330
A02
100
AcDbEntity
  8
Shape594
100
AcDbLine
 10
3398.66
 20
-174.661
 30
0
 11
3398.66
 21
181.701
 31
0
  0
LINE
  5
C00
330
A02
100
AcDbEntity
  8
Shape595
100
AcDbLine
 10
3513.81
 20
362.926
 30
0
 11
3513.81
 21
296.886
 31
0
  0
LINE
  5
C01
330
A02
100
AcDbEntity
  8
Shape596
100
AcDbLine
 10
3513.81
 20
-2834.93
 30
0
 11
3513.81
 21
-2900.97
 31
0
  0
LINE
  5
C02
330
A02
100
AcDbEntity
  8
Shape597
100
AcDbLine
 10
3524.9
 20
181.701
 30
0
 11
3524.9
 21
-174.661
 31
0
  0
LINE
  5
C03
330
A02
100
AcDbEntity
  8
Shape598
100
AcDbLine
 10
3524.9
 20
-432.979
 30
0
 11
3524.9
 21
-789.341
 31
0
  0
LINE
  5
C04
330
A02
100
AcDbEntity
  8
Shape599
100
AcDbLine
 10
3524.9
 20
-915.579
 30
0
 11
3524.9
 21
-1271.94
 31
0
  0
LINE
  5
C05
330
A02
100
AcDbEntity
  8
Shape600
100
AcDbLine
 10
3524.9
 20
-2363.38
 30
0
 11
3524.9
 21
-2719.74
 31
0
  0
LINE
  5
C06
330
A02
100
AcDbEntity
  8
Shape601
100
AcDbLine
 10
3564.61
 20
-2834.93
 30
0
 11
3564.61
 21
-2862.87
 31
0
  0
LINE
  5
C07
330
A02
100
AcDbEntity
  8
Shape602
100
AcDbLine
 10
3564.61
 20
296.886
 30
0
 11
3564.61
 21
324.826
 31
0
  0
LINE
  5
C08
330
A02
100
AcDbEntity
  8
Shape603
100
AcDbLine
 10
3881.26
 20
-2719.74
 30
0
 11
3881.26
 21
-2363.38
 31
0
  0
LINE
  5
C09
330
A02
100
AcDbEntity
  8
Shape604
100
AcDbLine
 10
3881.26
 20
-1271.94
 30
0
 11
3881.26
 21
-915.579
 31
0
  0
LINE
  5
C0A
330
A02
100
AcDbEntity
  8
Shape605
100
AcDbLine
 10
3881.26
 20
-789.341
 30
0
 11
3881.26
 21
-432.979
 31
0
  0
LINE
  5
C0B
330
A02
100
AcDbEntity
  8
Shape606
100
AcDbLine
 10
3881.26
 20
-174.661
 30
0
 11
3881.26
 21
181.701
 31
0
  0
LINE
  5
C0C
330
A02
100
AcDbEntity
  8
Shape607
100
AcDbLine
 10
4024.35
 20
-2837.47
 30
0
 11
4024.35
 21
-2315.5
 31
0
  0
LINE
  5
C0D
330
A02
100
AcDbEntity
  8
Shape608
100
AcDbLine
 10
4024.35
 20
-1746.54
 30
0
 11
4024.35
 21
-791.504
 31
0
  0
LINE
  5
C0E
330
A02
100
AcDbEntity
  8
Shape609
100
AcDbLine
 10
4024.35
 20
-222.544
 30
0
 11
4024.35
 21
299.426
 31
0
  0
LINE
  5
C0F
330
A02
100
AcDbEntity
  8
Shape610
100
AcDbLine
 10
4087.85
 20
-2239.3
 30
0
 11
4087.85
 21
-2142.78
 31
0
  0
LINE
  5
C10
330
A02
100
AcDbEntity
  8
Shape611
100
AcDbLine
 10
4087.85
 20
-2091.98
 30
0
 11
4087.85
 21
-1970.06
 31
0
  0
LINE
  5
C11
330
A02
100
AcDbEntity
  8
Shape612
100
AcDbLine
 10
4087.85
 20
-1919.26
 30
0
 11
4087.85
 21
-1822.74
 31
0
  0
LINE
  5
C12
330
A02
100
AcDbEntity
  8
Shape613
100
AcDbLine
 10
4087.85
 20
-715.304
 30
0
 11
4087.85
 21
-618.784
 31
0
  0
LINE
  5
C13
330
A02
100
AcDbEntity
  8
Shape614
100
AcDbLine
 10
4087.85
 20
-567.984
 30
0
 11
4087.85
 21
-446.064
 31
0
  0
LINE
  5
C14
330
A02
100
AcDbEntity
  8
Shape615
100
AcDbLine
 10
4087.85
 20
-395.264
 30
0
 11
4087.85
 21
-298.744
 31
0
  0
ARC
  5
C15
330
A02
100
AcDbEntity
  8
Shape617
100
AcDbCircle
 10
-3962.68
 20
-2834.93
 30
0
 40
25.4
100
AcDbArc
 50
0
 51
180
  0
ARC
  5
C16
330
A02
100
AcDbEntity
  8
Shape618
100
AcDbCircle
 10
-4013.48
 20
-2900.97
 30
0
 40
25.4
100
AcDbArc
 50
-90
 51
0
  0
ARC
  5
C17
330
A02
100
AcDbEntity
  8
Shape619
100
AcDbCircle
 10
-4131.59
 20
-2834.93
 30
0
 40
25.4
100
AcDbArc
 50
0
 51
180
  0
ARC
  5
C18
330
A02
100
AcDbEntity
  8
Shape620
100
AcDbCircle
 10
-4300.5
 20
-2834.93
 30
0
 40
25.4
100
AcDbArc
 50
0
 51
180
  0
ARC
  5
C19
330
A02
100
AcDbEntity
  8
Shape621
100
AcDbCircle
 10
-4418.61
 20
-2900.97
 30
0
 40
25.4
100
AcDbArc
 50
180
 51
-90
  0
ARC
  5
C1A
330
A02
100
AcDbEntity
  8
Shape622
100
AcDbCircle
 10
-4469.41
 20
-2834.93
 30
0
 40
25.4
100
AcDbArc
 50
0
 51
180
  0
ARC
  5
C1B
330
A02
100
AcDbEntity
  8
Shape623
100
AcDbCircle
 10
-4929.15
 20
-2837.47
 30
0
 40
25.4
100
AcDbArc
 50
180
 51
-90
  0
ARC
  5
C1C
330
A02
100
AcDbEntity
  8
Shape624
100
AcDbCircle
 10
-4926.61
 20
-2290.1
 30
0
 40
25.4
100
AcDbArc
 50
-90
 51
90
  0
ARC
  5
C1D
330
A02
100
AcDbEntity
  8
Shape625
100
AcDbCircle
 10
-4992.65
 20
-2239.3
 30
0
 40
25.4
100
AcDbArc
 50
180
 51
-90
  0
ARC
  5
C1E
330
A02
100
AcDbEntity
  8
Shape626
100
AcDbCircle
 10
-4926.61
 20
-2117.38
 30
0
 40
25.4
100
AcDbArc
 50
-90
 51
90
  0
ARC
  5
C1F
330
A02
100
AcDbEntity
  8
Shape633
100
AcDbCircle
 10
-4926.61
 20
-1944.66
 30
0
 40
25.4
100
AcDbArc
 50
-90
 51
90
  0
ARC
  5
C20
330
A02
100
AcDbEntity
  8
Shape634
100
AcDbCircle
 10
-4992.65
 20
-1822.74
 30
0
 40
25.4
100
AcDbArc
 50
90
 51
180
  0
ARC
  5
C21
330
A02
100
AcDbEntity
  8
Shape635
100
AcDbCircle
 10
-4926.61
 20
-1771.94
 30
0
 40
25.4
100
AcDbArc
 50
-90
 51
90
  0
ARC
  5
C22
330
A02
100
AcDbEntity
  8
Shape656
100
AcDbCircle
 10
-4926.61
 20
-766.104
 30
0
 40
25.4
100
AcDbArc
 50
-90
 51
90
  0
ARC
  5
C23
330
A02
100
AcDbEntity
  8
Shape657
100
AcDbCircle
 10
-4992.65
 20
-715.304
 30
0
 40
25.4
100
AcDbArc
 50
180
 51
-90
  0
ARC
  5
C24
330
A02
100
AcDbEntity
  8
Shape658
100
AcDbCircle
 10
-4926.61
 20
-593.384
 30
0
 40
25.4
100
AcDbArc
 50
-90
 51
90
  0
ARC
  5
C25
330
A02
100
AcDbEntity
  8
Shape659
100
AcDbCircle
 10
-4926.61
 20
-420.664
 30
0
 40
25.4
100
AcDbArc
 50
-90
 51
90
  0
ARC
  5
C26
330
A02
100
AcDbEntity
  8
Shape660
100
AcDbCircle
 10
-4992.65
 20
-298.744
 30
0
 40
25.4
100
AcDbArc
 50
90
 51
180
  0
ARC
  5
C27
330
A02
100
AcDbEntity
  8
Shape661
100
AcDbCircle
 10
-4926.61
 20
-247.944
 30
0
 40
25.4
100
AcDbArc
 50
-90
 51
90
  0
ARC
  5
C28
330
A02
100
AcDbEntity
  8
Shape665
100
AcDbCircle
 10
-4929.15
 20
299.426
 30
0
 40
25.4
100
AcDbArc
 50
90
 51
180
  0
ARC
  5
C29
330
A02
100
AcDbEntity
  8
Shape666
100
AcDbCircle
 10
-4469.41
 20
296.886
 30
0
 40
25.4
100
AcDbArc
 50
180
 51
0
  0
ARC
  5
C2A
330
A02
100
AcDbEntity
  8
Shape667
100
AcDbCircle
 10
-4418.61
 20
362.926
 30
0
 40
25.4
100
AcDbArc
 50
90
 51
180
  0
ARC
  5
C2B
330
A02
100
AcDbEntity
  8
Shape668
100
AcDbCircle
 10
-4300.5
 20
296.886
 30
0
 40
25.4
100
AcDbArc
 50
180
 51
0
  0
ARC
  5
C2C
330
A02
100
AcDbEntity
  8
Shape669
100
AcDbCircle
 10
-4131.59
 20
296.886
 30
0
 40
25.4
100
AcDbArc
 50
180
 51
0
  0
ARC
  5
C2D
330
A02
100
AcDbEntity
  8
Shape670
100
AcDbCircle
 10
-4013.48
 20
362.926
 30
0
 40
25.4
100
AcDbArc
 50
0
 51
90
  0
ARC
  5
C2E
330
A02
100
AcDbEntity
  8
Shape671
100
AcDbCircle
 10
-3962.68
 20
296.886
 30
0
 40
25.4
100
AcDbArc
 50
180
 51
0
  0
ARC
  5
C2F
330
A02
100
AcDbEntity
  8
Shape683
100
AcDbCircle
 10
-1968.78
 20
296.886
 30
0
 40
25.4
100
AcDbArc
 50
180
 51
0
  0
ARC
  5
C30
330
A02
100
AcDbEntity
  8
Shape684
100
AcDbCircle
 10
-1917.98
 20
362.926
 30
0
 40
25.4
100
AcDbArc
 50
90
 51
180
  0
ARC
  5
C31
330
A02
100
AcDbEntity
  8
Shape685
100
AcDbCircle
 10
-1799.87
 20
296.886
 30
0
 40
25.4
100
AcDbArc
 50
180
 51
0
  0
ARC
  5
C32
330
A02
100
AcDbEntity
  8
Shape686
100
AcDbCircle
 10
-1630.96
 20
296.886
 30
0
 40
25.4
100
AcDbArc
 50
180
 51
0
  0
ARC
  5
C33
330
A02
100
AcDbEntity
  8
Shape687
100
AcDbCircle
 10
-1512.85
 20
362.926
 30
0
 40
25.4
100
AcDbArc
 50
0
 51
90
  0
ARC
  5
C34
330
A02
100
AcDbEntity
  8
Shape688
100
AcDbCircle
 10
-1462.05
 20
296.886
 30
0
 40
25.4
100
AcDbArc
 50
180
 51
0
  0
ARC
  5
C35
330
A02
100
AcDbEntity
  8
Shape694
100
AcDbCircle
 10
1038.58
 20
-2834.93
 30
0
 40
25.4
100
AcDbArc
 50
0
 51
180
  0
ARC
  5
C36
330
A02
100
AcDbEntity
  8
Shape695
100
AcDbCircle
 10
987.783
 20
-2900.97
 30
0
 40
25.4
100
AcDbArc
 50
-90
 51
0
  0
ARC
  5
C37
330
A02
100
AcDbEntity
  8
Shape696
100
AcDbCircle
 10
869.673
 20
-2834.93
 30
0
 40
25.4
100
AcDbArc
 50
0
 51
180
  0
ARC
  5
C38
330
A02
100
AcDbEntity
  8
Shape697
100
AcDbCircle
 10
700.763
 20
-2834.93
 30
0
 40
25.4
100
AcDbArc
 50
0
 51
180
  0
ARC
  5
C39
330
A02
100
AcDbEntity
  8
Shape698
100
AcDbCircle
 10
582.653
 20
-2900.97
 30
0
 40
25.4
100
AcDbArc
 50
180
 51
-90
  0
ARC
  5
C3A
330
A02
100
AcDbEntity
  8
Shape699
100
AcDbCircle
 10
531.853
 20
-2834.93
 30
0
 40
25.4
100
AcDbArc
 50
0
 51
180
  0
ARC
  5
C3B
330
A02
100
AcDbEntity
  8
Shape708
100
AcDbCircle
 10
3083.28
 20
-2900.97
 30
0
 40
25.4
100
AcDbArc
 50
180
 51
-90
  0
ARC
  5
C3C
330
A02
100
AcDbEntity
  8
Shape709
100
AcDbCircle
 10
3032.48
 20
-2834.93
 30
0
 40
25.4
100
AcDbArc
 50
0
 51
180
  0
ARC
  5
C3D
330
A02
100
AcDbEntity
  8
Shape710
100
AcDbCircle
 10
2430.54
 20
-2737.52
 30
0
 40
20.32
100
AcDbArc
 50
180
 51
0
  0
ARC
  5
C3E
330
A02
100
AcDbEntity
  8
Shape717
100
AcDbCircle
 10
3998.95
 20
-2837.47
 30
0
 40
25.4
100
AcDbArc
 50
-90
 51
0
  0
ARC
  5
C3F
330
A02
100
AcDbEntity
  8
Shape718
100
AcDbCircle
 10
3539.21
 20
-2834.93
 30
0
 40
25.4
100
AcDbArc
 50
0
 51
180
  0
ARC
  5
C40
330
A02
100
AcDbEntity
  8
Shape719
100
AcDbCircle
 10
3488.41
 20
-2900.97
 30
0
 40
25.4
100
AcDbArc
 50
-90
 51
0
  0
ARC
  5
C41
330
A02
100
AcDbEntity
  8
Shape720
100
AcDbCircle
 10
3370.3
 20
-2834.93
 30
0
 40
25.4
100
AcDbArc
 50
0
 51
180
  0
ARC
  5
C42
330
A02
100
AcDbEntity
  8
Shape721
100
AcDbCircle
 10
3201.39
 20
-2834.93
 30
0
 40
25.4
100
AcDbArc
 50
0
 51
180
  0
ARC
  5
C43
330
A02
100
AcDbEntity
  8
Shape724
100
AcDbCircle
 10
3996.41
 20
-2290.1
 30
0
 40
25.4
100
AcDbArc
 50
90
 51
-90
  0
ARC
  5
C44
330
A02
100
AcDbEntity
  8
Shape725
100
AcDbCircle
 10
3996.41
 20
-2117.38
 30
0
 40
25.4
100
AcDbArc
 50
90
 51
-90
  0
ARC
  5
C45
330
A02
100
AcDbEntity
  8
Shape726
100
AcDbCircle
 10
4062.45
 20
-2239.3
 30
0
 40
25.4
100
AcDbArc
 50
-90
 51
0
  0
ARC
  5
C46
330
A02
100
AcDbEntity
  8
Shape729
100
AcDbCircle
 10
3996.41
 20
-1771.94
 30
0
 40
25.4
100
AcDbArc
 50
90
 51
-90
  0
ARC
  5
C47
330
A02
100
AcDbEntity
  8
Shape730
100
AcDbCircle
 10
4062.45
 20
-1822.74
 30
0
 40
25.4
100
AcDbArc
 50
0
 51
90
  0
ARC
  5
C48
330
A02
100
AcDbEntity
  8
Shape731
100
AcDbCircle
 10
3996.41
 20
-1944.66
 30
0
 40
25.4
100
AcDbArc
 50
90
 51
-90
  0
ARC
  5
C49
330
A02
100
AcDbEntity
  8
Shape732
100
AcDbCircle
 10
2430.54
 20
-1418.88
 30
0
 40
20.32
100
AcDbArc
 50
0
 51
180
  0
ARC
  5
C4A
330
A02
100
AcDbEntity
  8
Shape741
100
AcDbCircle
 10
2430.54
 20
-1251.24
 30
0
 40
20.32
100
AcDbArc
 50
180
 51
0
  0
ARC
  5
C4B
330
A02
100
AcDbEntity
  8
Shape745
100
AcDbCircle
 10
531.853
 20
296.886
 30
0
 40
25.4
100
AcDbArc
 50
180
 51
0
  0
ARC
  5
C4C
330
A02
100
AcDbEntity
  8
Shape746
100
AcDbCircle
 10
582.653
 20
362.926
 30
0
 40
25.4
100
AcDbArc
 50
90
 51
180
  0
ARC
  5
C4D
330
A02
100
AcDbEntity
  8
Shape747
100
AcDbCircle
 10
700.763
 20
296.886
 30
0
 40
25.4
100
AcDbArc
 50
180
 51
0
  0
ARC
  5
C4E
330
A02
100
AcDbEntity
  8
Shape748
100
AcDbCircle
 10
869.673
 20
296.886
 30
0
 40
25.4
100
AcDbArc
 50
180
 51
0
  0
ARC
  5
C4F
330
A02
100
AcDbEntity
  8
Shape749
100
AcDbCircle
 10
987.783
 20
362.926
 30
0
 40
25.4
100
AcDbArc
 50
0
 51
90
  0
ARC
  5
C50
330
A02
100
AcDbEntity
  8
Shape750
100
AcDbCircle
 10
1038.58
 20
296.886
 30
0
 40
25.4
100
AcDbArc
 50
180
 51
0
  0
ARC
  5
C51
330
A02
100
AcDbEntity
  8
Shape755
100
AcDbCircle
 10
3996.41
 20
-247.944
 30
0
 40
25.4
100
AcDbArc
 50
90
 51
-90
  0
ARC
  5
C52
330
A02
100
AcDbEntity
  8
Shape756
100
AcDbCircle
 10
4062.45
 20
-298.744
 30
0
 40
25.4
100
AcDbArc
 50
0
 51
90
  0
ARC
  5
C53
330
A02
100
AcDbEntity
  8
Shape757
100
AcDbCircle
 10
3996.41
 20
-420.664
 30
0
 40
25.4
100
AcDbArc
 50
90
 51
-90
  0
ARC
  5
C54
330
A02
100
AcDbEntity
  8
Shape758
100
AcDbCircle
 10
3996.41
 20
-593.384
 30
0
 40
25.4
100
AcDbArc
 50
90
 51
-90
  0
ARC
  5
C55
330
A02
100
AcDbEntity
  8
Shape759
100
AcDbCircle
 10
4062.45
 20
-715.304
 30
0
 40
25.4
100
AcDbArc
 50
-90
 51
0
  0
ARC
  5
C56
330
A02
100
AcDbEntity
  8
Shape760
100
AcDbCircle
 10
3996.41
 20
-766.104
 30
0
 40
25.4
100
AcDbArc
 50
90
 51
-90
  0
ARC
  5
C57
330
A02
100
AcDbEntity
  8
Shape768
100
AcDbCircle
 10
3032.48
 20
296.886
 30
0
 40
25.4
100
AcDbArc
 50
180
 51
0
  0
ARC
  5
C58
330
A02
100
AcDbEntity
  8
Shape769
100
AcDbCircle
 10
3083.28
 20
362.926
 30
0
 40
25.4
100
AcDbArc
 50
90
 51
180
  0
ARC
  5
C59
330
A02
100
AcDbEntity
  8
Shape770
100
AcDbCircle
 10
3201.39
 20
296.886
 30
0
 40
25.4
100
AcDbArc
 50
180
 51
0
  0
ARC
  5
C5A
330
A02
100
AcDbEntity
  8
Shape771
100
AcDbCircle
 10
3370.3
 20
296.886
 30
0
 40
25.4
100
AcDbArc
 50
180
 51
0
  0
ARC
  5
C5B
330
A02
100
AcDbEntity
  8
Shape772
100
AcDbCircle
 10
3488.41
 20
362.926
 30
0
 40
25.4
100
AcDbArc
 50
0
 51
90
  0
ARC
  5
C5C
330
A02
100
AcDbEntity
  8
Shape773
100
AcDbCircle
 10
3539.21
 20
296.886
 30
0
 40
25.4
100
AcDbArc
 50
180
 51
0
  0
ARC
  5
C5D
330
A02
100
AcDbEntity
  8
Shape774
100
AcDbCircle
 10
3998.95
 20
299.426
 30
0
 40
25.4
100
AcDbArc
 50
0
 51
90
  0
ARC
  5
C5E
330
A02
100
AcDbEntity
  8
Shape783
100
AcDbCircle
 10
2430.54
 20
199.481
 30
0
 40
20.32
100
AcDbArc
 50
0
 51
180
  0
LINE
  5
C5F
330
A02
100
AcDbEntity
  8
Line001
100
AcDbLine
 10
3042.3
 20
-2719.74
 30
0
 11
3042.3
 21
-2363.38
 31
0
  0
LINE
  5
C60
330
A02
100
AcDbEntity
  8
Line
100
AcDbLine
 10
-3937.28
 20
-2862.87
 30
0
 11
506.453
 21
-2862.87
 31
0
  0
LINE
  5
C61
330
A02
100
AcDbEntity
  8
Line002
100
AcDbLine
 10
2916.06
 20
-2363.38
 30
0
 11
2916.06
 21
-2719.74
 31
0
  0
ENDSEC
  0
SECTION
  2
OBJECTS
  0
DICTIONARY
  5
F000
330
0
100
AcDbDictionary
  3
ACAD_GROUP
350
F001
  0
DICTIONARY
  5
F001
330
F000
100
AcDbDictionary
  0
ENDSEC
  0
EOF