0
SECTION
2
HEADER
9
$INSUNITS
70
4
9
$ACADVER
1
AC1014
9
$HANDSEED
5
FFFF
0
ENDSEC
0
SECTION
2
TABLES
0
TABLE
2
VPORT
5
8
100
AcDbSymbolTable
0
ENDTAB
0
TABLE
2
LTYPE
5
5
100
AcDbSymbolTable
0
LTYPE
5
14
100
AcDbSymbolTableRecord
100
AcDbLinetypeTableRecord
2
BYBLOCK
70
0
0
LTYPE
5
15
100
AcDbSymbolTableRecord
100
AcDbLinetypeTableRecord
2
BYLAYER
70
0
0
ENDTAB
0
TABLE
2
LAYER
5
2
100
AcDbSymbolTable
70
2
0
LAYER
5
50
100
AcDbSymbolTableRecord
100
AcDbLayerTableRecord
2
0
70
0
6
CONTINUOUS
0
ENDTAB
0
TABLE
2
STYLE
5
3
100
AcDbSymbolTable
70
1
0
STYLE
5
11
100
AcDbSymbolTableRecord
100
AcDbTextStyleTableRecord
2
STANDARD
70
0
0
ENDTAB
0
TABLE
2
VIEW
5
6
100
AcDbSymbolTable
70
0
0
ENDTAB
0
TABLE
2
UCS
5
7
100
AcDbSymbolTable
70
0
0
ENDTAB
0
TABLE
2
APPID
5
9
100
AcDbSymbolTable
70
2
0
APPID
5
12
100
AcDbSymbolTableRecord
100
AcDbRegAppTableRecord
2
ACAD
70
0
0
ENDTAB
0
TABLE
2
DIMSTYLE
5
A
100
AcDbSymbolTable
70
1
0
ENDTAB
0
TABLE
2
BLOCK_RECORD
5
1
100
AcDbSymbolTable
70
1
0
BLOCK_RECORD
5
1F
100
AcDbSymbolTableRecord
100
AcDbBlockTableRecord
2
*MODEL_SPACE
0
BLOCK_RECORD
5
1B
100
AcDbSymbolTableRecord
100
AcDbBlockTableRecord
2
*PAPER_SPACE
0
ENDTAB
0
ENDSEC
0
SECTION
2
BLOCKS
0
BLOCK
5
20
100
AcDbEntity
100
AcDbBlockBegin
2
*MODEL_SPACE
0
ENDBLK
5
21
100
AcDbEntity
100
AcDbBlockEnd
0
BLOCK
5
1C
100
AcDbEntity
100
AcDbBlockBegin
2
*PAPER_SPACE
0
ENDBLK
5
1D
100
AcDbEntity
100
AcDbBlockEnd
0
ENDSEC
0
SECTION
2
ENTITIES
0
LWPOLYLINE
5
100
100
AcDbEntity
8
0
100
AcDbPolyline
90
62
70
1
43
0.0
10
368.53799999999984
20
153.93805243479878
10
367.53799999999984
20
153.93805243479878
42
0.41421356237309853
10
366.03799999999984
20
152.43805243479878
42
-0.41421356237305684
10
364.53799999999978
20
150.93805243479878
10
289.38487499999979
20
150.93805243479875
42
-0.41421356237311241
10
287.88487499999974
20
152.43805243479875
42
0.41421356237310886
10
286.38487499999985
20
153.93805243479881
10
285.38487499999974
20
153.93805243479878
42
0.41421356237308465
10
283.88487499999985
20
152.43805243479878
42
-0.41421356237311241
10
282.38487499999974
20
150.93805243479875
10
207.23174999999983
20
150.93805243479875
42
-0.41421356237308121
10
205.73174999999981
20
152.43805243479875
42
0.41421356237311929
10
204.23174999999983
20
153.93805243479878
10
203.23174999999981
20
153.93805243479878
42
0.41421356237307422
10
201.73174999999981
20
152.43805243479875
42
-0.41421356237309509
10
200.23174999999981
20
150.93805243479875
10
125.07862499999987
20
150.93805243479875
42
-0.41421356237308121
10
123.57862499999987
20
152.43805243479875
42
0.4142135623730881
10
122.07862499999979
20
153.93805243479886
10
121.07862499999982
20
153.93805243479875
42
0.41421356237310197
10
119.57862499999978
20
152.43805243479875
42
-0.41421356237311241
10
118.07862499999979
20
150.93805243479875
10
42.925499999999772
20
150.93805243479878
42
-0.4142135623730881
10
41.425499999999779
20
152.43805243479875
42
0.41421356237309165
10
39.925499999999786
20
153.93805243479875
10
38.925499999999786
20
153.93805243479875
42
0.41421356237309243
10
37.425499999999808
20
152.43805243479875
42
-0.41421356237310109
10
35.925499999999772
20
150.93805243479875
10
30.400499999999795
20
150.93805243479875
42
0.41421356237308121
10
28.900499999999841
20
149.43805243479875
10
28.900499999999809
20
31.375552434798379
42
0.4142135623730942
10
30.400499999999827
20
29.875552434798362
10
39.497374999999835
20
29.875552434798699
42
-0.41421356237309509
10
40.997374999999828
20
28.375552434799051
42
0.41421356237309243
10
42.497374999999799
20
26.875552434799097
10
43.497374999999749
20
26.87555243479844
42
0.41421356237309587
10
44.99737500000041
20
28.375552434799051
42
-0.41421356237309243
10
46.497374999999785
20
29.875552434799051
10
109.49737499999981
20
29.875552434798728
42
-0.4142135623730942
10
110.99737499999981
20
28.375552434799083
42
0.4142135623730881
10
112.49737499999981
20
26.875552434799094
10
113.49737499999982
20
26.87555243479844
42
0.41421356237309243
10
114.99737500000045
20
28.375552434799083
42
-0.4142135623731002
10
116.49737499999979
20
29.875552434799069
10
215.53799999999973
20
29.875552434798763
42
-0.41421356237308898
10
217.03799999999973
20
28.37555243479909
42
0.41421356237310197
10
218.53799999999976
20
26.875552434799094
10
219.53799999999973
20
26.875552434798458
42
0.41421356237308726
10
221.03800000000041
20
28.375552434799111
42
-0.41421356237308637
10
222.53799999999984
20
29.875552434799108
10
364.53799999999967
20
29.875552434798742
42
-0.41421356237310625
10
366.03799999999978
20
28.375552434799122
42
0.41421356237311319
10
367.53799999999984
20
26.875552434799069
10
368.53799999999978
20
26.875552434798529
42
0.41421356237311585
10
370.03800000000058
20
28.375552434799122
42
-0.41421356237309587
10
371.53799999999984
20
29.875552434799122
10
377.06299999999993
20
29.875552434798784
42
0.41421356237308382
10
378.56299999999948
20
31.375552434798429
10
378.56299999999987
20
149.43805243479875
42
0.41421356237304996
10
377.06299999999993
20
150.93805243479881
10
371.53799999999984
20
150.93805243479878
42
-0.41421356237309853
10
370.03799999999984
20
152.43805243479878
42
0.41421356237306728
0
LWPOLYLINE
5
101
100
AcDbEntity
8
0
100
AcDbPolyline
90
8
70
1
43
0.0
10
285.98124999999982
20
84.000552434798763
42
0.41421356237309509
10
285.48124999999982
20
84.500552434798806
10
278.98124999999987
20
84.500552434798792
42
0.41421356237307422
10
278.48124999999982
20
84.000552434798806
10
278.48124999999976
20
70.000552434798749
42
0.41421356237305862
10
278.98124999999987
20
69.500552434798692
10
285.48124999999982
20
69.500552434798749
42
0.41421356237307944
10
285.98124999999976
20
70.000552434798749
0
LWPOLYLINE
5
102
100
AcDbEntity
8
0
100
AcDbPolyline
90
8
70
1
43
0.0
10
35.306749999999816
20
85.500552434798749
42
0.41421356237308982
10
34.806749999999823
20
85.000552434798777
10
34.806749999999823
20
72.000552434798777
42
0.41421356237311063
10
35.306749999999809
20
71.50055243479872
10
53.069249999999784
20
71.500552434798735
42
0.41421356237308982
10
53.569249999999791
20
72.000552434798777
10
53.569249999999791
20
85.000552434798763
42
0.4142135623731471
10
53.069249999999784
20
85.500552434798749
0
LWPOLYLINE
5
103
100
AcDbEntity
8
0
100
AcDbPolyline
90
8
70
1
43
0.0
10
132.15049999999979
20
104.05055243479879
10
132.15049999999979
20
91.050552434798675
42
-0.41421356237313667
10
131.65049999999979
20
90.550552434798703
10
118.65049999999982
20
90.550552434798774
42
-0.41421356237308465
10
118.15049999999979
20
91.050552434798789
10
118.15049999999979
20
104.05055243479879
42
-0.4142135623731471
10
118.65049999999981
20
104.55055243479877
10
131.65049999999979
20
104.55055243479877
42
-0.41421356237312629
0
LWPOLYLINE
5
104
100
AcDbEntity
8
0
100
AcDbPolyline
90
8
70
1
43
0.0
10
288.36249999999978
20
122.1005524347988
42
0.41421356237309509
10
287.86249999999984
20
122.60055243479877
10
281.36249999999984
20
122.60055243479881
42
0.4142135623730534
10
280.86249999999978
20
122.10055243479871
10
280.86249999999973
20
108.10055243479869
42
0.4142135623730222
10
281.36249999999973
20
107.60055243479874
10
287.86249999999984
20
107.60055243479877
42
0.41421356237307422
10
288.36249999999978
20
108.10055243479879
0
LWPOLYLINE
5
105
100
AcDbEntity
8
0
100
AcDbPolyline
90
8
70
1
43
0.0
10
112.60049999999978
20
90.550552434798774
42
0.41421356237309509
10
113.10049999999978
20
91.050552434798789
10
113.10049999999978
20
104.05055243479879
42
0.4142135623730222
10
112.60049999999978
20
104.55055243479877
10
99.600499999999798
20
104.55055243479877
42
0.41421356237304296
10
99.100499999999769
20
104.05055243479879
10
99.100499999999784
20
91.050552434798789
42
0.41421356237308465
10
99.600499999999812
20
90.550552434798774
0
LWPOLYLINE
5
106
100
AcDbEntity
8
0
100
AcDbPolyline
90
8
70
1
43
0.0
10
199.11299999999983
20
72.000552434798692
10
199.11299999999983
20
85.000552434798763
42
-0.41421356237312629
10
199.6129999999998
20
85.500552434798692
10
212.61299999999983
20
85.500552434798692
42
-0.41421356237306384
10
213.11299999999989
20
85.000552434798777
10
213.11299999999989
20
72.000552434798692
42
-0.41421356237301699
10
212.6129999999998
20
71.500552434798692
10
199.6129999999998
20
71.500552434798777
42
-0.41421356237311063
0
LWPOLYLINE
5
107
100
AcDbEntity
8
0
100
AcDbPolyline
90
8
70
1
43
0.0
10
103.86299999999977
20
72.000552434798777
10
103.86299999999979
20
85.000552434798763
42
-0.41421356237313667
10
104.3629999999998
20
85.500552434798763
10
117.36299999999979
20
85.500552434798763
42
-0.41421356237307422
10
117.8629999999998
20
85.000552434798763
10
117.8629999999998
20
72.000552434798777
42
-0.41421356237312629
10
117.36299999999979
20
71.500552434798777
10
104.36299999999981
20
71.500552434798735
42
-0.41421356237313145
0
LWPOLYLINE
5
108
100
AcDbEntity
8
0
100
AcDbPolyline
90
8
70
1
43
0.0
10
361.03799999999984
20
110.10055243479881
42
0.41421356237290774
10
361.53799999999978
20
109.6005524347988
10
374.53799999999978
20
109.6005524347988
42
0.41421356237315754
10
375.03799999999984
20
110.10055243479881
10
375.03799999999978
20
123.1005524347988
42
0.41421356237295975
10
374.53799999999978
20
123.60055243479883
10
361.53799999999984
20
123.6005524347988
42
0.41421356237326157
10
361.03799999999978
20
123.1005524347988
0
LWPOLYLINE
5
109
100
AcDbEntity
8
0
100
AcDbPolyline
90
8
70
1
43
0.0
10
252.00049999999976
20
104.55055243479883
10
265.00049999999987
20
104.55055243479883
42
-0.41421356237311585
10
265.50049999999987
20
104.05055243479879
10
265.50049999999987
20
91.050552434798803
42
-0.41421356237298057
10
265.00049999999987
20
90.550552434798789
10
252.00049999999976
20
90.550552434798817
42
-0.41421356237308465
10
251.50049999999976
20
91.050552434798803
10
251.50049999999976
20
104.05055243479879
42
-0.41421356237307422
0
LWPOLYLINE
5
110
100
AcDbEntity
8
0
100
AcDbPolyline
90
8
70
1
43
0.0
10
217.87549999999976
20
123.10055243479879
42
0.41421356237307422
10
217.37549999999973
20
123.60055243479883
10
204.37549999999987
20
123.6005524347988
42
0.41421356237306384
10
203.87549999999973
20
123.10055243479879
10
203.87549999999976
20
110.10055243479877
42
0.41421356237309509
10
204.37549999999987
20
109.6005524347988
10
217.37549999999973
20
109.60055243479879
42
0.41421356237312629
10
217.87549999999976
20
110.10055243479877
0
LWPOLYLINE
5
111
100
AcDbEntity
8
0
100
AcDbPolyline
90
8
70
1
43
0.0
10
336.93799999999982
20
104.05055243479879
42
0.41421356237299095
10
336.43799999999999
20
104.55055243479873
10
323.43799999999987
20
104.5505524347987
42
0.41421356237335516
10
322.93799999999982
20
104.05055243479879
10
322.93799999999987
20
91.050552434798703
42
0.41421356237313667
10
323.43799999999987
20
90.550552434798675
10
336.43799999999993
20
90.550552434798718
42
0.41421356237307422
10
336.93799999999982
20
91.050552434798703
0
LWPOLYLINE
5
112
100
AcDbEntity
8
0
100
AcDbPolyline
90
8
70
1
43
0.0
10
188.8004999999998
20
90.550552434798789
10
175.80049999999974
20
90.55055243479876
42
-0.41421356237307422
10
175.30049999999974
20
91.050552434798803
10
175.30049999999974
20
104.05055243479879
42
-0.41421356237313667
10
175.80049999999974
20
104.55055243479879
10
188.8004999999998
20
104.55055243479879
42
-0.41421356237313667
10
189.3004999999998
20
104.05055243479879
10
189.3004999999998
20
91.050552434798803
42
-0.41421356237309509
0
LWPOLYLINE
5
113
100
AcDbEntity
8
0
100
AcDbPolyline
90
8
70
1
43
0.0
10
355.98799999999977
20
123.1005524347988
42
0.41421356237295975
10
355.48799999999977
20
123.60055243479883
10
342.48799999999983
20
123.6005524347988
42
0.41421356237319912
10
341.98799999999972
20
123.1005524347988
10
341.98799999999983
20
110.10055243479881
42
0.41421356237326157
10
342.48799999999983
20
109.60055243479884
10
355.48799999999977
20
109.6005524347988
42
0.41421356237315754
10
355.98799999999983
20
110.10055243479881
0
LWPOLYLINE
5
114
100
AcDbEntity
8
0
100
AcDbPolyline
90
8
70
1
43
0.0
10
341.98799999999983
20
133.91305243479874
10
341.98799999999972
20
146.91305243479874
42
-0.41421356237319912
10
342.48799999999983
20
147.41305243479874
10
355.48799999999977
20
147.41305243479877
42
-0.41421356237295975
10
355.98799999999977
20
146.91305243479874
10
355.98799999999983
20
133.91305243479874
42
-0.41421356237315754
10
355.48799999999977
20
133.41305243479874
10
342.48799999999983
20
133.41305243479877
42
-0.41421356237326157
0
LWPOLYLINE
5
115
100
AcDbEntity
8
0
100
AcDbPolyline
90
8
70
1
43
0.0
10
80.550499999999801
20
104.55055243479877
10
93.550499999999772
20
104.55055243479877
42
-0.41421356237308465
10
94.050499999999772
20
104.05055243479879
10
94.050499999999801
20
91.050552434798789
42
-0.41421356237307422
10
93.550499999999786
20
90.550552434798774
10
80.550499999999801
20
90.550552434798774
42
-0.41421356237310542
10
80.050499999999815
20
91.050552434798789
10
80.050499999999829
20
104.05055243479879
42
-0.41421356237316787
0
LWPOLYLINE
5
116
100
AcDbEntity
8
0
100
AcDbPolyline
90
8
70
1
43
0.0
10
103.57549999999978
20
123.10055243479874
10
103.57549999999981
20
110.10055243479877
42
-0.41421356237312629
10
103.07549999999979
20
109.60055243479874
10
90.075499999999806
20
109.60055243479874
42
-0.41421356237313667
10
89.57549999999982
20
110.10055243479877
10
89.575499999999806
20
123.10055243479874
42
-0.41421356237313667
10
90.075499999999792
20
123.60055243479877
10
103.07549999999978
20
123.60055243479877
42
-0.41421356237310542
0
LWPOLYLINE
5
117
100
AcDbEntity
8
0
100
AcDbPolyline
90
8
70
1
43
0.0
10
375.03799999999978
20
104.05055243479879
42
0.41421356237300133
10
374.53799999999978
20
104.55055243479875
10
361.53799999999984
20
104.5505524347987
42
0.41421356237330315
10
361.03799999999984
20
104.05055243479879
10
361.03799999999984
20
91.050552434798732
42
0.41421356237290774
10
361.53799999999978
20
90.550552434798718
10
374.53799999999978
20
90.550552434798718
42
0.41421356237313667
10
375.03799999999984
20
91.050552434798732
0
LWPOLYLINE
5
118
100
AcDbEntity
8
0
100
AcDbPolyline
90
8
70
1
43
0.0
10
355.98799999999977
20
104.05055243479879
10
355.98799999999983
20
91.050552434798732
42
-0.41421356237330315
10
355.48799999999977
20
90.550552434798718
10
342.48799999999983
20
90.550552434798718
42
-0.41421356237327195
10
341.98799999999983
20
91.050552434798703
10
341.98799999999977
20
104.05055243479879
42
-0.41421356237325113
10
342.48799999999983
20
104.5505524347987
10
355.48799999999977
20
104.55055243479875
42
-0.41421356237300133
0
LWPOLYLINE
5
119
100
AcDbEntity
8
0
100
AcDbPolyline
90
8
70
1
43
0.0
10
98.812999999999789
20
85.000552434798763
10
98.812999999999803
20
72.000552434798777
42
-0.41421356237315754
10
98.312999999999775
20
71.500552434798777
10
85.312999999999803
20
71.500552434798749
42
-0.41421356237315227
10
84.812999999999818
20
72.000552434798692
10
84.812999999999789
20
85.000552434798763
42
-0.41421356237309509
10
85.312999999999803
20
85.500552434798763
10
98.312999999999775
20
85.500552434798763
42
-0.41421356237313667
0
LWPOLYLINE
5
120
100
AcDbEntity
8
0
100
AcDbPolyline
90
8
70
1
43
0.0
10
65.762999999999778
20
72.000552434798777
42
0.41421356237310542
10
66.262999999999778
20
71.50055243479872
10
79.262999999999778
20
71.500552434798777
42
0.41421356237310542
10
79.762999999999806
20
72.000552434798777
10
79.762999999999778
20
85.000552434798763
42
0.41421356237313667
10
79.262999999999764
20
85.500552434798749
10
66.262999999999778
20
85.500552434798749
42
0.41421356237308465
10
65.762999999999778
20
85.000552434798763
0
LWPOLYLINE
5
121
100
AcDbEntity
8
0
100
AcDbPolyline
90
8
70
1
43
0.0
10
275.02549999999974
20
123.1005524347988
42
0.41421356237313667
10
274.52549999999974
20
123.6005524347988
10
261.52549999999974
20
123.6005524347988
42
0.4142135623730222
10
261.02549999999979
20
123.1005524347988
10
261.02549999999974
20
110.10055243479881
42
0.4142135623731471
10
261.52549999999974
20
109.60055243479879
10
274.52549999999974
20
109.6005524347988
42
0.41421356237301177
10
275.02549999999974
20
110.10055243479881
0
LWPOLYLINE
5
122
100
AcDbEntity
8
0
100
AcDbPolyline
90
8
70
1
43
0.0
10
37.187999999999803
20
91.050552434798789
10
37.187999999999811
20
104.05055243479879
42
-0.41421356237312101
10
37.687999999999811
20
104.55055243479877
10
50.687999999999782
20
104.55055243479877
42
-0.41421356237310542
10
51.187999999999789
20
104.05055243479879
10
51.187999999999796
20
91.050552434798789
42
-0.41421356237312101
10
50.687999999999782
20
90.550552434798774
10
37.687999999999846
20
90.550552434798774
42
-0.41421356237311319
0
LWPOLYLINE
5
123
100
AcDbEntity
8
0
100
AcDbPolyline
90
8
70
1
43
0.0
10
46.425499999999786
20
123.10055243479874
10
46.425499999999779
20
110.10055243479876
42
-0.41421356237311063
10
45.925499999999779
20
109.60055243479874
10
32.925499999999772
20
109.60055243479871
42
-0.414213562373069
10
32.425499999999808
20
110.10055243479876
10
32.425499999999801
20
123.10055243479873
42
-0.41421356237309509
10
32.925499999999808
20
123.60055243479877
10
45.925499999999744
20
123.60055243479877
42
-0.41421356237304296
0
LWPOLYLINE
5
124
100
AcDbEntity
8
0
100
AcDbPolyline
90
8
70
1
43
0.0
10
169.75049999999982
20
90.550552434798789
42
0.41421356237301177
10
170.25049999999982
20
91.050552434798803
10
170.25049999999982
20
104.05055243479879
42
0.4142135623730534
10
169.75049999999982
20
104.55055243479879
10
156.75049999999982
20
104.55055243479877
42
0.4142135623731471
10
156.25049999999982
20
104.05055243479879
10
156.25049999999982
20
91.050552434798803
42
0.41421356237303264
10
156.75049999999985
20
90.550552434798774
0
LWPOLYLINE
5
125
100
AcDbEntity
8
0
100
AcDbPolyline
90
8
70
1
43
0.0
10
231.66299999999976
20
71.500552434798692
10
218.66299999999973
20
71.500552434798763
42
-0.41421356237309509
10
218.16299999999973
20
72.000552434798692
10
218.16299999999978
20
85.000552434798763
42
-0.41421356237306384
10
218.66299999999973
20
85.500552434798692
10
231.66299999999976
20
85.500552434798678
42
-0.41421356237307422
10
232.16299999999976
20
85.000552434798777
10
232.16299999999976
20
72.000552434798735
42
-0.4142135623730222
0
LWPOLYLINE
5
126
100
AcDbEntity
8
0
100
AcDbPolyline
90
8
70
1
43
0.0
10
128.17549999999983
20
123.60055243479877
10
141.1754999999998
20
123.60055243479876
42
-0.4142135623730534
10
141.6754999999998
20
123.10055243479874
10
141.6754999999998
20
110.10055243479877
42
-0.41421356237310542
10
141.1754999999998
20
109.60055243479879
10
128.17549999999983
20
109.60055243479874
42
-0.41421356237310542
10
127.67549999999979
20
110.10055243479877
10
127.67549999999979
20
123.10055243479874
42
-0.41421356237310542
0
LWPOLYLINE
5
127
100
AcDbEntity
8
0
100
AcDbPolyline
90
8
70
1
43
0.0
10
375.03799999999978
20
146.91305243479874
10
375.03799999999984
20
133.91305243479877
42
-0.4142135623731471
10
374.53799999999978
20
133.41305243479877
10
361.53799999999978
20
133.41305243479874
42
-0.41421356237290774
10
361.03799999999984
20
133.91305243479874
10
361.03799999999978
20
146.91305243479874
42
-0.41421356237326157
10
361.53799999999984
20
147.41305243479874
10
374.53799999999978
20
147.41305243479877
42
-0.41421356237295975
0
LWPOLYLINE
5
128
100
AcDbEntity
8
0
100
AcDbPolyline
90
8
70
1
43
0.0
10
160.72549999999978
20
123.10055243479874
10
160.72549999999978
20
110.10055243479877
42
-0.41421356237312629
10
160.22549999999978
20
109.60055243479879
10
147.22549999999984
20
109.60055243479879
42
-0.4142135623731471
10
146.72549999999978
20
110.10055243479877
10
146.72549999999978
20
123.10055243479874
42
-0.41421356237309509
10
147.22549999999981
20
123.60055243479877
10
160.22549999999978
20
123.60055243479879
42
-0.41421356237307422
0
LWPOLYLINE
5
129
100
AcDbEntity
8
0
100
AcDbPolyline
90
8
70
1
43
0.0
10
65.475499999999784
20
123.10055243479874
42
0.41421356237312101
10
64.975499999999784
20
123.60055243479877
10
51.975499999999784
20
123.60055243479877
42
0.41421356237311063
10
51.475499999999776
20
123.10055243479877
10
51.475499999999784
20
110.10055243479877
42
0.41421356237312101
10
51.975499999999784
20
109.60055243479871
10
64.975499999999784
20
109.60055243479874
42
0.41421356237311063
10
65.475499999999798
20
110.10055243479876
0
LWPOLYLINE
5
130
100
AcDbEntity
8
0
100
AcDbPolyline
90
8
70
1
43
0.0
10
297.69474999999989
20
50.950552434798695
10
297.69474999999989
20
64.950552434798752
42
-0.41421356237307944
10
298.19474999999989
20
65.450552434798766
10
304.69474999999977
20
65.45055243479878
42
-0.41421356237308465
10
305.19474999999966
20
64.950552434798794
10
305.19474999999989
20
50.950552434798752
42
-0.4142135623730222
10
304.69474999999989
20
50.450552434798759
10
298.19474999999977
20
50.450552434798738
42
-0.4142135623731471
0
LWPOLYLINE
5
131
100
AcDbEntity
8
0
100
AcDbPolyline
90
8
70
1
43
0.0
10
336.93799999999982
20
123.1005524347988
42
0.41421356237306384
10
336.43799999999993
20
123.60055243479879
10
323.43799999999987
20
123.6005524347988
42
0.41421356237308465
10
322.93799999999982
20
123.1005524347988
10
322.93799999999987
20
110.10055243479881
42
0.41421356237310542
10
323.43799999999987
20
109.60055243479883
10
336.43799999999993
20
109.6005524347988
42
0.41421356237306384
10
336.93799999999982
20
110.10055243479881
0
LWPOLYLINE
5
132
100
AcDbEntity
8
0
100
AcDbPolyline
90
8
70
1
43
0.0
10
180.06299999999982
20
72.000552434798692
10
180.06299999999982
20
85.000552434798763
42
-0.41421356237306384
10
180.56299999999976
20
85.500552434798692
10
193.56299999999976
20
85.500552434798678
42
-0.41421356237313667
10
194.06299999999987
20
85.000552434798777
10
194.0629999999999
20
72.000552434798692
42
-0.41421356237309509
10
193.56299999999976
20
71.500552434798692
10
180.56299999999976
20
71.500552434798763
42
-0.41421356237309509
0
LWPOLYLINE
5
133
100
AcDbEntity
8
0
100
AcDbPolyline
90
8
70
1
43
0.0
10
61.500499999999789
20
104.55055243479877
42
0.41421356237312629
10
61.000499999999782
20
104.05055243479879
10
61.000499999999782
20
91.050552434798789
42
0.4142135623731002
10
61.500499999999789
20
90.550552434798774
10
74.500499999999775
20
90.550552434798774
42
0.41421356237312101
10
75.000499999999803
20
91.050552434798789
10
75.000499999999775
20
104.05055243479879
42
0.41421356237308465
10
74.500499999999761
20
104.55055243479879
0
LWPOLYLINE
5
134
100
AcDbEntity
8
0
100
AcDbPolyline
90
8
70
1
43
0.0
10
241.97549999999976
20
110.10055243479881
42
0.4142135623731471
10
242.47549999999976
20
109.60055243479879
10
255.47549999999973
20
109.6005524347988
42
0.41421356237311585
10
255.97549999999984
20
110.10055243479881
10
255.97549999999984
20
123.1005524347988
42
0.41421356237309509
10
255.47549999999973
20
123.60055243479877
10
242.47549999999976
20
123.6005524347988
42
0.41421356237298057
10
241.97549999999976
20
123.10055243479879
0
LWPOLYLINE
5
135
100
AcDbEntity
8
0
100
AcDbPolyline
90
8
70
1
43
0.0
10
251.21299999999977
20
85.000552434798777
42
0.41421356237309509
10
250.71299999999977
20
85.50055243479872
10
237.71299999999974
20
85.500552434798692
42
0.41421356237306384
10
237.21299999999985
20
85.000552434798763
10
237.21299999999974
20
72.000552434798692
42
0.41421356237309509
10
237.71299999999974
20
71.500552434798763
10
250.71299999999977
20
71.500552434798692
42
0.4142135623730222
10
251.21299999999977
20
72.000552434798735
0
LWPOLYLINE
5
136
100
AcDbEntity
8
0
100
AcDbPolyline
90
8
70
1
43
0.0
10
208.35049999999973
20
104.05055243479879
10
208.35049999999973
20
91.050552434798703
42
-0.41421356237313667
10
207.85049999999973
20
90.550552434798703
10
194.85049999999973
20
90.55055243479876
42
-0.41421356237308465
10
194.35049999999976
20
91.050552434798703
10
194.35049999999976
20
104.05055243479879
42
-0.41421356237304296
10
194.85049999999973
20
104.55055243479879
10
207.85049999999973
20
104.55055243479879
42
-0.41421356237313667
0
LWPOLYLINE
5
137
100
AcDbEntity
8
0
100
AcDbPolyline
90
8
70
1
43
0.0
10
161.51299999999978
20
85.500552434798763
42
0.4142135623730222
10
161.01299999999981
20
85.000552434798777
10
161.01299999999981
20
72.000552434798692
42
0.41421356237321988
10
161.51299999999981
20
71.500552434798692
10
174.51299999999978
20
71.500552434798678
42
0.41421356237307944
10
175.01299999999983
20
72.000552434798692
10
175.01299999999981
20
85.000552434798777
42
0.4142135623730534
10
174.51299999999978
20
85.500552434798806
0
LWPOLYLINE
5
138
100
AcDbEntity
8
0
100
AcDbPolyline
90
8
70
1
43
0.0
10
223.42549999999989
20
123.6005524347988
10
236.42549999999986
20
123.6005524347988
42
-0.4142135623731471
10
236.92549999999986
20
123.10055243479879
10
236.92549999999983
20
110.10055243479877
42
-0.41421356237310542
10
236.42549999999986
20
109.60055243479879
10
223.42549999999989
20
109.6005524347988
42
-0.41421356237311585
10
222.9254999999998
20
110.10055243479877
10
222.9254999999998
20
123.10055243479879
42
-0.41421356237310542
0
LWPOLYLINE
5
139
100
AcDbEntity
8
0
100
AcDbPolyline
90
8
70
1
43
0.0
10
108.62549999999979
20
110.10055243479877
42
0.41421356237312629
10
109.1254999999998
20
109.60055243479874
10
122.12549999999979
20
109.60055243479879
42
0.41421356237310542
10
122.62549999999979
20
110.10055243479877
10
122.62549999999979
20
123.10055243479874
42
0.4142135623730534
10
122.12549999999979
20
123.60055243479876
10
109.1254999999998
20
123.60055243479877
42
0.41421356237312629
10
108.62549999999978
20
123.10055243479874
0
LWPOLYLINE
5
140
100
AcDbEntity
8
0
100
AcDbPolyline
90
8
70
1
43
0.0
10
98.812999999999789
20
46.900552434798684
10
98.812999999999803
20
33.90055243479889
42
-0.41421356237310542
10
98.312999999999775
20
33.400552434798875
10
82.931749999999766
20
33.400552434798698
42
-0.41421356237309509
10
82.431749999999795
20
33.900552434798882
10
82.431749999999795
20
46.900552434798684
42
-0.41421356237308465
10
82.931749999999781
20
47.400552434798691
10
98.312999999999775
20
47.400552434798719
42
-0.41421356237315227
0
LWPOLYLINE
5
141
100
AcDbEntity
8
0
100
AcDbPolyline
90
8
70
1
43
0.0
10
155.46299999999982
20
71.500552434798692
42
0.41421356237312101
10
155.96299999999982
20
72.000552434798692
10
155.96299999999982
20
85.000552434798777
42
0.4142135623730534
10
155.46299999999979
20
85.500552434798692
10
142.46299999999985
20
85.500552434798692
42
0.41421356237315754
10
141.96299999999982
20
85.000552434798763
10
141.96299999999982
20
72.000552434798692
42
0.41421356237307944
10
142.46299999999985
20
71.500552434798763
0
LWPOLYLINE
5
142
100
AcDbEntity
8
0
100
AcDbPolyline
90
8
70
1
43
0.0
10
213.40049999999977
20
91.050552434798703
42
0.41421356237310542
10
213.90049999999974
20
90.550552434798789
10
226.90049999999985
20
90.550552434798789
42
0.41421356237307422
10
227.40049999999974
20
91.050552434798803
10
227.40049999999985
20
104.05055243479879
42
0.41421356237310542
10
226.90049999999985
20
104.55055243479882
10
213.90049999999974
20
104.55055243479879
42
0.41421356237304296
10
213.40049999999977
20
104.05055243479879
0
LWPOLYLINE
5
143
100
AcDbEntity
8
0
100
AcDbPolyline
90
8
70
1
43
0.0
10
270.55049999999983
20
91.050552434798803
42
0.41421356237308465
10
271.05049999999983
20
90.550552434798817
10
284.05049999999983
20
90.550552434798789
42
0.41421356237309509
10
284.55049999999983
20
91.050552434798803
10
284.55049999999983
20
104.05055243479879
42
0.41421356237310542
10
284.05049999999989
20
104.55055243479885
10
271.05049999999983
20
104.55055243479883
42
0.41421356237307422
10
270.55049999999983
20
104.05055243479879
0
LWPOLYLINE
5
144
100
AcDbEntity
8
0
100
AcDbPolyline
90
8
70
1
43
0.0
10
256.76299999999981
20
85.500552434798777
10
269.76299999999981
20
85.500552434798749
42
-0.4142135623730534
10
270.26299999999981
20
85.000552434798777
10
270.26299999999981
20
72.000552434798735
42
-0.41421356237299617
10
269.76299999999981
20
71.500552434798678
10
256.76299999999981
20
71.500552434798678
42
-0.41421356237301699
10
256.26299999999981
20
72.000552434798692
10
256.26299999999981
20
85.000552434798777
42
-0.4142135623730534
0
LWPOLYLINE
5
145
100
AcDbEntity
8
0
100
AcDbPolyline
90
8
70
1
43
0.0
10
75.000499999999775
20
46.900552434798676
42
0.41421356237311063
10
74.500499999999775
20
47.400552434798719
10
59.119249999999788
20
47.400552434798691
42
0.41421356237310542
10
58.619249999999781
20
46.900552434798684
10
58.619249999999781
20
33.900552434798882
42
0.41421356237309509
10
59.119249999999788
20
33.400552434798684
10
74.500499999999775
20
33.400552434798875
42
0.41421356237308465
10
75.000499999999874
20
33.90055243479889
0
LWPOLYLINE
5
146
100
AcDbEntity
8
0
100
AcDbPolyline
90
8
70
1
43
0.0
10
35.306749999999809
20
47.400552434798691
10
50.687999999999782
20
47.400552434798698
42
-0.41421356237310542
10
51.187999999999789
20
46.900552434798676
10
51.187999999999789
20
33.90055243479889
42
-0.41421356237308726
10
50.687999999999782
20
33.400552434798875
10
35.306749999999809
20
33.400552434798676
42
-0.41421356237308726
10
34.806749999999823
20
33.900552434798882
10
34.806749999999816
20
46.900552434798684
42
-0.41421356237307683
0
LWPOLYLINE
5
147
100
AcDbEntity
8
0
100
AcDbPolyline
90
8
70
1
43
0.0
10
184.82549999999972
20
110.10055243479877
10
184.82549999999975
20
123.10055243479879
42
-0.41421356237307422
10
185.32549999999983
20
123.60055243479877
10
198.32549999999983
20
123.60055243479883
42
-0.41421356237309509
10
198.82549999999981
20
123.10055243479879
10
198.82549999999981
20
110.10055243479877
42
-0.41421356237310542
10
198.32549999999983
20
109.60055243479879
10
185.32549999999983
20
109.60055243479877
42
-0.41421356237307422
0
LWPOLYLINE
5
148
100
AcDbEntity
8
0
100
AcDbPolyline
90
8
70
1
43
0.0
10
300.71924999999982
20
71.500552434798692
42
0.41421356237312629
10
301.21924999999982
20
72.00055243479872
10
301.21924999999982
20
85.000552434798777
42
0.41421356237309509
10
300.71924999999982
20
85.50055243479872
10
287.71924999999982
20
85.500552434798735
42
0.41421356237306384
10
287.21924999999987
20
85.000552434798763
10
287.21924999999987
20
72.000552434798692
42
0.41421356237311063
10
287.71924999999982
20
71.500552434798763
0
LWPOLYLINE
5
149
100
AcDbEntity
8
0
100
AcDbPolyline
90
8
70
1
43
0.0
10
122.91299999999978
20
72.000552434798692
42
0.41421356237307944
10
123.41299999999978
20
71.500552434798749
10
136.41299999999978
20
71.500552434798692
42
0.41421356237312629
10
136.91299999999978
20
72.000552434798692
10
136.91299999999978
20
85.000552434798763
42
0.41421356237312629
10
136.41299999999978
20
85.500552434798692
10
123.41299999999978
20
85.500552434798763
42
0.41421356237313667
10
122.91299999999978
20
85.000552434798763
0
LWPOLYLINE
5
150
100
AcDbEntity
8
0
100
AcDbPolyline
90
8
70
1
43
0.0
10
246.45049999999983
20
104.05055243479879
10
246.45049999999983
20
91.050552434798803
42
-0.41421356237307422
10
245.95049999999986
20
90.550552434798789
10
232.95049999999981
20
90.550552434798789
42
-0.41421356237313667
10
232.45049999999981
20
91.050552434798803
10
232.45049999999986
20
104.05055243479879
42
-0.41421356237297013
10
232.95049999999981
20
104.55055243479883
10
245.95049999999986
20
104.55055243479883
42
-0.41421356237313667
0
LWPOLYLINE
5
151
100
AcDbEntity
8
0
100
AcDbPolyline
90
8
70
1
43
0.0
10
137.20049999999981
20
91.050552434798675
42
0.41421356237310542
10
137.70049999999978
20
90.550552434798774
10
150.70049999999978
20
90.550552434798703
42
0.4142135623730534
10
151.20049999999978
20
91.050552434798703
10
151.20049999999981
20
104.05055243479879
42
0.41421356237301177
10
150.70049999999981
20
104.55055243479879
10
137.70049999999978
20
104.55055243479877
42
0.41421356237315754
10
137.20049999999981
20
104.05055243479879
0
LWPOLYLINE
5
152
100
AcDbEntity
8
0
100
AcDbPolyline
90
8
70
1
43
0.0
10
308.36299999999983
20
104.05055243479879
10
308.36299999999983
20
91.050552434798703
42
-0.41421356237307422
10
307.86299999999972
20
90.550552434798703
10
294.86299999999972
20
90.550552434798789
42
-0.41421356237307422
10
294.36299999999972
20
91.050552434798803
10
294.36299999999972
20
104.05055243479879
42
-0.41421356237304296
10
294.86299999999972
20
104.55055243479882
10
307.86299999999972
20
104.55055243479882
42
-0.41421356237306384
0
LWPOLYLINE
5
153
100
AcDbEntity
8
0
100
AcDbPolyline
90
8
70
1
43
0.0
10
165.77549999999974
20
110.10055243479877
42
0.41421356237310542
10
166.27549999999979
20
109.60055243479879
10
179.27549999999982
20
109.60055243479879
42
0.41421356237304296
10
179.77549999999982
20
110.10055243479877
10
179.77549999999982
20
123.10055243479879
42
0.41421356237315754
10
179.27549999999982
20
123.60055243479876
10
166.27549999999982
20
123.60055243479877
42
0.41421356237301177
10
165.77549999999974
20
123.10055243479874
0
LWPOLYLINE
5
154
100
AcDbEntity
8
0
100
AcDbPolyline
90
8
70
1
43
0.0
10
222.13799999999981
20
52.450552434798716
10
209.13799999999981
20
52.450552434798709
42
-0.41421356237307944
10
208.63799999999983
20
52.950552434798723
10
208.63799999999983
20
65.950552434798695
42
-0.41421356237307944
10
209.13799999999981
20
66.450552434798709
10
222.13799999999981
20
66.450552434798723
42
-0.41421356237311585
10
222.63799999999981
20
65.950552434798681
10
222.63799999999981
20
52.950552434798723
42
-0.4142135623731471
0
LWPOLYLINE
5
155
100
AcDbEntity
8
0
100
AcDbPolyline
90
8
70
1
43
0.0
10
207.85049999999973
20
133.41305243479871
10
194.85049999999973
20
133.41305243479871
42
-0.41421356237304296
10
194.35049999999976
20
133.91305243479874
10
194.35049999999976
20
146.91305243479874
42
-0.41421356237308465
10
194.85049999999973
20
147.41305243479874
10
207.85049999999973
20
147.41305243479874
42
-0.41421356237313667
10
208.35049999999973
20
146.91305243479874
10
208.35049999999973
20
133.91305243479874
42
-0.41421356237315754
0
LWPOLYLINE
5
156
100
AcDbEntity
8
0
100
AcDbPolyline
90
8
70
1
43
0.0
10
203.08799999999977
20
52.450552434798716
10
190.08799999999977
20
52.450552434798688
42
-0.41421356237311063
10
189.58799999999974
20
52.950552434798723
10
189.58799999999974
20
65.950552434798695
42
-0.4142135623731471
10
190.08799999999977
20
66.450552434798709
10
203.08799999999977
20
66.450552434798723
42
-0.41421356237308982
10
203.58799999999974
20
65.950552434798681
10
203.58799999999974
20
52.950552434798723
42
-0.41421356237307944
0
LWPOLYLINE
5
157
100
AcDbEntity
8
0
100
AcDbPolyline
90
8
70
1
43
0.0
10
184.03799999999973
20
52.450552434798681
10
171.03799999999978
20
52.450552434798688
42
-0.41421356237313667
10
170.53799999999978
20
52.950552434798695
10
170.53799999999978
20
65.950552434798695
42
-0.41421356237309509
10
171.03799999999978
20
66.450552434798709
10
184.03799999999973
20
66.450552434798709
42
-0.41421356237314189
10
184.53799999999973
20
65.950552434798681
10
184.53799999999973
20
52.950552434798723
42
-0.41421356237315227
0
LWPOLYLINE
5
158
100
AcDbEntity
8
0
100
AcDbPolyline
90
8
70
1
43
0.0
10
108.62549999999979
20
133.91305243479871
42
0.41421356237316787
10
109.1254999999998
20
133.41305243479871
10
122.12549999999979
20
133.41305243479871
42
0.41421356237310542
10
122.62549999999979
20
133.91305243479871
10
122.62549999999979
20
146.91305243479874
42
0.41421356237309509
10
122.12549999999979
20
147.41305243479874
10
109.1254999999998
20
147.41305243479874
42
0.41421356237307422
10
108.62549999999978
20
146.91305243479874
0
LWPOLYLINE
5
159
100
AcDbEntity
8
0
100
AcDbPolyline
90
8
70
1
43
0.0
10
164.98799999999974
20
52.450552434798681
10
151.9879999999998
20
52.450552434798688
42
-0.41421356237309509
10
151.4879999999998
20
52.950552434798695
10
151.4879999999998
20
65.950552434798695
42
-0.41421356237307422
10
151.9879999999998
20
66.450552434798709
10
164.98799999999974
20
66.450552434798709
42
-0.41421356237314189
10
165.48799999999974
20
65.950552434798681
10
165.48799999999974
20
52.950552434798688
42
-0.41421356237301177
0
LWPOLYLINE
5
160
100
AcDbEntity
8
0
100
AcDbPolyline
90
8
70
1
43
0.0
10
145.93799999999982
20
52.450552434798681
10
132.93799999999979
20
52.45055243479878
42
-0.41421356237308465
10
132.43799999999979
20
52.950552434798695
10
132.43799999999979
20
65.950552434798652
42
-0.41421356237308465
10
132.93799999999979
20
66.450552434798681
10
145.93799999999985
20
66.450552434798709
42
-0.41421356237304818
10
146.43799999999982
20
65.950552434798681
10
146.43799999999982
20
52.950552434798688
42
-0.41421356237306384
0
LWPOLYLINE
5
161
100
AcDbEntity
8
0
100
AcDbPolyline
90
8
70
1
43
0.0
10
84.025499999999766
20
133.41305243479871
10
71.025499999999795
20
133.41305243479869
42
-0.41421356237312101
10
70.525499999999795
20
133.91305243479871
10
70.525499999999795
20
146.91305243479874
42
-0.41421356237310542
10
71.025499999999781
20
147.41305243479874
10
84.025499999999766
20
147.41305243479874
42
-0.4142135623731471
10
84.525499999999795
20
146.91305243479874
10
84.525499999999766
20
133.91305243479871
42
-0.41421356237306384
0
LWPOLYLINE
5
162
100
AcDbEntity
8
0
100
AcDbPolyline
90
8
70
1
43
0.0
10
275.02549999999974
20
146.91305243479874
10
275.02549999999974
20
133.91305243479874
42
-0.41421356237301177
10
274.52549999999974
20
133.41305243479874
10
261.52549999999974
20
133.41305243479871
42
-0.41421356237310542
10
261.02549999999974
20
133.91305243479874
10
261.02549999999979
20
146.91305243479874
42
-0.41421356237310542
10
261.52549999999974
20
147.41305243479874
10
274.52549999999974
20
147.41305243479874
42
-0.41421356237313667
0
LWPOLYLINE
5
163
100
AcDbEntity
8
0
100
AcDbPolyline
90
8
70
1
43
0.0
10
103.07549999999979
20
133.41305243479871
42
0.4142135623730222
10
103.57549999999981
20
133.91305243479871
10
103.57549999999981
20
146.91305243479874
42
0.4142135623731471
10
103.07549999999978
20
147.41305243479874
10
90.075499999999792
20
147.41305243479874
42
0.41421356237310542
10
89.575499999999806
20
146.91305243479874
10
89.57549999999982
20
133.91305243479871
42
0.41421356237311585
10
90.075499999999806
20
133.41305243479871
0
LWPOLYLINE
5
164
100
AcDbEntity
8
0
100
AcDbPolyline
90
8
70
1
43
0.0
10
126.88799999999979
20
52.450552434798681
10
113.88799999999982
20
52.450552434798674
42
-0.4142135623730534
10
113.38799999999979
20
52.950552434798695
10
113.38799999999981
20
65.95055243479878
42
-0.41421356237307422
10
113.88799999999981
20
66.45055243479878
10
126.88799999999979
20
66.450552434798709
42
-0.41421356237311063
10
127.38799999999981
20
65.950552434798666
10
127.38799999999981
20
52.950552434798688
42
-0.41421356237308982
0
LWPOLYLINE
5
165
100
AcDbEntity
8
0
100
AcDbPolyline
90
8
70
1
43
0.0
10
255.97549999999984
20
146.91305243479874
10
255.97549999999984
20
133.91305243479874
42
-0.41421356237306384
10
255.47549999999973
20
133.41305243479874
10
242.47549999999976
20
133.41305243479871
42
-0.4142135623731471
10
241.97549999999976
20
133.91305243479874
10
241.97549999999978
20
146.91305243479874
42
-0.41421356237310542
10
242.47549999999976
20
147.41305243479874
10
255.47549999999973
20
147.41305243479871
42
-0.41421356237309509
0
LWPOLYLINE
5
166
100
AcDbEntity
8
0
100
AcDbPolyline
90
8
70
1
43
0.0
10
107.83799999999978
20
52.450552434798681
10
94.837999999999809
20
52.450552434798674
42
-0.41421356237308465
10
94.337999999999795
20
52.950552434798695
10
94.337999999999795
20
65.95055243479878
42
-0.41421356237305862
10
94.837999999999795
20
66.45055243479878
10
107.83799999999978
20
66.450552434798681
42
-0.41421356237310542
10
108.33799999999981
20
65.95055243479878
10
108.33799999999982
20
52.950552434798688
42
-0.41421356237307944
0
LWPOLYLINE
5
167
100
AcDbEntity
8
0
100
AcDbPolyline
90
8
70
1
43
0.0
10
303.60049999999978
20
123.1005524347988
10
303.6004999999999
20
110.10055243479871
42
-0.41421356237304296
10
303.10049999999978
20
109.60055243479871
10
290.10049999999973
20
109.60055243479871
42
-0.41421356237313667
10
289.60049999999973
20
110.10055243479871
10
289.6004999999999
20
123.1005524347988
42
-0.41421356237304296
10
290.10049999999978
20
123.60055243479871
10
303.10049999999978
20
123.6005524347988
42
-0.41421356237313667
0
LWPOLYLINE
5
168
100
AcDbEntity
8
0
100
AcDbPolyline
90
8
70
1
43
0.0
10
294.07549999999981
20
146.91305243479874
10
294.07549999999981
20
133.91305243479874
42
-0.41421356237301177
10
293.57549999999981
20
133.41305243479874
10
280.57549999999981
20
133.41305243479871
42
-0.41421356237307422
10
280.07549999999981
20
133.91305243479874
10
280.07549999999981
20
146.91305243479874
42
-0.4142135623731471
10
280.57549999999981
20
147.41305243479874
10
293.57549999999981
20
147.41305243479874
42
-0.41421356237313667
0
LWPOLYLINE
5
169
100
AcDbEntity
8
0
100
AcDbPolyline
90
8
70
1
43
0.0
10
169.75049999999982
20
133.41305243479871
10
156.75049999999985
20
133.41305243479871
42
-0.41421356237306384
10
156.25049999999982
20
133.91305243479871
10
156.25049999999982
20
146.91305243479874
42
-0.41421356237307422
10
156.75049999999982
20
147.41305243479874
10
169.75049999999982
20
147.41305243479877
42
-0.41421356237310542
10
170.25049999999982
20
146.91305243479874
10
170.25049999999982
20
133.91305243479874
42
-0.41421356237310542
0
LWPOLYLINE
5
170
100
AcDbEntity
8
0
100
AcDbPolyline
90
8
70
1
43
0.0
10
88.787999999999769
20
52.450552434798681
10
75.787999999999798
20
52.450552434798674
42
-0.41421356237311585
10
75.287999999999784
20
52.950552434798695
10
75.287999999999784
20
65.950552434798652
42
-0.41421356237308982
10
75.787999999999784
20
66.450552434798681
10
88.787999999999812
20
66.450552434798681
42
-0.41421356237308982
10
89.287999999999812
20
65.95055243479878
10
89.287999999999812
20
52.950552434798688
42
-0.41421356237304818
0
LWPOLYLINE
5
171
100
AcDbEntity
8
0
100
AcDbPolyline
90
8
70
1
43
0.0
10
226.90049999999985
20
133.41305243479871
10
213.90049999999974
20
133.41305243479871
42
-0.41421356237304296
10
213.40049999999977
20
133.91305243479874
10
213.40049999999977
20
146.91305243479874
42
-0.41421356237308465
10
213.90049999999974
20
147.41305243479874
10
226.90049999999985
20
147.41305243479874
42
-0.41421356237307422
10
227.40049999999974
20
146.91305243479874
10
227.40049999999974
20
133.91305243479874
42
-0.41421356237308465
0
LWPOLYLINE
5
172
100
AcDbEntity
8
0
100
AcDbPolyline
90
8
70
1
43
0.0
10
46.425499999999786
20
146.91305243479874
10
46.425499999999779
20
133.91305243479871
42
-0.414213562373069
10
45.925499999999779
20
133.41305243479871
10
32.925499999999772
20
133.41305243479871
42
-0.41421356237302481
10
32.425499999999808
20
133.91305243479871
10
32.425499999999808
20
146.91305243479874
42
-0.41421356237311063
10
32.925499999999801
20
147.41305243479874
10
45.925499999999744
20
147.41305243479874
42
-0.41421356237313667
0
LWPOLYLINE
5
173
100
AcDbEntity
8
0
100
AcDbPolyline
90
8
70
1
43
0.0
10
57.831749999999786
20
52.450552434798681
10
44.831749999999744
20
52.450552434798674
42
-0.41421356237309509
10
44.331749999999772
20
52.950552434798695
10
44.331749999999779
20
65.950552434798652
42
-0.41421356237311063
10
44.831749999999772
20
66.450552434798652
10
57.831749999999786
20
66.450552434798681
42
-0.41421356237311063
10
58.331749999999786
20
65.950552434798666
10
58.331749999999801
20
52.950552434798688
42
-0.41421356237312101
0
LWPOLYLINE
5
174
100
AcDbEntity
8
0
100
AcDbPolyline
90
8
70
1
43
0.0
10
355.48799999999977
20
33.400552434798925
42
0.41421356237314189
10
355.98799999999983
20
33.900552434798925
10
355.98799999999977
20
46.900552434798747
42
0.41421356237295454
10
355.48799999999977
20
47.400552434798762
10
342.48799999999983
20
47.400552434798755
42
0.41421356237319912
10
341.98799999999972
20
46.900552434798755
10
341.98799999999972
20
33.900552434798925
42
0.41421356237311846
10
342.48799999999983
20
33.400552434798776
0
LWPOLYLINE
5
175
100
AcDbEntity
8
0
100
AcDbPolyline
90
8
70
1
43
0.0
10
128.1754999999998
20
147.41305243479874
42
0.4142135623730534
10
127.6754999999998
20
146.91305243479874
10
127.67549999999979
20
133.91305243479871
42
0.4142135623731471
10
128.17549999999983
20
133.41305243479871
10
141.1754999999998
20
133.41305243479871
42
0.41421356237310542
10
141.6754999999998
20
133.91305243479871
10
141.6754999999998
20
146.91305243479874
42
0.41421356237309509
10
141.1754999999998
20
147.41305243479874
0
LWPOLYLINE
5
176
100
AcDbEntity
8
0
100
AcDbPolyline
90
8
70
1
43
0.0
10
154.36924999999979
20
47.400552434798691
10
179.27549999999982
20
47.400552434798733
42
-0.4142135623731471
10
179.77549999999982
20
46.900552434798712
10
179.77549999999979
20
33.90055243479889
42
-0.41421356237301699
10
179.27549999999982
20
33.40055243479889
10
154.36924999999979
20
33.400552434798691
42
-0.41421356237306645
10
153.86924999999985
20
33.900552434798897
10
153.86924999999985
20
46.900552434798684
42
-0.41421356237308465
0
LWPOLYLINE
5
177
100
AcDbEntity
8
0
100
AcDbPolyline
90
8
70
1
43
0.0
10
361.53799999999984
20
47.400552434798762
10
374.53799999999978
20
47.400552434798762
42
-0.41421356237295454
10
375.03799999999978
20
46.900552434798747
10
375.03799999999984
20
33.900552434798925
42
-0.41421356237314189
10
374.53799999999978
20
33.400552434798925
10
361.53799999999984
20
33.400552434798733
42
-0.41421356237305601
10
361.03799999999984
20
33.900552434798925
10
361.03799999999984
20
46.900552434798755
42
-0.41421356237326673
0
LWPOLYLINE
5
178
100
AcDbEntity
8
0
100
AcDbPolyline
90
8
70
1
43
0.0
10
247.23799999999983
20
47.400552434798719
42
0.41421356237307944
10
246.73799999999986
20
46.900552434798712
10
246.73799999999986
20
33.900552434798925
42
0.41421356237308982
10
247.23799999999983
20
33.40055243479874
10
262.61924999999974
20
33.400552434798911
42
0.41421356237308204
10
263.11924999999974
20
33.900552434798925
10
263.11924999999974
20
46.900552434798726
42
0.41421356237308465
10
262.61924999999974
20
47.400552434798762
0
LWPOLYLINE
5
179
100
AcDbEntity
8
0
100
AcDbPolyline
90
8
70
1
43
0.0
10
84.525499999999766
20
123.10055243479874
10
84.525499999999795
20
110.10055243479877
42
-0.41421356237312629
10
84.025499999999781
20
109.60055243479874
10
71.025499999999795
20
109.60055243479874
42
-0.41421356237312101
10
70.525499999999795
20
110.10055243479877
10
70.525499999999795
20
123.10055243479877
42
-0.41421356237311063
10
71.025499999999781
20
123.60055243479877
10
84.025499999999766
20
123.60055243479877
42
-0.41421356237306384
0
LWPOLYLINE
5
180
100
AcDbEntity
8
0
100
AcDbPolyline
90
8
70
1
43
0.0
10
188.8004999999998
20
133.41305243479874
10
175.80049999999974
20
133.41305243479871
42
-0.41421356237315754
10
175.30049999999974
20
133.91305243479874
10
175.30049999999974
20
146.91305243479874
42
-0.41421356237313667
10
175.80049999999974
20
147.41305243479874
10
188.80049999999977
20
147.41305243479877
42
-0.4142135623731471
10
189.3004999999998
20
146.91305243479874
10
189.3004999999998
20
133.91305243479874
42
-0.41421356237313667
0
LWPOLYLINE
5
181
100
AcDbEntity
8
0
100
AcDbPolyline
90
8
70
1
43
0.0
10
313.12549999999982
20
146.91305243479874
42
0.41421356237313667
10
312.62549999999982
20
147.41305243479874
10
299.62549999999982
20
147.41305243479874
42
0.4142135623731471
10
299.12549999999982
20
146.91305243479874
10
299.12549999999982
20
133.91305243479874
42
0.41421356237309509
10
299.62549999999982
20
133.41305243479874
10
312.62549999999982
20
133.41305243479874
42
0.41421356237301177
10
313.12549999999982
20
133.91305243479874
0
LWPOLYLINE
5
182
100
AcDbEntity
8
0
100
AcDbPolyline
90
8
70
1
43
0.0
10
323.43799999999987
20
147.41305243479874
42
0.41421356237303264
10
322.93799999999987
20
146.91305243479874
10
322.93799999999987
20
133.91305243479874
42
0.4142135623730222
10
323.43799999999987
20
133.41305243479877
10
336.43799999999993
20
133.41305243479877
42
0.4142135623730534
10
336.93799999999982
20
133.91305243479874
10
336.93799999999982
20
146.91305243479874
42
0.41421356237313667
10
336.43799999999993
20
147.41305243479874
0
LWPOLYLINE
5
183
100
AcDbEntity
8
0
100
AcDbPolyline
90
8
70
1
43
0.0
10
336.43799999999993
20
33.400552434798925
42
0.41421356237312629
10
336.93799999999987
20
33.900552434798925
10
336.93799999999982
20
46.900552434798726
42
0.41421356237300661
10
336.43799999999993
20
47.400552434798762
10
323.43799999999987
20
47.400552434798726
42
0.41421356237309509
10
322.93799999999987
20
46.900552434798719
10
322.93799999999982
20
33.900552434798925
42
0.41421356237311585
10
323.43799999999987
20
33.400552434798705
0
LWPOLYLINE
5
184
100
AcDbEntity
8
0
100
AcDbPolyline
90
8
70
1
43
0.0
10
309.95724999999982
20
84.000552434798692
10
309.95724999999987
20
70.000552434798749
42
-0.41421356237311585
10
309.45724999999982
20
69.500552434798749
10
302.95724999999982
20
69.500552434798735
42
-0.41421356237314189
10
302.45724999999982
20
70.000552434798749
10
302.45724999999982
20
84.000552434798692
42
-0.41421356237304296
10
302.95724999999982
20
84.500552434798792
10
309.45724999999982
20
84.500552434798806
42
-0.41421356237311585
0
LWPOLYLINE
5
185
100
AcDbEntity
8
0
100
AcDbPolyline
90
15
70
1
43
0.0
10
234.2254999999999
20
47.400552434798655
10
238.80674999999974
20
47.400552434798726
42
-0.41421356237314189
10
239.30674999999977
20
46.900552434798712
10
239.30674999999974
20
33.900552434798925
42
-0.41421356237302481
10
238.80674999999974
20
33.400552434798911
10
225.80674999999985
20
33.400552434798698
42
-0.41421356237316265
10
225.30674999999974
20
33.900552434798925
10
225.30674999999977
20
46.900552434798719
42
-0.36178483793724697
10
225.71612499999983
20
47.392270961371601
42
0.36178483793738997
10
226.12549999999985
20
47.883989487944461
10
226.12549999999985
20
48.900552434798783
42
-0.4142135623731002
10
226.62549999999976
20
49.400552434798783
10
233.22549999999981
20
49.400552434798691
42
-0.4142135623731002
10
233.72549999999987
20
48.900552434798783
10
233.7254999999999
20
47.900552434798698
42
0.41421356237301699
0
LWPOLYLINE
5
186
100
AcDbEntity
8
0
100
AcDbPolyline
90
8
70
1
43
0.0
10
214.16924999999981
20
34.400552434798229
42
0.41421356237316787
10
214.66924999999981
20
34.900552434798229
10
214.66924999999981
20
48.900552434798783
42
0.41421356237309509
10
214.16924999999981
20
49.40055243479879
10
207.56924999999973
20
49.400552434798783
42
0.4142135623730222
10
207.06924999999978
20
48.900552434798783
10
207.06924999999973
20
34.900552434798229
42
0.4142135623731002
10
207.56924999999973
20
34.400552434799145
0
LWPOLYLINE
5
187
100
AcDbEntity
8
0
100
AcDbPolyline
90
8
70
1
43
0.0
10
118.92549999999979
20
34.400552434798215
42
0.41421356237310281
10
119.4254999999998
20
34.900552434798229
10
119.42549999999977
20
48.900552434798783
42
0.41421356237308465
10
118.92549999999979
20
49.400552434798755
10
107.5692499999998
20
49.400552434798755
42
0.41421356237304818
10
107.06924999999977
20
48.900552434798747
10
107.06924999999978
20
34.900552434798215
42
0.41421356237311063
10
107.56924999999978
20
34.400552434799124
0
LWPOLYLINE
5
188
100
AcDbEntity
8
0
100
AcDbPolyline
90
8
70
1
43
0.0
10
35.593749999999815
20
50.950552434798695
42
0.41421356237309243
10
36.093749999999815
20
50.450552434798688
10
42.593749999999773
20
50.450552434798709
42
0.41421356237310542
10
43.093749999999744
20
50.950552434798695
10
43.09374999999978
20
64.950552434798752
42
0.41421356237311585
10
42.593749999999773
20
65.450552434798766
10
36.093749999999829
20
65.450552434798766
42
0.41421356237310802
10
35.593749999999815
20
64.950552434798752
0
LWPOLYLINE
5
189
100
AcDbEntity
8
0
100
AcDbPolyline
90
8
70
1
43
0.0
10
59.569749999999786
20
50.95055243479802
42
0.41421356237311063
10
60.069749999999772
20
50.45055243479802
10
66.5697499999998
20
50.450552434798048
42
0.4142135623731002
10
67.069749999999786
20
50.950552434798055
10
67.069749999999772
20
64.950552434798794
42
0.41421356237311063
10
66.569749999999772
20
65.450552434798794
10
60.069749999999793
20
65.45055243479878
42
0.41421356237310542
10
59.569749999999786
20
64.950552434798794
0
LWPOLYLINE
5
190
100
AcDbEntity
8
0
100
AcDbPolyline
90
8
70
1
43
0.0
10
355.98799999999983
20
65.950552434798709
10
355.98799999999983
20
52.950552434798759
42
-0.4142135623731471
10
355.48799999999977
20
52.450552434798752
10
342.48799999999983
20
52.450552434798752
42
-0.41421356237326673
10
341.98799999999983
20
52.95055243479873
10
341.98799999999972
20
65.950552434798709
42
-0.41421356237319912
10
342.48799999999983
20
66.450552434798709
10
355.48799999999983
20
66.450552434798723
42
-0.41421356237303264
0
LWPOLYLINE
5
191
100
AcDbEntity
8
0
100
AcDbPolyline
90
8
70
1
43
0.0
10
294.36299999999972
20
33.900552434798925
42
0.41421356237308726
10
294.86299999999972
20
33.400552434798755
10
310.24424999999974
20
33.400552434798925
42
0.41421356237316787
10
310.74424999999974
20
33.900552434798925
10
310.74424999999974
20
46.900552434798726
42
0.41421356237313145
10
310.24424999999974
20
47.400552434798726
10
294.86299999999972
20
47.400552434798726
42
0.41421356237308982
10
294.36299999999977
20
46.900552434798719
0
LWPOLYLINE
5
192
100
AcDbEntity
8
0
100
AcDbPolyline
90
8
70
1
43
0.0
10
271.05049999999983
20
47.400552434798726
42
0.4142135623730222
10
270.55049999999989
20
46.900552434798726
10
270.55049999999983
20
33.900552434798925
42
0.41421356237315227
10
271.05049999999983
20
33.40055243479874
10
286.43174999999974
20
33.400552434798911
42
0.41421356237314444
10
286.93174999999974
20
33.900552434798925
10
286.93174999999985
20
46.900552434798726
42
0.41421356237314189
10
286.43174999999974
20
47.40055243479874
0
LWPOLYLINE
5
193
100
AcDbEntity
8
0
100
AcDbPolyline
90
8
70
1
43
0.0
10
228.18799999999976
20
66.450552434798709
10
241.18799999999976
20
66.450552434798723
42
-0.41421356237314189
10
241.68799999999976
20
65.950552434798709
10
241.68799999999976
20
52.950552434798723
42
-0.4142135623731471
10
241.18799999999976
20
52.450552434798716
10
228.18799999999976
20
52.450552434798709
42
-0.41421356237314189
10
227.68799999999973
20
52.950552434798723
10
227.68799999999985
20
65.950552434798709
42
-0.4142135623731002
0
LWPOLYLINE
5
194
100
AcDbEntity
8
0
100
AcDbPolyline
90
8
70
1
43
0.0
10
281.21874999999983
20
64.950552434798794
42
0.4142135623730222
10
280.71874999999983
20
65.45055243479878
10
274.21874999999989
20
65.450552434798794
42
0.41421356237311585
10
273.71874999999977
20
64.950552434798709
10
273.71874999999977
20
50.950552434798695
42
0.4142135623731002
10
274.21874999999972
20
50.450552434798723
10
280.71874999999983
20
50.450552434798723
42
0.41421356237312629
10
281.21874999999983
20
50.950552434798709
0
LWPOLYLINE
5
195
100
AcDbEntity
8
0
100
AcDbPolyline
90
8
70
1
43
0.0
10
311.83849999999978
20
107.60055243479877
42
0.41421356237308465
10
312.33849999999984
20
108.10055243479879
10
312.33849999999978
20
122.1005524347988
42
0.41421356237307422
10
311.83849999999978
20
122.60055243479877
10
305.33849999999978
20
122.60055243479881
42
0.41421356237308465
10
304.83849999999978
20
122.10055243479874
10
304.83849999999973
20
108.10055243479869
42
0.41421356237308465
10
305.33849999999973
20
107.60055243479874
0
LWPOLYLINE
5
196
100
AcDbEntity
8
0
100
AcDbPolyline
90
8
70
1
43
0.0
10
295.95674999999983
20
52.450552434798716
10
282.95674999999983
20
52.450552434798787
42
-0.41421356237308982
10
282.45674999999983
20
52.950552434798716
10
282.45674999999983
20
65.95055243479878
42
-0.41421356237308982
10
282.95674999999983
20
66.450552434798709
10
295.95674999999983
20
66.450552434798809
42
-0.41421356237311585
10
296.45674999999983
20
65.950552434798794
10
296.45674999999977
20
52.950552434798723
42
-0.41421356237304818
0
LWPOLYLINE
5
197
100
AcDbEntity
8
0
100
AcDbPolyline
90
8
70
1
43
0.0
10
260.73799999999983
20
65.950552434798709
10
260.73799999999983
20
52.950552434798723
42
-0.4142135623731471
10
260.23799999999983
20
52.450552434798716
10
247.23799999999983
20
52.450552434798716
42
-0.41421356237313667
10
246.73799999999974
20
52.950552434798723
10
246.73799999999989
20
65.950552434798709
42
-0.41421356237308465
10
247.23799999999983
20
66.450552434798709
10
260.23799999999983
20
66.450552434798723
42
-0.41421356237314189
0
CIRCLE
5
198
100
AcDbEntity
8
0
100
AcDbCircle
10
368.03799999999978
20
151.93805243479881
30
0
40
1.1999999999999744
210
0
220
0
230
1
0
CIRCLE
5
199
100
AcDbEntity
8
0
100
AcDbCircle
10
121.57862499999979
20
151.93805243479875
30
0
40
1.1999999999999922
210
0
220
0
230
1
0
CIRCLE
5
200
100
AcDbEntity
8
0
100
AcDbCircle
10
285.88487499999974
20
151.93805243479881
30
0
40
1.2000000000000099
210
0
220
0
230
1
0
CIRCLE
5
201
100
AcDbEntity
8
0
100
AcDbCircle
10
39.425499999999815
20
151.93805243479875
30
0
40
1.2000000000000011
210
0
220
0
230
1
0
CIRCLE
5
202
100
AcDbEntity
8
0
100
AcDbCircle
10
42.997374999999778
20
28.875552434798287
30
0
40
1.2000000000000011
210
0
220
0
230
1
0
CIRCLE
5
203
100
AcDbEntity
8
0
100
AcDbCircle
10
203.73174999999981
20
151.93805243479875
30
0
40
1.2000000000000099
210
0
220
0
230
1
0
CIRCLE
5
204
100
AcDbEntity
8
0
100
AcDbCircle
10
368.03799999999978
20
28.87555243479834
30
0
40
1.1999999999999744
210
0
220
0
230
1
0
CIRCLE
5
205
100
AcDbEntity
8
0
100
AcDbCircle
10
219.03799999999976
20
28.875552434798315
30
0
40
1.2000000000000099
210
0
220
0
230
1
0
CIRCLE
5
206
100
AcDbEntity
8
0
100
AcDbCircle
10
112.99737499999979
20
28.875552434798305
30
0
40
1.1999999999999922
210
0
220
0
230
1
0
ENDSEC
0
SECTION
2
OBJECTS
0
DICTIONARY
5
C
100
AcDbDictionary
3
ACAD_GROUP
350
D
3
ACAD_MLINESTYLE
350
17
0
DICTIONARY
5
D
100
AcDbDictionary
0
DICTIONARY
5
1A
330
C
100
AcDbDictionary
0
DICTIONARY
5
17
100
AcDbDictionary
0
ENDSEC
0
EOF
